<?xml version="1.0" encoding="UTF-8" standalone="no"?>
<svg
   viewBox="0 0 500 390"
   height="390"
   width="500"
   xml:space="preserve"
   id="svg2"
   version="1.1"
   xmlns="http://www.w3.org/2000/svg"
   xmlns:svg="http://www.w3.org/2000/svg"
   xmlns:rdf="http://www.w3.org/1999/02/22-rdf-syntax-ns#"
   xmlns:cc="http://creativecommons.org/ns#"
   xmlns:dc="http://purl.org/dc/elements/1.1/"><metadata
     id="metadata8"><rdf:RDF><cc:Work
         rdf:about=""><dc:format>image/svg+xml</dc:format><dc:type
           rdf:resource="http://purl.org/dc/dcmitype/StillImage" /></cc:Work></rdf:RDF></metadata><defs
     id="defs6" /><g
     transform="matrix(1.3333333,0,0,-1.3333333,0,546.41333)"
     id="g10"><g
       transform="scale(0.1)"
       id="g12"><path
         id="path34"
         style="fill:#fabd14;fill-opacity:1;fill-rule:nonzero;stroke:none;stroke-width:1.14082"
         d="m 2079.9144,1623.8327 c -3.4016,58.748 3.3902,116.3369 14.6261,173.5735 -21.9792,-56.5548 -27.3509,-114.4846 -14.6261,-173.5735" /><path
         id="path36"
         style="fill:#fabd14;fill-opacity:1;fill-rule:nonzero;stroke:none;stroke-width:1.14082"
         d="m 2105.5588,2929.1742 c -2.1304,1.307 -4.2608,2.6137 -6.3912,3.9205 -32.837,-29.2945 -55.1025,-65.1455 -65.1242,-108.6441 15.4621,39.9646 38.0025,75.6907 71.5154,104.7236" /><path
         id="path38"
         style="fill:#fabd14;fill-opacity:1;fill-rule:nonzero;stroke:none;stroke-width:1.14082"
         d="m 1208.1575,1942.3446 c 0.046,-0.012 0.1025,-0.034 0.1489,-0.057 0.6414,-0.2387 1.2829,-0.5 1.9242,-0.7613 -0.63,0.3181 -1.237,0.6363 -2.0387,1.0453 l -0.034,-0.2271" /><path
         id="path40"
         style="fill:#fabd14;fill-opacity:1;fill-rule:nonzero;stroke:none;stroke-width:1.14082"
         d="m 1837.3416,2013.3194 c -12.3353,-22.0788 -24.6707,-44.1463 -36.9946,-66.2251 2.0044,-0.9658 4.0201,-1.9316 6.0245,-2.8976 11.3619,22.4652 22.7236,44.9417 34.074,67.4182 -1.0307,0.5681 -2.0616,1.1363 -3.1039,1.7045" /><path
         id="path42"
         style="fill:#fabd14;fill-opacity:1;fill-rule:nonzero;stroke:none;stroke-width:1.14082"
         d="m 1736.1733,2262.004 c -2.7259,6.7044 -3.4933,16.0677 -8.487,19.6584 -31.3482,22.5676 -63.6469,43.8507 -95.6249,65.5546 -0.8361,-1.1249 -1.6836,-2.2499 -2.5313,-3.3749 34.5895,-27.5104 69.1904,-55.0321 103.7913,-82.5427 0.9506,0.2388 1.9012,0.4659 2.8519,0.7046" /><path
         id="path44"
         style="fill:#fabd14;fill-opacity:1;fill-rule:nonzero;stroke:none;stroke-width:1.14082"
         d="m 1509.2116,2389.1474 c -27.1905,9.2838 -54.3466,10.2837 -80.3575,-2.8408 -4.5241,-2.2841 -5.5548,-11.3746 -8.2006,-17.3176 1.7065,-0.7842 3.4245,-1.5681 5.1311,-2.3522 23.3994,24.1356 52.6974,25.7265 83.427,22.5106" /><path
         id="path46"
         style="fill:#fabd14;fill-opacity:1;fill-rule:nonzero;stroke:none;stroke-width:1.14082"
         d="m 1636.4824,2286.026 c 15.8745,-16.8063 31.7605,-33.624 47.6464,-50.4301 -7.2043,24.4877 -26.6064,38.2032 -47.6464,50.4301" /><path
         id="path48"
         style="fill:#fabd14;fill-opacity:1;fill-rule:nonzero;stroke:none;stroke-width:1.14082"
         d="m 1296.5553,1743.3854 c -0.013,0 -3.4933,0.069 -9.6209,-0.7158 3.207,0.2386 6.414,0.4772 9.6209,0.7158" /><path
         id="path50"
         style="fill:#fabd14;fill-opacity:1;fill-rule:nonzero;stroke:none;stroke-width:1.14082"
         d="m 1197.838,1863.8814 c -0.013,0 -0.013,-0.013 -0.013,-0.013 l 4.1805,-0.8864 c -1.3974,0.3068 -2.7717,0.6022 -4.169,0.8978" /><path
         id="path52"
         style="fill:#fabd14;fill-opacity:1;fill-rule:nonzero;stroke:none;stroke-width:1.14082"
         d="m 1402.3165,2072.3855 c -1.9241,0.341 -3.8599,0.6818 -5.7955,1.0227 -4.4554,-26.3286 -8.9107,-52.6686 -13.3661,-79.0087 1.1911,-0.046 2.3709,-0.09 3.5505,-0.1476 5.8299,25.9422 14.1794,51.4413 15.6111,78.1336" /><path
         id="path54"
         style="fill:#fabd14;fill-opacity:1;fill-rule:nonzero;stroke:none;stroke-width:1.14082"
         d="m 2386.9473,2492.5643 c -2.222,16.2268 -4.6388,32.4193 -7.3532,51.3619 -5.3487,-29.2831 -10.0676,-55.0663 -14.7177,-80.5427 21.5554,3.3635 25.0144,7.6816 22.0709,29.1808" /><path
         id="path56"
         style="fill:#fabd14;fill-opacity:1;fill-rule:nonzero;stroke:none;stroke-width:1.14082"
         d="m 2070.2706,2181.984 c -24.247,47.4529 -48.4825,94.8946 -74.0351,144.9042 5.028,-33.2262 40.9804,-105.2692 74.0351,-144.9042" /><path
         id="path58"
         style="fill:#fabd14;fill-opacity:1;fill-rule:nonzero;stroke:none;stroke-width:1.14082"
         d="m 2699.6151,2067.9424 c 1.7753,26.6925 17.1802,51.1007 37.9682,62.8615 0,0 121.716,73.5769 175.1348,-17.7039 0,0 -45.1266,107.7237 -194.285,27.1582 -29.1146,-15.7267 -42.4923,-43.8736 -56.6717,-63.475 12.2209,35.385 23.0787,63.1453 51.5062,89.3833 5.0739,4.3406 8.4298,6.8633 8.4298,6.8633 0,0 34.7956,25.7605 121.1546,27.0218 100.4698,1.4659 149.0668,-127.4047 193.0136,-266.5818 34.0627,-107.894 44.68,-128.3024 95.2355,-174.6758 50.945,-46.737 155.0684,-71.1453 155.0684,-71.1453 -109.2201,3.159 -181.7777,42.044 -234.624,125.4049 -52.5714,82.9289 -79.4526,185.789 -91.1466,218.6856 -11.7055,32.8965 -43.5461,75.5202 -117.9363,90.9629 -85.9352,17.8289 -142.8475,-54.7597 -142.8475,-54.7597 z m -214.6492,-153.4265 c -4.9479,35.9874 -9.7354,69.5545 -13.8816,103.2011 -0.3665,2.9317 3.5277,6.386 7.5135,13.0563 6.4712,-20.8629 11.5336,-37.1465 16.5846,-53.4301 -1.363,28.0787 -5.0051,55.6232 -8.5901,83.1905 -3.1497,24.2832 -0.6643,28.8626 24.7395,43.5211 8.6358,-53.4866 17.1458,-106.1098 25.7587,-159.4263 21.2234,4.9317 40.133,9.3407 59.0426,13.7382 0.4467,-0.9545 0.9049,-1.9091 1.3515,-2.8635 -36.7541,-13.3973 -73.5082,-26.7832 -112.5187,-40.9873 z m -24.3271,-67.384 c -0.5384,1.5113 -1.0767,3.0226 -1.6035,4.5339 33.0088,11.6474 66.0177,23.306 99.0266,34.9534 0.4695,-1.8069 0.9506,-3.6136 1.4316,-5.4203 -32.9516,-11.3518 -65.9031,-22.7038 -98.8547,-34.067 z m 84.1027,294.6944 c 1.3286,-0.4886 2.6571,-0.9885 3.9858,-1.4772 6.5285,-32.2943 13.0683,-64.6001 19.5968,-96.9057 -1.0766,-0.2842 -2.1532,-0.5682 -3.2298,-0.8637 -8.6474,28.8968 -17.5925,57.7139 -25.5755,86.7925 -0.9393,3.4203 3.3557,8.2611 5.2227,12.4541 z m -548.506,185.0619 c 25.5526,-50.0096 49.7881,-97.4513 74.0351,-144.9042 -33.0547,39.635 -69.0071,111.678 -74.0351,144.9042 z m 111.2703,830.4942 c 0,-14.3405 -1.0537,-28.0899 0.2748,-41.6008 1.4432,-14.6246 -3.2183,-25.874 -11.4763,-37.851 -33.3067,-48.3392 -52.0102,-102.4964 -61.1042,-160.2899 14.2939,37.2487 34.7613,70.5089 63.4637,99.1556 -2.7374,-16.8289 -6.2537,-33.4306 -13.3204,-48.3846 -11.7055,-24.7491 -27.9121,-47.5439 -38.1744,-72.7816 -13.6411,-33.567 -23.3994,-68.6795 -34.452,-102.0307 -11.3847,102.2805 46.0085,325.7615 94.7888,363.783 z m -8.3382,-224.2877 6.3912,-3.9205 c -33.5129,-29.0329 -56.0533,-64.759 -71.5154,-104.7236 10.0217,43.4986 32.2872,79.3496 65.1242,108.6441 z m -147.6578,-503.2215 c -0.1375,-37.1805 -8.2122,-74.7362 -16.3098,-111.303 -5.2342,-23.6468 -15.8286,-46.4755 -26.469,-68.5204 -25.942,-53.7481 -53.625,-106.6553 -79.9909,-160.2103 -19.1731,-38.9306 -37.3382,-78.3382 -56.4311,-118.53 -7.9716,6.477 -16.5617,14.6585 -26.3086,21.0901 -10.3425,6.8067 -11.6711,14.0223 -6.6774,24.8855 10.9266,23.806 20.8911,48.0553 31.245,72.1226 l -2.7831,1.5341 c -14.9468,-25.931 -29.8821,-51.8734 -45.1725,-78.4179 -10.1593,8.0452 -19.2074,15.7267 -28.8054,22.647 -6.9866,5.0339 -8.6932,10.2725 -4.7189,18.079 15.8517,31.2262 29.8134,63.5204 47.4173,93.7354 35.3454,60.657 71.8017,120.6776 98.0072,186.0049 11.3504,28.2945 24.5792,55.6231 29.9967,86.4744 4.8218,27.4876 18.7035,53.2935 25.0028,80.6563 18.6692,81.1221 18.4287,163.4716 12.0492,245.9347 -11.1443,143.9269 -39.4802,284.0812 -95.8884,417.6789 -7.0325,16.6812 -7.1241,29.624 1.9127,44.7712 11.0297,18.4766 20.284,37.9873 30.2944,57.0549 1.1339,-0.2274 2.2563,-0.4661 3.3903,-0.7046 6.2765,-21.9652 12.5415,-43.9304 18.818,-65.8955 0.1832,22.5447 1.0307,85.2357 -4.7189,106.3827 -46.7759,77.736 -81.308,237.7987 -70.9885,254.6277 1.4431,0.046 40.843,-171.6191 91.7536,-239.2531 28.2328,-37.4874 19.9863,-102.6442 29.9738,-153.9607 -0.378,45.3621 -1.9013,90.7241 -6.7805,135.7453 -2.1074,19.4312 1.0766,34.5557 13.1142,49.6233 13.1028,16.4085 24.3959,34.2489 36.4793,51.4643 1.1223,-0.3865 2.2448,-0.7729 3.3787,-1.1706 v -13.579 c -0.023,-319.6595 0.4925,-639.319 -0.7902,-958.9672 z m 13.9045,-320.7276 c 39.5487,-43.1577 68.7207,-92.9855 93.4945,-145.4609 1.718,-3.6362 -1.0995,-11.7269 -4.4898,-15.0336 -27.0301,-26.4309 -51.174,-55.0661 -68.4344,-88.6674 -13.9732,-27.2263 -26.2857,-55.2822 -39.125,-82.5427 -9.9416,16.4882 -18.0621,35.2603 -30.8441,50.078 -28.439,32.9987 -58.8365,64.3841 -89.3141,95.5876 -7.6051,7.7725 -10.0905,13.5903 -4.169,22.9537 20.9712,33.1922 39.9955,67.7136 62.8795,99.5306 19.4594,27.0674 43.2024,51.0893 65.6167,77.1112 6.2079,-5.8181 10.5945,-9.4089 14.3857,-13.5565 z M 1800.347,1947.0943 c 12.3239,22.0788 24.6593,44.1463 36.9946,66.2251 1.0423,-0.5682 2.0732,-1.1364 3.1039,-1.7045 -11.3504,-22.4765 -22.7121,-44.953 -34.074,-67.4182 -2.0044,0.966 -4.0201,1.9318 -6.0245,2.8976 z m -166.3156,1207.4928 c 97.0222,-130.1546 156.2136,-176.6531 158.7334,-179.4939 33.1921,-37.6577 58.596,-80.0199 76.1541,-123.3935 -27.7976,40.6122 -154.2666,155.9606 -234.8875,302.8874 z m 164.4029,-78.7474 c 1.3858,0.6591 2.7717,1.3068 4.1576,1.9546 16.0577,-21.4085 23.6056,-46.828 30.512,-72.5317 -11.5565,23.5219 -23.1131,47.0551 -34.6696,70.5771 z m 281.4801,-1452.007 c -12.7248,59.0889 -7.3531,117.0187 14.6261,173.5735 -11.2359,-57.2366 -18.0277,-114.8255 -14.6261,-173.5735 z m -463.6703,238.9349 c -0.7445,-1.3748 -1.4888,-2.7497 -2.222,-4.1246 -2.2677,0 -4.6843,-0.5228 -6.769,0.079 -66.7392,19.4313 -133.4327,39.0214 -200.1948,58.4071 -7.5479,2.1931 -7.6853,6.4885 -6.2422,12.9202 5.6008,24.9194 11.2358,49.8504 15.8402,74.9631 1.6035,8.7043 0.252,17.9426 0.252,29.1922 66.7736,-57.4297 133.0547,-114.4278 199.3358,-171.4373 z m -154.175,-4.5906 c 37.1437,-14.8632 73.5657,-31.999 111.6598,-43.9076 34.5551,-10.8065 53.5792,-29.5899 54.2665,-66.2364 0.1947,-10.2496 4.4325,-20.4311 7.3074,-32.7942 -7.0554,2.034 -11.1214,3.1135 -15.1415,4.3634 -43.672,13.5677 -87.1952,27.6581 -131.0505,40.6349 -93.6664,27.7036 -187.4473,55.0322 -281.3427,81.963 -0.046,0.023 -0.069,0.035 -0.115,0.046 l -13.4692,3.8862 -236.13591,68.0772 238.48391,-50.0666 1.2942,-0.2726 c 0,0 0,0.013 0.013,0.013 1.3973,-0.2955 2.7717,-0.591 4.169,-0.8977 l 0.069,-0.013 c 32.4934,-6.9316 64.4486,-13.7497 96.3694,-20.5675 0.2176,0.7726 0.4466,1.534 0.6642,2.3066 -31.3481,11.5111 -62.6962,23.022 -94.846,34.8284 0,0 -1.9471,0.6819 -5.4634,1.8637 -35.5056,11.954 -236.94911,77.1792 -336.28481,53.8844 -109.1744,-25.59 -152.8349,-114.0415 -152.8349,-114.0415 0,0 52.7545,113.7803 156.477,125.0753 99.3817,10.8177 179.87661,-7.6588 334.31501,-52.0892 4.1004,-1.1704 8.2236,-2.3635 12.4155,-3.5794 0.023,0.035 0.035,0.058 0.046,0.09 65.2502,-20.1245 129.1835,-27.5333 192.9449,-47.1917 l 1.5462,4.5341 c -68.5832,23.3172 -136.3877,48.43 -201.8901,78.9289 0,0 -195.5906,90.3379 -371.06901,128.098 -175.4899,37.76 -329.4484,18.2948 -329.4484,18.2948 0,0 132.6665,28.499 357.578,-12.6359 129.3095,-23.647 344.87501,-122.405 344.87501,-122.405 v 0 c 3.5163,-1.034 7.021,-2.0567 10.5373,-3.0793 -1.3287,2.0453 -2.8405,3.4429 -4.4325,4.4998 -0.034,0.023 -5.3832,2.7839 -5.3832,2.7839 -21.9792,11.2838 -109.0255,55.1686 -196.1862,87.4857 -200.33241,74.2816 -401.59251,66.3728 -401.59251,66.3728 168.5261,24.0219 342.9507,-21.022 425.02621,-47.1462 74.0924,-23.5901 152.0103,-56.0777 179.407,-67.7704 l 0.023,0.1141 c 123.033,-54.771 250.636,-97.3149 379.4415,-136.6545 23.5598,-7.193 23.5942,-7.0792 20.7652,-33.476 -54.5184,18.1129 -108.8765,36.1805 -163.2462,54.248 2.7145,-4.4543 6.4598,-6.0566 10.2394,-7.5679 z m 208.5447,-243.0371 c 6.6658,-23.647 16.5616,-46.4076 23.0672,-70.0999 12.7248,-46.3279 22.5519,-93.1445 9.7125,-141.3134 -7.9945,-29.9876 -21.395,-56.8389 -47.738,-75.1792 -5.5091,-3.8407 -14.878,-8.6586 -19.2532,-6.5225 -20.5819,10.0111 -40.0413,22.2947 -63.0284,35.567 56.3625,22.8061 67.7815,72.9633 85.8207,118.53 1.2599,-0.3636 2.5313,-0.7272 3.7912,-1.0908 -1.5119,-24.3515 -3.0238,-48.7142 -4.696,-75.5997 1.741,3.2044 2.6113,4.3066 2.9778,5.5565 23.8233,80.236 12.6104,154.7334 -39.2967,221.3561 -36.7084,47.1006 -87.7679,73.1453 -143.9241,90.5651 -3.5849,1.1136 -7.0898,2.534 -10.6403,3.8067 55.7554,-3.1931 110.9725,-7.4884 151.2773,-54.214 0.8818,1.5112 1.7752,3.0111 2.6686,4.5111 -7.9144,8.8633 -15.8173,17.7267 -23.7201,26.5901 7.376,-0.7728 14.7062,-2.4773 19.4136,-6.9089 22.884,-21.5562 44.6341,-43.8394 53.5679,-75.5542 z m -295.6825,134.109 c -26.068,-1.9431 -52.2278,-3.9091 -78.3645,-5.8635 v 0 h -0.013 l -9.6209,-0.7158 c -5.4175,-0.6931 -12.931,-2.0795 -22.1854,-4.818 -18.7836,-5.5453 -44.5081,-16.6472 -73.5884,-38.9986 -58.3668,-44.8737 -188.6155,-144.3588 -302.52011,-153.5402 -10.8006,-1.2046 -16.5846,-0.9091 -16.5846,-0.9091 5.4632,0 11.0296,0.4658 16.5846,0.9091 31.4855,3.5112 106.1735,20.0106 208.67051,95.4852 65.3419,48.1233 114.9813,92.7356 158.596,109.769 0.6986,0.2727 1.3973,0.5569 2.096,0.8181 5.1083,3.5568 12.4728,6.6362 20.1351,6.6931 6.6202,0.046 13.3548,0.2953 19.9634,-0.2842 25.8046,-2.2385 51.5749,-4.7953 77.3451,-7.2384 -0.1717,-0.4431 -0.3435,-0.8749 -0.5153,-1.3067 z M 1255.151,2109.623 c 7.0898,39.0326 14.0191,78.0994 21.6013,120.4275 9.6667,-8.8179 16.4471,-16.204 24.4187,-21.9652 9.7469,-7.0336 9.495,-14.8403 7.5823,-25.7377 -9.4607,-53.8731 -17.6842,-107.9508 -26.343,-161.9603 1.7752,-0.3864 3.5391,-0.7613 5.3143,-1.1363 11.7513,46.0553 23.4912,92.1105 36.1128,141.6088 18.2912,-17.2609 35.2652,-32.8398 51.5291,-49.112 2.2105,-2.2159 1.7295,-8.0566 1.0766,-11.9881 -6.9407,-42.0101 -14.1793,-83.9746 -21.292,-125.9618 -1.8668,-11.0109 -3.5735,-22.0446 -5.3716,-33.1692 -2.9894,0 -4.547,-0.4318 -5.7152,0.056 -34.7269,14.4427 -69.5225,28.7036 -103.9058,43.9078 -3.2185,1.4203 -5.9215,9.1246 -5.2229,13.3175 6.288,37.317 13.4579,74.4747 20.2154,111.7122 z m 141.37,-36.2148 c 1.9356,-0.3409 3.8714,-0.6817 5.7955,-1.0227 -1.4317,-26.6923 -9.7812,-52.1914 -15.6111,-78.1336 -1.1796,0.056 -2.3594,0.1016 -3.5505,0.1476 4.4554,26.3401 8.9107,52.6801 13.3661,79.0087 z m 24.1325,295.5808 c 2.6458,5.943 3.6765,15.0335 8.2006,17.3176 26.0109,13.1245 53.167,12.1246 80.3575,2.8408 -30.7296,3.2159 -60.0276,1.625 -83.427,-22.5106 -1.7066,0.7841 -3.4246,1.568 -5.1311,2.3522 z m 211.4079,-21.772 c 31.978,-21.7039 64.2767,-42.987 95.6249,-65.5546 4.9937,-3.5907 5.7611,-12.954 8.487,-19.6584 -0.9507,-0.2387 -1.9013,-0.4658 -2.8519,-0.7046 -34.6009,27.5106 -69.2018,55.0323 -103.7913,82.5427 0.8477,1.125 1.6952,2.25 2.5313,3.3749 z m 4.421,-61.191 c 21.04,-12.2269 40.4421,-25.9424 47.6464,-50.4301 -15.8859,16.8061 -31.7719,33.6238 -47.6464,50.4301 z m 1469.467,-587.7526 c 145.7681,-74.8044 301.581,-57.3504 369.6489,6.4201 0,0 -211.3163,-46.3165 -344.016,72.7475 -105.6353,94.7922 -80.9188,574.0941 -411.9465,401.2591 -21.8762,-14.3519 -38.2775,-32.6921 -51.4604,-53.3846 -3.3788,-4.7839 -6.3338,-9.5451 -8.4756,-14.1131 -0.034,-0.079 -0.034,-0.1591 -0.069,-0.2386 -14.9467,-27.6469 -25.2091,-58.7139 -34.6811,-90.3834 3.8942,51.4983 19.7572,98.8263 48.494,141.9043 -1.2829,0.7954 -2.5656,1.5909 -3.837,2.3863 -15.1873,-20.488 -30.3745,-40.9645 -46.6041,-62.8501 17.7758,49.1573 49.9256,88.5197 88.9132,113.746 -0.023,6.0793 118.108,77.5088 119.9063,83.5881 -5.5894,-4.3976 -129.8937,-72.8157 -137.0635,-75.9746 1.9356,12.0449 10.205,28.7149 20.9941,42.078 6.517,5.4772 13.5495,11.4655 21.1431,17.9767 57.5536,49.3732 152.9609,144.1655 243.741,140.336 37.1091,-1.5681 73.3823,-9.5791 169.9464,-160.9602 96.5755,-151.3699 200.8592,-118.7915 200.8592,-118.7915 -102.3595,15.329 -150.6358,103.4623 -150.6358,103.4623 183.4728,11.4996 218.2341,113.053 218.2341,113.053 0,0 -187.3328,-137.9612 -272.3174,-21.0788 -84.9731,116.8823 -92.7042,147.5404 -187.3326,143.711 -94.64,-3.8294 -229.0691,-124.5639 -229.0691,-124.5639 -2.3939,-1.6023 -5.051,-2.9204 -7.1355,-4.8521 -33.1579,-30.4762 -60.795,-65.1455 -83.0148,-104.3373 -8.1549,-14.3746 -11.3732,-28.6014 -4.7074,-43.0782 12.1752,-26.408 -1.4087,-44.3393 -19.6426,-63.7704 0.859,3.6476 0.7903,5.5225 1.6723,6.727 16.6075,22.8174 15.6682,47.3621 7.4447,72.6566 -4.7304,14.5675 -2.3136,27.84 3.184,42.3054 7.4676,19.6243 11.0984,40.6804 16.367,61.1229 -1.1454,0.4204 -2.3021,0.8522 -3.4475,1.2727 -0.9049,-0.6251 -2.451,-1.1137 -2.6342,-1.8978 -15.3477,-65.259 -52.3882,-118.3368 -96.8162,-166.7328 -40.4192,-44.0326 -82.3503,-86.713 -124.27,-130.6661 19.7114,12.9086 39.0678,25.5787 59.0999,38.7033 4.3981,-9.7496 6.2306,-16.5335 -3.5276,-23.1356 -66.6019,-45.078 -132.906,-90.5992 -199.3475,-135.9158 -1.0423,-0.7046 -2.5541,-0.7046 -3.562,-0.9657 -3.9973,23.9877 -6.6774,47.8845 -12.0949,71.168 -16.1035,69.2247 -50.8762,130.3022 -87.2867,190.4479 -39.5488,65.3386 -79.8993,130.2114 -108.8995,201.1862 -29.0002,70.9521 -45.3557,144.4269 -46.0773,221.1743 -0.6185,65.8387 -2.2219,131.7114 13.8244,196.4138 12.301,49.6119 32.7454,94.758 70.5189,130.8818 3.4818,3.3294 5.9787,8.5225 6.9752,13.2496 0.7215,3.443 -0.6529,9.1133 -3.1726,10.9087 -2.5885,1.8408 -7.8113,0.659 -11.6826,-0.1364 -2.6458,-0.5454 -4.9364,-2.7272 -7.4333,-4.1135 -1.9241,-1.0681 -3.9171,-2.0112 -8.4755,-4.3522 2.5999,5.8294 3.6651,9.2838 5.5434,12.2497 13.9275,22.1016 20.5246,46.4871 24.6707,71.9975 1.6838,10.386 0.4812,17.6698 -9.5063,21.9993 -9.6782,4.193 -12.5529,10.386 -4.7303,18.2607 23.892,24.0788 23.1933,53.7595 25.0945,85.0199 2.5198,41.5325 -16.5044,73.8609 -33.9824,107.7235 -7.5592,14.6358 -16.4242,28.6241 -24.6936,42.9077 -1.4431,0.1016 -2.8862,0.2044 -4.3294,0.2953 -13.3891,-39.9305 -26.7782,-79.8835 -40.1672,-119.8254 -0.6758,0.1478 -1.3516,0.284 -2.0274,0.4318 2.2335,10.0678 4.2149,20.2038 6.7461,30.1922 6.288,24.7833 11.339,50.0095 19.7687,74.0655 6.0475,17.2381 3.1612,30.0331 -7.3073,44.1917 -26.1597,35.4079 -51.1054,71.7021 -78.4905,110.4054 -21.922,-34.7489 -41.725,-66.1454 -61.7341,-97.8603 -12.8509,23.931 -67.0486,89.4741 -119.7689,314.9437 -1.088,-268.6725 84.0799,-345.4313 74.7568,-363.2944 -2.0388,-3.9202 -8.4183,-5.6247 -10.4685,-9.545 -7.4448,-14.1928 -14.7864,-28.4422 -22.0364,-42.7373 -7.9831,-15.704 -15.8516,-31.4648 -23.64,-47.271 -1.718,-3.4885 -1.0536,-8.3521 -0.8246,-12.5336 1.2485,-22.6925 2.4281,-45.4076 4.2377,-68.0546 0.5498,-6.852 3.0353,-13.545 4.0316,-17.7493 -9.598,-21.3858 -1.3056,-41.4646 -1.111,-60.8843 0.1948,-20.1812 -5.2915,-42.2145 13.5152,-59.1572 l -4.9479,-3.3747 c -2.1418,3.2953 -3.5276,7.2155 -6.414,9.886 -61.4019,56.7934 -106.2079,111.4393 -138.7586,162.1648 -8.5214,35.6579 -21.4867,125.223 35.46,208.2201 0,0 -66.9112,-57.9979 -61.3792,-163.9375 -83.7591,157.7219 -50.1432,267.8431 -50.1432,267.8431 -87.6304,-223.1855 188.5582,-497.7443 188.5582,-497.7443 20.3414,-29.6694 42.7214,-58.3274 59.7985,-89.7811 49.7997,-91.7354 63.0055,-190.8456 52.537,-293.399 -3.5963,-35.2374 -10.6975,-70.1226 -16.3783,-105.1441 -2.0273,-12.5677 -3.0582,-25.556 -7.1355,-37.476 -30.6839,-89.8151 -70.015,-175.6302 -120.834,-256.1957 -23.514,-37.2715 -45.2068,-75.6566 -68.9155,-115.5416 -15.0957,12.9086 -31.0618,26.0106 -46.4094,39.7827 -60.039,53.896 -115.7028,111.519 -155.7098,182.2666 -3.7337,6.5906 -7.25,13.3291 -10.5027,20.1812 -6.7461,14.1813 -4.673,18.8401 10.9952,23.1582 29.0575,7.9998 55.9158,-0.7727 81.6403,-12.67 47.1654,-21.8401 84.893,-55.6913 118.2111,-94.7468 5.8299,-6.8293 11.5223,-13.7609 18.4286,-22.0332 7.2844,6.7042 14.0305,12.8972 21.2805,19.5561 -6.7346,11.5564 -13.0568,22.4082 -19.3792,33.2715 0.7445,0.6932 1.4775,1.3977 2.222,2.0909 8.8879,-6.5113 17.7872,-13.0111 27.7059,-20.2834 11.9116,12.8405 27.0645,23.2946 18.0621,48.4756 8.4297,-7.2384 13.2287,-11.3633 20.8911,-17.9312 6.4711,15.6245 12.9195,29.9308 18.0735,44.6803 0.985,2.8294 -2.5426,7.7724 -4.8906,11.1245 -46.4209,66.4524 -74.9629,139.768 -89.5545,219.288 -12.7478,69.4182 -7.9259,139.3362 -10.7663,209.0496 -1.489,36.3511 -3.9056,72.8954 -9.5178,108.7917 -8.109,51.7028 -34.3948,95.7354 -65.5138,137.2341 -31.3825,41.8395 -54.3466,85.3493 -77.0245,134.484 -17.0542,36.9533 -29.3322,59.0093 -61.0584,152.7561 -37.785,137.6657 -59.8672,228.674 -36.5365,350.9994 -74.562,-226.981 42.2747,-474.4951 51.7238,-493.0854 -6.1963,0.3977 -10.0333,0.6363 -16.3326,1.0454 v -51.3846 c -8.59,6.8747 -15.485,14.5223 -21.5554,22.5788 -42.4008,52.7595 -90.9978,74.6337 -125.1405,76.8496 -27.5799,1.7839 -83.1406,2.8295 -121.7044,15.4654 -57.5536,18.8401 -119.1617,44.8507 -119.1617,44.8507 0,0 64.3111,-31.9194 116.138,-50.0211 53.27,-18.6016 93.4143,-16.1699 122.5062,-19.1358 67.3349,-6.8518 123.9264,-79.0768 123.9264,-79.0768 6.7575,-7.2723 13.3661,-14.7381 19.8602,-22.3628 15.8173,-18.5902 30.4433,-38.1918 45.6192,-57.3275 -7.2043,15.3971 -17.8789,28.5672 -26.5033,42.7712 -6.1964,10.2043 -1.9014,28.6695 -6.9752,62.4752 17.9361,-26.1582 36.548,-57.9071 51.9071,-80.3041 -13.916,38.5555 -28.4504,76.0088 -43.0306,113.428 -6.9294,17.772 -65.6284,144.5972 -69.6943,319.0458 23.1359,-130.666 29.5155,-161.9149 50.0974,-219.663 24.4531,-68.6113 81.4684,-203.5839 126.5149,-259.9569 35.1048,-43.9303 67.3462,-89.9173 72.6263,-147.1995 7.1928,-78.0314 10.6174,-156.4037 15.4049,-234.651 1.5234,-25.0674 0.9278,-50.3279 3.5735,-75.2703 6.4025,-60.2592 21.418,-118.2345 50.8763,-171.9031 3.2986,-6.0112 6.3222,-12.1701 9.472,-18.2608 -6.2994,0.7841 -10.1822,3.9318 -14.4658,6.3635 -39.2854,22.2492 -77.8147,46.0097 -118.2225,66.0546 -33.9022,16.8175 -70.8167,25.6468 -109.4264,23.7945 -57.5993,-2.7498 -88.8673,-43.3167 -71.5841,-97.5647 8.7849,-27.5674 22.4718,-54.5323 38.5868,-78.7133 54.7932,-82.2244 127.0187,-148.3698 203.9287,-209.6972 61.4135,-48.9644 121.8878,-98.8831 174.8026,-157.1539 40.5912,-44.6915 75.7762,-92.6445 94.8347,-150.6085 2.1991,-6.6928 5.3373,-14.0108 4.5126,-20.6015 -4.421,-35.0783 -9.953,-70.0202 -14.019,-97.6443 -10.4914,31.658 -21.2346,70.7703 -36.3876,108.1212 -18.8868,46.5439 -52.1705,91.406 -69.2133,99.4852 43.2369,-56.6684 64.5059,-119.3027 60.4743,-191.1638 -41.9312,17.079 -78.5822,70.4976 -76.3144,113.7461 12.5645,-17.9766 25.1175,-35.9419 38.9074,-55.68 -1.2713,4.9203 -1.8898,7.9998 -2.8633,10.9771 -14.7865,45.6686 -40.6484,84.9742 -75.2492,117.5299 -47.738,44.919 -96.6099,88.838 -147.1083,130.666 -123.1819,102.0079 -237.0064,212.3904 -331.8066,341.7269 -36.17,49.3506 -74.917,96.6672 -116.8939,141.1087 0,0 -122.2199,161.9946 -272.30601,214.4928 -110.2852,38.5668 -213.8932,13.9768 -268.9386,-12.8633 0,0 128.7484,36.1579 250.4986,-7.5565 92.7386,-33.2942 172.84411,-114.1551 271.80191,-227.7991 20.3986,-19.5106 39.4686,-41.0553 58.3784,-64.0317 -16.2182,13.0222 -30.3288,23.4309 -66.5103,41.3279 -39.9726,19.1131 -113.5725,49.3394 -190.39091,42.6237 -97.194,-8.5111 -124.4761,-52.6346 -124.4761,-52.6346 0,0 41.702,40.6804 124.4761,46.2825 82.76281,5.6134 186.62271,-54.1686 186.62271,-54.1686 14.775,-8.727 29.3781,-17.9993 43.6721,-28.2377 22.1051,-15.8516 42.5266,-34.0101 63.727,-51.1004 -0.6414,-0.7614 -1.2714,-1.5228 -1.9128,-2.2842 l -77.517,49.0893 c -0.7673,-1.1249 -1.5347,-2.2385 -2.3021,-3.3634 9.4491,-7.1135 19.1845,-13.8859 28.2786,-21.4313 8.9565,-7.4314 17.2603,-15.6244 25.8504,-23.4877 -0.7559,-0.9317 -1.5004,-1.8636 -2.2564,-2.7953 -25.5983,19.5674 -52.1475,37.4077 -79.7617,53.2822 0,0 -89.0506,47.9528 -148.42541,57.464 -59.3747,9.511 -91.8911,10.8292 -160.4515,-23.8401 0,0 138.7129,63.6909 310.03361,-57.0209 19.5397,-11.4654 25.8047,-14.7608 44.1532,-29.2602 9.2887,-7.3406 16.4815,-25.3402 15.6225,-33.2262 -2.474,-22.7493 7.1011,-38.6577 16.3096,-47.9189 15.3134,-15.4085 17.123,-13.6244 33.3296,-28.1694 3.3559,-2.9999 8.7734,-6.7839 8.6588,-10.0452 -0.5955,-16.0675 -2.7259,-32.0785 -4.4325,-49.2482 l -18.4172,-81.4745 -10.5142,-40.2714 c 0,0 -283.79381,151.4835 -607.56001,108.3826 -323.7778,-43.1119 -346.7832,98.2809 -346.7832,98.2809 0,0 12.24945,-180.8233 295.5221,-159.756 302.779,22.5219 643.82851,-134.6886 643.82851,-134.6886 -150.0632,38.4307 -252.72051,68.3273 -368.52641,42.1804 -102.6459,-23.1809 -148.6888,-172.6305 -148.6888,-172.6305 93.884,113.8144 171.1949,154.2903 286.8748,126.8707 47.36001,-11.2268 221.67011,-62.5661 221.67011,-62.5661 14.4773,-26.624 30.1685,-52.6231 46.0086,-78.4859 2.4625,-4.0226 8.0059,-6.1929 13.5494,-10.2723 -18.4974,12.9199 -133.7305,-93.5536 -261.45951,-165.4034 -127.7289,-71.8384 -322.8615,-39.8737 -322.8615,-39.8737 105.6811,-38.351 248.4599,-47.2711 340.92361,-14.9653 97.5605,34.0784 277.7807,139.302 277.7807,139.302 38.2316,14.1927 78.5936,22.5675 120.4102,23.5333 41.9196,0.9659 82.9459,-3.784 122.2084,-19.0334 87.4127,-33.9648 129.6875,-115.0188 105.4176,-205.1294 -5.8184,-21.6015 -15.5195,-42.9531 -27.557,-61.8501 -8.2007,-12.8518 -22.7007,-22.5106 -35.9754,-31.1922 -11.5451,-7.5452 -24.4875,-6.4088 -38.0827,-0.3408 -17.6841,7.8973 -36.4564,14.1018 -55.366,18.4652 -23.8346,5.5113 -47.6464,2.5796 -69.4194,-9.0679 -24.4646,-13.079 -50.6014,-52.1912 -80.827,-87.6788 -46.2835,-54.3389 -93.758,-107.9963 -93.758,-107.9963 11.1098,3.7613 37.0978,28.647 93.4258,92.5878 15.3706,17.4539 29.3896,36.0668 44.1416,54.0435 49.6164,60.4639 104.7534,60.9526 167.083,28.1468 21.3836,-11.2608 40.2246,-27.2036 61.3334,-39.0781 18.085,-10.1701 37.0175,-20.1811 56.8548,-25.6696 39.8238,-11.0224 68.3428,7.352 80.243,50.8165 -13.435,-20.6471 -23.9721,-40.8395 -49.1812,-41.6463 7.9602,23.5446 17.9132,46.1461 23.1246,69.7702 12.3354,55.8845 4.9708,111.3826 -10.2624,165.6648 -16.8823,60.157 -35.8035,119.7345 -53.7968,179.5734 -15.611,51.9072 -29.275,104.0418 -22.6435,159.165 0.5268,4.3294 -3.7453,10.42 -7.502,13.8517 -20.7079,18.9085 -41.8738,37.317 -63.0742,55.6913 -3.3787,2.9431 -7.6967,4.8295 -11.5795,7.1929 1.3974,1.4546 2.7947,2.909 4.2035,4.3635 12.7019,-10.3064 25.0602,-21.0673 38.1858,-30.8397 28.9887,-21.5902 58.1377,-42.9987 87.722,-63.7707 8.3037,-5.8293 11.7741,-11.6814 11.2702,-22.0446 -2.222,-45.0439 6.3567,-88.5765 21.1889,-130.9956 1.9815,-5.6476 4.6845,-11.0562 8.0289,-16.3516 -13.8816,48.146 -20.1466,96.8376 -14.0076,150.9266 22.5747,-23.1242 52.182,-33.0785 57.2673,-69.2022 7.7197,-54.8276 28.1412,-105.8827 62.8108,-152.722 -13.3434,33.8625 -25.9306,65.8045 -38.518,97.7467 l 3.7109,1.4999 c 11.5566,-20.113 21.4408,-41.419 34.9903,-60.0889 29.8133,-41.0668 60.291,-81.7926 92.7272,-120.8253 36.1356,-43.51 54.3122,-91.5423 49.0093,-148.1426 -1.4317,-15.3745 -0.2176,-31.0104 -1.5233,-47.453 -4.3409,17.0789 -9.4605,33.9989 -12.8622,51.2484 -7.4906,38.0554 -11.7971,77.0312 -34.475,110.337 -6.8147,10.011 -14.2823,19.5675 -22.9412,28.499 15.3705,-27.8739 31.0732,-55.2822 27.6257,-89.1334 -3.6995,5.5795 -7.3988,11.1588 -11.0983,16.7268 9.953,-35.3397 7.5707,-71.7475 13.0568,-106.6327 4.9365,-31.3966 14.294,-65.441 42.5153,-89.4174 58.0844,-53.6139 50.9041,-64.2773 31.0667,-98.5944 43.0078,0 76.7103,-2.1634 117.9084,-2.1634 -17.3749,14.1586 -36.8344,27.0557 -52.5829,43.453 -37.5787,39.1236 -55.8927,88.5423 -70.3012,139.5406 -21.773,77.0315 -29.6301,156.131 -35.7463,235.5488 -5.028,65.2022 -2.3937,129.7341 15.7944,192.8798 19.3105,67.0658 53.2128,125.3706 108.2008,170.3009 3.562,2.9089 7.3416,5.5907 11.1098,8.4428 12.3125,-20.2947 11.8314,-28.5217 -1.9242,-44.3962 -24.9456,-28.7717 -51.7123,-77.6791 -56.2594,-101.292 18.3714,24.056 38.0255,49.8052 57.966,75.9179 11.316,-7.6816 6.036,-13.5222 2.3136,-19.363 -25.4381,-39.9418 -44.9777,-82.3494 -54.5757,-128.882 -8.487,-41.1575 -8.6015,-82.6788 -6.2421,-124.4502 1.6492,-29.283 1.4546,-58.6684 1.7638,-88.0084 0.046,-4.8179 -1.5577,-9.6474 -4.5928,-14.4199 -21.5784,70.0885 -23.9835,141.8588 -20.9828,217.0948 -40.591,-120.6549 -3.3444,-385.1231 62.5474,-464.802 -9.4378,42.0097 -19.4136,86.4741 -29.3896,130.9385 1.34,0.2954 2.6801,0.591 4.0087,0.8864 12.9539,-28.4878 23.9606,-58.0662 39.3884,-85.1676 15.3362,-26.9309 35.1277,-51.3505 53.2356,-77.2587 -5.5664,-1.3751 -13.8127,-3.4204 -22.0592,-5.4544 0.046,-0.5454 0.091,-1.0908 0.1488,-1.6363 8.9223,-0.875 17.833,-1.7384 26.7553,-2.6021 0.08,-0.9432 0.1489,-1.8751 0.2176,-2.8067 -7.9372,-3.193 -15.8745,-6.3863 -23.8232,-9.5793 46.2605,4.7953 90.6427,-1.0908 127.6831,-27.8399 21.8532,-15.7836 43.0536,-18.8063 67.5067,-17.988 17.5009,0.5796 35.0475,0.1142 53.1669,1.6248 -95.0636,17.6813 -176.2342,55.6459 -225.1061,143.9156 -31.1191,56.2139 -42.6184,116.5187 -43.2598,183.6188 12.2782,-27.9082 22.9528,-52.2142 33.6388,-76.5202 l 2.4052,1.1249 c -7.5707,30.6241 -16.1378,61.0435 -22.506,91.906 -14.271,69.1112 -18.085,138.9838 -10.3653,209.1746 2.7258,24.8741 9.4147,49.3165 12.1521,74.1906 10.938,99.3034 -10.3769,191.0389 -67.6213,273.8882 -1.5806,2.2843 -3.5047,4.3068 -7.7311,5.2046 1.7868,-3.8181 3.814,-7.5453 5.3489,-11.4542 11.2472,-28.6127 22.6549,-57.1571 33.318,-85.9856 1.8096,-4.8635 0.2635,-10.9542 0.2635,-16.4882 -1.3058,-0.2841 -2.6114,-0.5568 -3.9171,-0.8408 -6.5629,11.2609 -12.301,23.1015 -19.8489,33.6806 -28.897,40.476 -57.8858,80.9063 -87.9969,120.496 -7.3645,9.6701 -11.6024,18.4082 -11.3275,30.5784 0.7101,30.7604 0.2635,61.5547 0.3436,92.3377 0.012,2.5454 0.5498,5.1022 0.8934,8.0793 11.1671,-20.329 21.8646,-39.8054 32.5508,-59.282 1.4775,0.5795 2.9435,1.159 4.4096,1.7385 -39.4343,59.5435 -43.9355,125.132 -32.4935,193.7433 5.2114,-21.4537 10.1706,-42.9758 15.737,-64.3387 2.978,-11.3973 5.658,-23.1583 10.8006,-33.6351 28.3588,-57.8389 58.0576,-115.0188 86.0384,-173.0396 20.7651,-43.0212 42.4465,-85.9516 58.6302,-130.7341 26.6064,-73.5884 20.1009,-147.2449 -10.0217,-219.0721 -1.6493,-3.9316 -3.2643,-7.8633 -4.7189,-11.8518 -0.2634,-0.7273 0.3323,-1.7499 0.7216,-3.5226 19.2189,8.2269 38.4149,16.0676 57.1642,24.8174 3.7338,1.7385 6.5171,6.6247 8.5328,10.6473 42.332,84.9404 41.3699,170.4146 2.8519,256.2753 -1.9241,4.2725 -3.9857,8.4883 -6.4941,13.795 15.531,-12.5336 37.911,-68.1113 45.2985,-111.2462 6.998,-40.8395 4.3294,-81.1109 -9.8844,-124.0639 16.5159,5.2952 30.4891,8.9997 43.6835,14.5448 3.3903,1.4206 6.1161,8.6362 6.0818,13.1814 -0.1604,28.7036 15.76,46.6575 38.3691,61.5434 50.8304,33.4533 101.1912,67.6454 151.7926,101.4511 1.8326,1.2272 4.2608,1.5795 10.2966,3.7385 2.6802,-35.4988 5.4519,-69.259 7.3303,-103.0647 0.1489,-2.5454 -5.658,-6.5907 -9.4376,-7.977 -78.6968,-28.9989 -157.5194,-57.6797 -236.2849,-86.5083 -13.1714,-4.8181 -28.3129,-7.7612 -28.8169,-28.0786 33.8106,10.2042 67.2548,20.2947 100.6989,30.3966 0.3092,-0.8067 0.6185,-1.6136 0.9276,-2.4089 -15.3819,-6.3748 -30.7181,-12.886 -46.1689,-19.1017 -42.4465,-17.0676 -84.767,-34.4419 -127.5112,-50.7482 -11.1214,-4.2385 -16.0693,-9.9088 -15.2103,-21.6357 0.7102,-9.7269 0.1375,-19.5448 0.1375,-29.8853 78.7769,27.9081 156.2709,55.3616 233.7765,82.8155 0.4925,-1.2956 0.9964,-2.5796 1.5004,-3.8751 -20.1925,-7.886 -40.4192,-15.7039 -60.5887,-23.6696 -51.4032,-20.3061 -102.8178,-40.6121 -154.175,-61.0434 -23.7659,-9.4427 -23.9607,-10.079 -17.7644,-38.5895 193.5864,71.1907 389.1312,135.6886 589.8645,190.4479 -5.7725,-15.5789 -13.4235,-23.9877 -28.2099,-29.4193 -27.4882,-10.1133 -52.6515,-26.9764 -80.5177,-35.2489 -14.4429,-4.2838 -29.4469,-7.5792 -43.5347,-13.4314 -9.9988,-4.1475 -19.6885,-9.0337 -28.9887,-14.9312 50.1547,10.102 100.3094,20.2039 151.2659,30.4763 -0.7674,-15.6813 -10.5945,-27.0332 -22.403,-29.4081 -19.8832,-3.9772 -39.7435,-8.0566 -59.4778,-14.1814 16.9168,-0.8749 34.0168,-3.5225 50.6815,-1.8976 8.6245,0.8294 17.9133,7.8748 24.35,14.5335 7.651,7.9088 13.8473,17.8972 18.108,28.0332 2.1761,5.1589 -0.7101,12.761 -2.3021,19.022 -1.7639,6.8862 -0.9736,10.9429 6.3107,14.6586 18.0622,9.2043 29.5042,35.0784 25.8162,54.2028 -7.5135,39.0327 -16.5617,77.9518 -11.2817,118.189 0.859,6.5453 1.844,13.1246 3.4704,19.5108 3.459,13.5676 7.4906,20.9651 14.9354,23.9651 0,0 58.5729,72.1906 154.4612,26.8513 79.7047,-37.6919 108.636,-293.024 233.0092,-356.84" /><path
         id="path60"
         style="fill:#fabd14;fill-opacity:1;fill-rule:nonzero;stroke:none;stroke-width:1.14082"
         d="m 2240.5376,1345.2514 c 11.2015,-18.4766 25.862,-35.0669 40.133,-51.4868 12.5759,-14.4427 30.386,-19.0107 48.9864,-20.0562 0,0 218.3029,-98.0648 76.7496,-32.0217 -141.5532,66.0433 -148.872,181.3007 -148.872,181.3007 -0.8476,-0.1478 -1.6951,-0.2841 -2.5426,-0.4319 -1.2026,9.2043 -2.9321,18.3744 -3.5277,27.6128 -5.7038,88.5082 21.0515,166.5737 79.991,232.776 12.0146,13.5109 31.1877,20.7949 47.1996,30.7489 5.1311,3.1931 10.6746,5.7499 16.0349,8.5907 -0.5957,1.3977 -1.2027,2.7953 -1.7983,4.193 -56.8664,-21.7606 -113.7327,-43.5212 -170.5991,-65.2818 0.1602,1.0454 0.3435,2.1022 0.5039,3.1589 -4.1347,0.9999 -8.968,3.8976 -12.3239,2.7158 -30.9816,-10.9655 -61.8258,-22.3287 -92.3608,-34.4647 -3.7681,-1.5112 -8.0058,-8.4087 -7.7081,-12.4881 7.6739,-106.3374 32.6538,-206.6634 104.9251,-290.0014 6.2078,-7.1475 13.2059,-13.6586 20.1467,-20.1357 5.1082,-4.7612 10.7318,-8.9657 17.5925,-12.8404 -67.1745,87.1901 -76.658,184.2322 -51.4489,287.206 -1.3058,-15.9654 -3.0696,-31.9194 -3.8599,-47.9074 -3.3329,-67.5773 7.1584,-132.4274 42.7786,-191.1867" /><path
         id="path62"
         style="fill:#fabd14;fill-opacity:1;fill-rule:nonzero;stroke:none;stroke-width:1.14082"
         d="m 2243.1949,1286.7875 c -25.2205,20.1471 -45.1038,46.9189 -67.0485,71.0203 -4.7074,5.1704 -8.0861,11.5222 -13.0914,16.579 18.6349,-62.8729 106.0705,-100.6671 80.1399,-87.5993" /><path
         id="path64"
         style="fill:#fabd14;fill-opacity:1;fill-rule:nonzero;stroke:none;stroke-width:1.14082"
         d="m 1789.2028,1276.9469 c 22.0021,3.7272 38.6325,14.8973 47.6235,40.5896 -7.3303,-7.0566 -11.6712,-12.0224 -16.8023,-15.9767 -5.1426,-3.9658 -11.064,-6.9317 -16.6419,-10.3293 22.6207,44.7939 20.9943,90.6446 15.0843,136.5067 -7.124,55.248 -24.2928,107.8487 -47.0851,158.665 -2.0732,4.6362 -4.696,9.011 -8.2924,12.9655 7.3302,-27.0786 15.4851,-53.964 21.8074,-81.2699 12.1063,-52.305 15.2331,-104.735 -1.4545,-156.9265 -9.6095,-30.0557 -26.5148,-55.3617 -49.9143,-76.4633 -3.0924,-2.8067 -6.7919,-5.4544 -10.686,-6.8067 -25.7589,-8.9087 -43.8554,-26.3285 -55.8356,-49.9981 -4.5356,-8.977 -10.6403,-12.7269 -20.3758,-14.9881 -17.5352,-4.0795 -34.9673,-9.3975 -51.655,-16.1017 -11.0182,-4.4204 -20.685,-12.1702 -30.9472,-18.4199 0.481,-1.4091 0.9506,-2.8181 1.4316,-4.2159 29.2521,0 58.5043,-0.2727 87.745,0.4205 2.8175,0.068 6.4711,5.6363 8.0746,9.352 6.7233,15.6018 11.8429,31.9421 19.3449,47.1461 11.8315,23.9992 32.8371,36.1578 58.951,39.8282 16.5044,2.3296 33.2265,3.2385 49.6278,6.0225" /><path
         id="path66"
         style="fill:#fabd14;fill-opacity:1;fill-rule:nonzero;stroke:none;stroke-width:1.14082"
         d="m 1654.9339,1248.6979 c -0.5039,0.7727 -1.0079,1.5454 -1.5004,2.3295 -14.7406,-2.1137 -29.527,-6.1817 -44.1874,-5.7839 -14.8895,0.409 -29.6645,5.2157 -44.9662,6.6929 9.6322,-4.5907 19.2532,-9.1815 29.5499,-14.0903 -17.5009,-6.3863 -33.8335,-12.4428 -50.2693,-18.2153 -1.9929,-0.6932 -4.7761,-0.3865 -6.8147,0.4088 -11.4879,4.5114 -22.5519,10.4657 -34.3719,13.6929 -11.5794,3.1477 -23.9034,3.6249 -36.17,8.5679 14.5115,1.3749 29.0116,2.7614 43.5231,4.1475 0.057,0.5681 0.126,1.1365 0.1833,1.6932 -11.568,1.2841 -23.1245,2.568 -36.296,4.0225 17.1115,20.8857 39.4571,27.2605 64.3455,28.2833 -29.5155,6.3065 -54.1634,-3.9091 -75.9593,-22.3176 -9.4034,-7.9428 -18.2797,-16.7379 -26.1369,-26.1694 -22.002,-26.4083 -49.1696,-44.4191 -82.6595,-52.9641 -2.1418,-0.5455 -4.1576,-1.6136 -5.9443,-3.625 21.166,-0.284 43.317,-7.3294 62.6847,9.4201 -1.8899,-2.8406 -3.7682,-5.6815 -6.391,-9.6473 12.2094,0 23.6971,0 38.2774,0 -4.7531,10.2156 -8.9108,19.1698 -13.0798,28.1241 0.5039,1.0795 1.0079,2.1589 1.5118,3.2385 7.6854,-3.6363 15.3591,-7.2725 25.5184,-12.0791 -5.1312,7.4655 -9.3347,13.5676 -13.538,19.6811 1.237,0.8749 2.4625,1.7499 3.688,2.6362 7.124,-10.7383 15.3591,-20.9424 20.9598,-32.3966 3.7224,-7.6134 7.479,-11.386 15.863,-10.2951 2.348,0.3068 4.8105,0.3297 7.147,-0.013 18.7378,-2.7387 32.8027,2.2725 45.5045,18.0561 15.9318,19.7948 40.7858,26.8969 64.357,35.0556 18.6348,6.4544 36.7885,14.3065 55.1713,21.5447" /><path
         id="path70"
         style="fill:#fabd14;fill-opacity:1;fill-rule:nonzero;stroke:none;stroke-width:1.14082"
         d="m 2607.724,1696.8302 c -4.5011,-8.9997 -9.6667,-11.4655 -20.2267,-9.8519 -86.4622,13.2722 -171.2865,7.8293 -253.236,-24.7264 -6.2764,-2.5 -12.8049,-6.8861 -16.7678,-12.1927 -18.841,-25.2265 -31.4512,-53.5779 -41.0149,-83.2358 14.0077,17.4538 26.2514,36.2146 41.9083,51.555 45.2296,44.3166 102.7489,60.9524 164.1737,63.4978 35.5287,1.4773 71.378,-2.4772 106.9524,-5.4998 10.331,-0.8864 15.8058,1.1703 20.4788,9.9428 5.3373,10.011 12.1865,19.2266 17.8788,29.0672 1.9128,3.318 2.3137,7.4998 3.4132,11.2837 -1.6608,0.7387 -3.3215,1.4773 -4.9937,2.2045 -6.2421,-10.6474 -13.0685,-21.022 -18.5661,-32.0444" /><path
         id="path72"
         style="fill:#fabd14;fill-opacity:1;fill-rule:nonzero;stroke:none;stroke-width:1.14082"
         d="m 1874.9205,1234.5848 c -16.8939,-42.6122 -39.6061,-53.6346 -81.7891,-41.9759 -9.1629,2.5454 -18.2684,5.5339 -27.5914,7.2725 -22.6779,4.2612 -32.7684,-1.5794 -42.8016,-25.1354 5.532,-0.2614 10.4341,-0.6933 15.3361,-0.6933 27.6488,-0.035 55.2859,0.012 82.9231,0.069 34.555,0.079 55.8242,22.8513 53.9229,60.4638" /><path
         id="path74"
         style="fill:#fabd14;fill-opacity:1;fill-rule:nonzero;stroke:none;stroke-width:1.14082"
         d="m 1725.3956,1211.5514 c 21.395,10.6246 41.8968,2.7273 62.6504,-1.4431 16.5731,-3.3294 33.4098,-7.8406 48.1389,0.2159 -21.521,4.409 -43.6606,8.9882 -65.8345,13.4655 -16.8023,3.3863 -32.7569,3.3181 -44.9548,-12.2383" /><path
         id="path76"
         style="fill:#fabd14;fill-opacity:1;fill-rule:nonzero;stroke:none;stroke-width:1.14082"
         d="m 2167.8083,1193.2566 c 26.2856,-7.2043 45.7107,-28.3172 74.562,-16.7721 -22.3228,15.1358 -46.0888,18.9879 -74.562,16.7721" /><path
         id="path78"
         style="fill:#fabd14;fill-opacity:1;fill-rule:nonzero;stroke:none;stroke-width:1.14082"
         d="m 2164.6013,1310.9572 c -15.3248,32.8397 -30.638,65.6681 -45.9513,98.4966 6.8835,-36.476 21.6013,-69.4863 45.9513,-98.4966" /><path
         id="path80"
         style="fill:#fabd14;fill-opacity:1;fill-rule:nonzero;stroke:none;stroke-width:1.14082"
         d="m 1832.6229,1492.5077 c 6.1161,-32.3739 12.2895,-65.066 18.7951,-99.5534 8.5786,37.3738 -3.9515,68.8613 -18.7951,99.5534" /><path
         id="path82"
         style="fill:#fabd14;fill-opacity:1;fill-rule:nonzero;stroke:none;stroke-width:1.14082"
         d="m 1388.0799,1324.9338 c 21.7042,14.3292 45.768,30.2264 67.4952,44.5668 -21.7158,2.7044 -55.9731,-19.5334 -67.4952,-44.5668" /><path
         id="path84"
         style="fill:#fabd14;fill-opacity:1;fill-rule:nonzero;stroke:none;stroke-width:1.14082"
         d="m 2520.4373,1729.5223 c -32.4248,-6.7044 -64.8495,-13.4201 -97.2628,-20.1358 0.3206,-1.568 0.6414,-3.1362 0.9621,-4.693 32.3674,6.4317 64.7349,12.8634 97.1024,19.2835 -0.2749,1.8522 -0.5384,3.7045 -0.8017,5.5453" /><path
         id="path86"
         style="fill:#fabd14;fill-opacity:1;fill-rule:nonzero;stroke:none;stroke-width:1.14082"
         d="m 2273.1343,1924.0952 c 0.9047,-1.1137 1.8096,-2.2386 2.7143,-3.3522 19.0587,15.17 38.1287,30.3285 57.1872,45.4984 -20.1352,-13.829 -48.8833,-16.9993 -59.9015,-42.1462" /><path
         id="path88"
         style="fill:#fabd14;fill-opacity:1;fill-rule:nonzero;stroke:none;stroke-width:1.14082"
         d="m 1271.6899,1179.7344 c 0.5841,-1.625 1.1682,-3.2613 1.7524,-4.8862 17.0197,-5.1135 20.0435,16.6471 34.9101,15.6584 -0.8246,1.6705 -1.6494,3.3409 -2.474,5.0113 -11.3961,-5.2612 -22.7924,-10.5223 -34.1885,-15.7835" /><path
         id="path90"
         style="fill:#fabd14;fill-opacity:1;fill-rule:nonzero;stroke:none;stroke-width:1.14082"
         d="m 1554.5788,2060.7723 c 0.9047,0.9318 1.8096,1.8635 2.7145,2.7954 -51.93,49.055 -103.8714,98.1216 -155.79,147.1767 45.1496,-55.6003 95.2813,-106.7463 153.0755,-149.9721" /><path
         id="path92"
         style="fill:#fabd14;fill-opacity:1;fill-rule:nonzero;stroke:none;stroke-width:1.14082"
         d="m 1633.6649,2791.5314 c 3.5505,56.4185 -19.1044,118.8937 -62.7764,168.1874 13.893,-28.7604 29.2063,-55.305 39.7091,-83.6109 10.4342,-28.1127 16.0234,-57.9866 23.0673,-84.5765" /><path
         id="path94"
         style="fill:#fabd14;fill-opacity:1;fill-rule:nonzero;stroke:none;stroke-width:1.14082"
         d="m 1579.364,2644.9681 c 1.3859,0.068 2.7833,0.1365 4.1805,0.2046 -1.8784,28.0445 -3.7567,56.0775 -5.6351,84.1107 -1.7524,-0.114 -3.5048,-0.2386 -5.2456,-0.3522 2.2333,-27.9877 4.4668,-55.9754 6.7002,-83.9631" /><path
         id="path96"
         style="fill:#fabd14;fill-opacity:1;fill-rule:nonzero;stroke:none;stroke-width:1.14082"
         d="m 1908.731,2924.1177 c 3.2299,44.2371 -8.487,86.1334 -25.4037,127.0411 8.4756,-42.3509 16.9397,-84.6903 25.4037,-127.0411" /><path
         id="path98"
         style="fill:#fabd14;fill-opacity:1;fill-rule:nonzero;stroke:none;stroke-width:1.14082"
         d="m 2409.1096,2488.269 c 1.2142,-0.3069 2.4282,-0.6137 3.6537,-0.9205 1.237,3.3636 4.1805,7.1702 3.4475,10.0451 -5.3029,20.4993 -11.3618,40.8055 -17.1688,61.1798 -0.8475,-0.3069 -1.695,-0.6023 -2.5541,-0.8977 4.2149,-23.1355 8.4184,-46.2712 12.6217,-69.4067" /><path
         id="path100"
         style="fill:#fabd14;fill-opacity:1;fill-rule:nonzero;stroke:none;stroke-width:1.14082"
         d="m 2392.7999,2358.8757 c -37.3726,0.6818 -71.0801,-11.6473 -103.7454,-31.1808 35.311,10.6133 69.6256,20.9311 103.7454,31.1808" /><path
         id="path102"
         style="fill:#fabd14;fill-opacity:1;fill-rule:nonzero;stroke:none;stroke-width:1.14082"
         d="m 1465.0013,2905.5841 c -4.9938,-20.6242 -6.7347,-42.0212 -9.85,-63.0886 -3.9514,-26.7151 -7.8342,-53.4414 -11.7398,-80.1677 0.5269,-0.09 1.0538,-0.1817 1.592,-0.2841 10.5716,45.2143 21.1431,90.4174 31.7146,135.6203 16.6648,-30.499 26.9729,-62.0888 31.5773,-95.4399 0.2405,-1.8067 -0.4583,-3.7384 -0.7904,-5.602 -4.169,-23.9878 -7.857,-48.078 -12.656,-71.9408 -8.4069,-41.7258 -17.2947,-83.3494 -26.3887,-124.9275 -4.822,-22.0107 -10.4914,-43.8394 -15.9662,-66.5545 -16.4586,3.0906 -31.2451,5.8635 -47.2685,8.8746 2.1648,17.8517 4.192,34.6012 6.2308,51.362 -5.8985,-13.3405 -9.2544,-27.1013 -13.9274,-40.4078 -1.3286,-3.7953 -6.3796,-8.6587 -9.9531,-8.8405 -9.2429,-0.5001 -18.6119,1.3408 -27.6143,2.2158 -1.6263,30.7034 72.97,384.3504 87.6648,415.8153 10.6287,-18.1699 22.9184,-33.7375 17.3749,-56.6346 z m 36.7656,-235.8554 c 3.7224,21.1584 7.4447,42.3167 11.6252,66.0772 11.6253,-16.1926 5.7038,-51.2255 -11.6252,-66.0772 z m 21.0972,-158.1651 c -26.6178,9.7269 -26.6407,9.7383 -21.1087,36.726 4.3981,21.4767 8.8765,42.9305 13.309,64.3955 1.3857,-0.035 2.7716,-0.068 4.1461,-0.09 4.5011,-34.226 8.9909,-68.4522 13.6869,-104.2806 -3.7796,1.2159 -6.9523,2.1137 -10.0333,3.25 z m -295.064,612.4905 c -49.708,-42.6577 -149.5018,-27.4992 -149.5018,-27.4992 0,0 99.9198,-40.919 178.4448,24.6016 21.4408,-3.4774 39.732,-12.2611 53.6022,-18.8972 51.0938,-24.4311 104.0775,-87.0084 104.0775,-87.0084 0,0 20.7193,-29.7489 20.1123,-33.7375 -3.2757,-21.9084 -48.4138,-239.3326 -48.4138,-239.3326 0,0 -34.6467,-168.0283 -37.2924,-182.8688 -2.6,-14.5904 -41.221,6.0679 -114.2826,-58.8389 -3.1154,2.9658 -6.265,5.8293 -9.3919,8.761 0,0 -112.805,130.9048 -208.7506,176.8578 -95.93421,45.9414 -246.91371,18.0333 -347.56671,-16.3632 0,0 155.7098,50.2142 279.3384,24.8286 123.62861,-25.3855 264.75811,-196.7318 264.75811,-196.7318 41.4959,-44.385 79.6817,-91.6219 117.6958,-139.0521 12.53,-15.6244 25.2662,-31.1013 37.9109,-46.6461 1.2026,0.8637 2.3937,1.7272 3.5848,2.5909 -23.6398,34.7032 -47.1195,69.5203 -71.0113,104.0531 -12.0377,17.3972 -12.2438,19.8176 -0.2634,37.2715 13.2287,19.2722 31.4054,31.5784 53.8197,38.26 -33.3066,-1.4771 -57.0382,-18.5221 -74.6536,-47.1234 -11.5221,13.4655 -21.5554,25.1697 -31.8635,37.2033 3.8484,4.4544 6.7118,8.2383 10.0333,11.5451 28.2441,28.1127 63.2001,39.885 102.3938,40.0099 48.2534,0.1365 94.7888,-10.6586 140.2247,-25.4422 31.5085,-10.2496 62.0777,-23.3288 93.0707,-35.1352 -28.9542,11.227 -25.1975,38.5215 -30.3172,61.5321 -0.7102,3.2156 -0.8934,6.568 -1.1798,9.8633 -5.3831,62.4183 -9.4949,124.9728 -16.4356,187.2094 -8.6703,77.8155 -29.7676,152.1538 -68.4918,221.1288 -17.6726,31.4762 -37.7047,60.6569 -59.8786,87.7698 0,0 -57.6452,81.8835 -148.2077,94.7921 -183.2095,26.1127 -254.2553,154.222 -254.2553,154.222 25.7359,-46.8166 51.3459,-121.4845 212.6906,-167.8237" /><path
         id="path104"
         style="fill:#fabd14;fill-opacity:1;fill-rule:nonzero;stroke:none;stroke-width:1.14082"
         d="m 1000.2315,3351.1031 c 2.4053,67.8157 -47.63501,128.2683 -118.74951,146.6313 2.6229,-74.8384 50.0631,-148.1313 118.74951,-146.6313" /><path
         id="path106"
         style="fill:#fabd14;fill-opacity:1;fill-rule:nonzero;stroke:none;stroke-width:1.14082"
         d="m 567.68939,2824.6325 c -2.1211,69.9181 -49.7114,129.3478 -113.14295,144.2906 6.9568,-76.8611 53.0753,-149.654 113.14295,-144.2906" /><path
         id="path108"
         style="fill:#fabd14;fill-opacity:1;fill-rule:nonzero;stroke:none;stroke-width:1.14082"
         d="m 255.71215,2230.0505 c 27.82389,64.2706 9.96794,138.0748 -41.17862,178.1871 -26.39677,-72.5999 -15.55607,-157.8923 41.17862,-178.1871" /><path
         id="path110"
         style="fill:#fabd14;fill-opacity:1;fill-rule:nonzero;stroke:none;stroke-width:1.14082"
         d="m 593.42759,2973.9796 c 27.8319,64.2706 9.9645,138.0748 -41.1786,178.1869 -26.3967,-72.5997 -15.5561,-157.9035 41.1786,-178.1869" /><path
         id="path112"
         style="fill:#fabd14;fill-opacity:1;fill-rule:nonzero;stroke:none;stroke-width:1.14082"
         d="m 689.71689,1576.7093 c 27.8204,64.2591 9.9645,138.0635 -41.1866,178.1758 -26.3889,-72.5885 -15.5539,-157.8924 41.1866,-178.1758" /><path
         id="path114"
         style="fill:#fabd14;fill-opacity:1;fill-rule:nonzero;stroke:none;stroke-width:1.14082"
         d="m 600.07059,2683.2396 c -16.2524,65.9069 -80.9644,110.5985 -154.43725,109.0985 23.01915,-71.3157 88.74715,-129.0638 154.43725,-109.0985" /><path
         id="path116"
         style="fill:#fabd14;fill-opacity:1;fill-rule:nonzero;stroke:none;stroke-width:1.14082"
         d="m 216.42107,2184.2452 c -34.76239,58.43 -109.72411,82.6564 -179.62685,60.1572 42.8073,-61.6683 122.55199,-98.1104 179.62685,-60.1572" /><path
         id="path118"
         style="fill:#fabd14;fill-opacity:1;fill-rule:nonzero;stroke:none;stroke-width:1.14082"
         d="m 427.96184,1565.0506 c -34.76355,58.4412 -109.7253,82.6677 -179.62687,60.1684 42.80732,-61.6683 122.55197,-98.1102 179.62687,-60.1684" /><path
         id="path120"
         style="fill:#fabd14;fill-opacity:1;fill-rule:nonzero;stroke:none;stroke-width:1.14082"
         d="m 445.63334,1619.992 c 42.8073,-61.6797 122.55205,-98.1103 179.62345,-60.1685 -34.7613,58.4299 -109.7253,82.6678 -179.62345,60.1685" /><path
         id="path122"
         style="fill:#fabd14;fill-opacity:1;fill-rule:nonzero;stroke:none;stroke-width:1.14082"
         d="m 719.10639,1922.0724 c -54.6215,40.8169 -133.238,34.7944 -189.1595,-12.4994 63.3089,-40.7601 151.0424,-44.2031 189.1595,12.4994" /><path
         id="path124"
         style="fill:#fabd14;fill-opacity:1;fill-rule:nonzero;stroke:none;stroke-width:1.14082"
         d="m 1327.7316,3547.9257 c 1.5348,52.2825 -47.6463,98.4059 -116.768,111.9054 3.4245,-57.6457 50.2463,-113.6892 116.768,-111.9054" /><path
         id="path126"
         style="fill:#fabd14;fill-opacity:1;fill-rule:nonzero;stroke:none;stroke-width:1.14082"
         d="m 2897.3705,3369.2274 c 1.5348,52.2709 -47.6579,98.4057 -116.768,111.9054 3.4131,-57.6458 50.2463,-113.7007 116.768,-111.9054" /><path
         id="path128"
         style="fill:#fabd14;fill-opacity:1;fill-rule:nonzero;stroke:none;stroke-width:1.14082"
         d="m 734.03029,2857.4949 c 24.35,46.3962 0.3321,109.1782 -55.9388,151.1995 -22.2425,-53.3619 -4.7187,-124.0526 55.9388,-151.1995" /><path
         id="path130"
         style="fill:#fabd14;fill-opacity:1;fill-rule:nonzero;stroke:none;stroke-width:1.14082"
         d="m 1715.6258,3688.9665 c 4.2035,52.1345 -42.5725,100.6669 -110.9153,117.6097 0.481,-57.7367 44.3821,-116.0644 110.9153,-117.6097" /><path
         id="path132"
         style="fill:#fabd14;fill-opacity:1;fill-rule:nonzero;stroke:none;stroke-width:1.14082"
         d="m 1744.4426,3597.6286 c -29.5613,43.3053 -96.6442,52.2142 -160.669,23.0902 36.7313,-44.7939 107.7427,-63.1229 160.669,-23.0902" /><path
         id="path134"
         style="fill:#fabd14;fill-opacity:1;fill-rule:nonzero;stroke:none;stroke-width:1.14082"
         d="m 3264.9578,2722.6246 c 45.0692,-27.1353 109.7813,-7.4884 155.7555,45.4644 -52.2163,25.5219 -124.4648,12.8177 -155.7555,-45.4644" /><path
         id="path136"
         style="fill:#fabd14;fill-opacity:1;fill-rule:nonzero;stroke:none;stroke-width:1.14082"
         d="m 3333.163,1905.3345 c -52.2049,25.5218 -124.4532,12.8177 -155.7441,-45.4644 45.058,-27.1354 109.7814,-7.4998 155.7441,45.4644" /><path
         id="path138"
         style="fill:#fabd14;fill-opacity:1;fill-rule:nonzero;stroke:none;stroke-width:1.14082"
         d="m 3564.3969,2272.64 c -52.2049,25.5218 -124.4533,12.8178 -155.7441,-45.4643 45.0578,-27.1355 109.7813,-7.4884 155.7441,45.4643" /><path
         id="path140"
         style="fill:#fabd14;fill-opacity:1;fill-rule:nonzero;stroke:none;stroke-width:1.14082"
         d="m 3590.82,3147.8145 c -52.2164,25.5219 -124.4647,12.8178 -155.7556,-45.4642 45.058,-27.1469 109.7813,-7.4997 155.7556,45.4642" /><path
         id="path142"
         style="fill:#fabd14;fill-opacity:1;fill-rule:nonzero;stroke:none;stroke-width:1.14082"
         d="m 3446.4263,2716.2838 c 30.9587,-30.6806 87.5616,-26.874 135.8379,7.6477 -37.0977,30.7147 -98.3737,34.01 -135.8379,-7.6477" /><path
         id="path144"
         style="fill:#fabd14;fill-opacity:1;fill-rule:nonzero;stroke:none;stroke-width:1.14082"
         d="m 940.87959,3271.4921 c -7.9945,51.7027 -64.7463,88.2811 -135.1736,89.2014 13.8243,-56.0889 70.0608,-102.86 135.1736,-89.2014" /><path
         id="path146"
         style="fill:#fabd14;fill-opacity:1;fill-rule:nonzero;stroke:none;stroke-width:1.14082"
         d="m 831.94589,2414.4646 c -7.9831,51.7028 -64.7464,88.2812 -135.1738,89.2016 13.8244,-56.0891 70.0608,-102.8488 135.1738,-89.2016" /><path
         id="path148"
         style="fill:#fabd14;fill-opacity:1;fill-rule:nonzero;stroke:none;stroke-width:1.14082"
         d="m 1289.729,3430.3163 c 1.4431,36.6237 -44.8287,68.918 -109.8386,78.3723 3.2184,-40.3736 47.257,-79.6223 109.8386,-78.3723" /><path
         id="path150"
         style="fill:#fabd14;fill-opacity:1;fill-rule:nonzero;stroke:none;stroke-width:1.14082"
         d="m 2171.1641,3379.1362 c -17.3863,-36.6351 1.237,-92.3946 56.2022,-122.0982 19.551,31.09 -4.4784,81.9064 -56.2022,122.0982" /><path
         id="path152"
         style="fill:#fabd14;fill-opacity:1;fill-rule:nonzero;stroke:none;stroke-width:1.14082"
         d="m 1187.7131,3260.447 c 28.2785,40.1805 16.9053,99.3943 -25.7703,142.4496 -27.5112,-46.7143 -22.987,-112.5756 25.7703,-142.4496" /><path
         id="path154"
         style="fill:#fabd14;fill-opacity:1;fill-rule:nonzero;stroke:none;stroke-width:1.14082"
         d="m 954.47489,2747.6464 c 31.245,34.6239 30.4204,89.1789 -0.5383,131.1205 -31.5772,-40.6008 -37.8537,-100.7352 0.5383,-131.1205" /><path
         id="path156"
         style="fill:#fabd14;fill-opacity:1;fill-rule:nonzero;stroke:none;stroke-width:1.14082"
         d="m 861.95389,2752.8508 c 25.1175,51.5097 7.2386,115.0529 -41.3355,153.2219 -23.6514,-58.6228 -12.175,-131.1999 41.3355,-153.2219" /><path
         id="path158"
         style="fill:#fabd14;fill-opacity:1;fill-rule:nonzero;stroke:none;stroke-width:1.14082"
         d="m 711.69599,2723.4087 c 9.3116,56.8161 -27.2821,113.0983 -86.5194,136.234 -5.7496,-63.2593 27.2478,-130.0752 86.5194,-136.234" /><path
         id="path160"
         style="fill:#fabd14;fill-opacity:1;fill-rule:nonzero;stroke:none;stroke-width:1.14082"
         d="m 1363.8788,3639.2863 c 22.4372,52.7256 1.3171,115.2688 -49.1583,150.9494 -20.6047,-59.7479 -5.4175,-131.6432 49.1583,-150.9494" /><path
         id="path162"
         style="fill:#fabd14;fill-opacity:1;fill-rule:nonzero;stroke:none;stroke-width:1.14082"
         d="m 2933.5176,3445.2702 c 22.4259,52.7142 1.3172,115.2688 -49.1582,150.938 -20.6048,-59.7479 -5.429,-131.6432 49.1582,-150.938" /><path
         id="path164"
         style="fill:#fabd14;fill-opacity:1;fill-rule:nonzero;stroke:none;stroke-width:1.14082"
         d="m 3199.547,3100.873 c 22.4374,52.7141 1.3171,115.2573 -49.1582,150.9266 -20.6048,-59.7366 -5.4175,-131.6432 49.1582,-150.9266" /><path
         id="path166"
         style="fill:#fabd14;fill-opacity:1;fill-rule:nonzero;stroke:none;stroke-width:1.14082"
         d="m 2052.7811,3741.8055 c 28.6223,67.3273 2.5084,146.8813 -60.7491,191.9708 -26.3772,-76.2816 -7.7997,-167.7897 60.7491,-191.9708" /><path
         id="path168"
         style="fill:#fabd14;fill-opacity:1;fill-rule:nonzero;stroke:none;stroke-width:1.14082"
         d="m 2197.381,3220.7098 c -26.3772,-76.2814 -7.7997,-167.7784 60.7606,-191.9707 28.6108,67.3273 2.4969,146.8813 -60.7606,191.9707" /><path
         id="path170"
         style="fill:#fabd14;fill-opacity:1;fill-rule:nonzero;stroke:none;stroke-width:1.14082"
         d="m 2430.4589,3714.6133 c 37.0061,48.7596 27.8777,121.3708 -20.0206,174.6758 -36.5938,-56.7594 -36.2044,-137.4157 20.0206,-174.6758" /><path
         id="path172"
         style="fill:#fabd14;fill-opacity:1;fill-rule:nonzero;stroke:none;stroke-width:1.14082"
         d="m 1750.9483,3790.2357 c 37.5215,53.555 26.3772,129.7456 -24.7968,183.38 -36.8916,-61.9865 -34.681,-147.1539 24.7968,-183.38" /><path
         id="path174"
         style="fill:#fabd14;fill-opacity:1;fill-rule:nonzero;stroke:none;stroke-width:1.14082"
         d="m 1087.8733,3331.6719 c 32.8486,47.0212 25.106,112.5417 -16.9282,157.7218 -32.5048,-54.2935 -32.5048,-127.7456 16.9282,-157.7218" /><path
         id="path176"
         style="fill:#fabd14;fill-opacity:1;fill-rule:nonzero;stroke:none;stroke-width:1.14082"
         d="m 3639.772,1782.8387 c -62.9253,9.511 -131.5429,-18.0789 -140.992,-74.7931 56.2709,-12.545 114.5689,19.1813 140.992,74.7931" /><path
         id="path178"
         style="fill:#fabd14;fill-opacity:1;fill-rule:nonzero;stroke:none;stroke-width:1.14082"
         d="m 3554.7416,2411.283 c 56.2708,-12.5451 114.5689,19.1811 140.992,74.7929 -62.9252,9.511 -131.5429,-18.0789 -140.992,-74.7929" /><path
         id="path180"
         style="fill:#fabd14;fill-opacity:1;fill-rule:nonzero;stroke:none;stroke-width:1.14082"
         d="m 2109.1895,4098.1001 c -43.065,-46.5098 -58.2752,-118.3937 -16.1036,-157.8128 41.8852,39.3283 47.8755,105.0306 16.1036,157.8128" /><path
         id="path182"
         style="fill:#fabd14;fill-opacity:1;fill-rule:nonzero;stroke:none;stroke-width:1.14082"
         d="m 3273.9601,3293.7868 c -43.0535,-46.4985 -58.2637,-118.3937 -16.0921,-157.8128 41.8853,39.3396 47.8755,105.0306 16.0921,157.8128" /><path
         id="path184"
         style="fill:#fabd14;fill-opacity:1;fill-rule:nonzero;stroke:none;stroke-width:1.14082"
         d="m 3359.1509,2378.7841 c 41.8854,39.3282 47.8755,105.0305 16.1036,157.8128 -43.065,-46.5099 -58.2752,-118.3937 -16.1036,-157.8128" /><path
         id="path186"
         style="fill:#fabd14;fill-opacity:1;fill-rule:nonzero;stroke:none;stroke-width:1.14082"
         d="m 3520.1865,1862.3019 c -50.6357,-20.5107 -89.1766,-70.2704 -71.229,-115.303 47.0623,15.4313 76.1655,63.6797 71.229,115.303" /><path
         id="path188"
         style="fill:#fabd14;fill-opacity:1;fill-rule:nonzero;stroke:none;stroke-width:1.14082"
         d="m 381.82159,2207.415 c 43.1509,37.9647 51.2851,103.4396 21.24615,157.2219 -44.55625,-45.1008 -62.1075,-116.4619 -21.24615,-157.2219" /><path
         id="path190"
         style="fill:#fabd14;fill-opacity:1;fill-rule:nonzero;stroke:none;stroke-width:1.14082"
         d="m 1501.1025,3820.9959 c -54.7819,-32.1579 -90.299,-96.6102 -61.4249,-146.4494 51.5635,25.6354 76.4519,86.8039 61.4249,146.4494" /><path
         id="path192"
         style="fill:#fabd14;fill-opacity:1;fill-rule:nonzero;stroke:none;stroke-width:1.14082"
         d="m 3045.0055,3540.1761 c -54.7819,-32.158 -90.299,-96.6104 -61.4249,-146.4495 51.5635,25.6355 76.4519,86.8039 61.4249,146.4495" /><path
         id="path194"
         style="fill:#fabd14;fill-opacity:1;fill-rule:nonzero;stroke:none;stroke-width:1.14082"
         d="m 2548.063,3376.1817 c 51.5634,25.6355 76.4518,86.7924 61.4249,146.4496 -54.7705,-32.158 -90.2991,-96.6104 -61.4249,-146.4496" /><path
         id="path196"
         style="fill:#fabd14;fill-opacity:1;fill-rule:nonzero;stroke:none;stroke-width:1.14082"
         d="m 2845.9789,2909.4931 c 51.5634,25.6243 76.4517,86.8039 61.4249,146.4496 -54.7819,-32.1581 -90.2992,-96.6104 -61.4249,-146.4496" /><path
         id="path198"
         style="fill:#fabd14;fill-opacity:1;fill-rule:nonzero;stroke:none;stroke-width:1.14082"
         d="m 2297.2094,3321.1042 c -41.3928,-47.9644 -54.0718,-120.3369 -10.5371,-158.2788 40.4765,40.76 44.153,106.6328 10.5371,158.2788" /><path
         id="path200"
         style="fill:#fabd14;fill-opacity:1;fill-rule:nonzero;stroke:none;stroke-width:1.14082"
         d="m 2123.7583,3769.7705 c 57.9086,28.3059 79.1891,109.0531 53.144,193.0843 -60.8522,-36.8396 -94.3535,-120.6777 -53.144,-193.0843" /><path
         id="path202"
         style="fill:#fabd14;fill-opacity:1;fill-rule:nonzero;stroke:none;stroke-width:1.14082"
         d="m 1879.6621,3894.2209 c -54.7703,-32.1582 -90.299,-96.6105 -61.4248,-146.4497 51.5635,25.6355 76.4518,86.8039 61.4248,146.4497" /><path
         id="path204"
         style="fill:#fabd14;fill-opacity:1;fill-rule:nonzero;stroke:none;stroke-width:1.14082"
         d="m 2555.0954,3919.9925 c -54.7704,-32.1578 -90.2876,-96.6102 -61.4134,-146.4494 51.5634,25.6355 76.4518,86.8038 61.4134,146.4494" /><path
         id="path206"
         style="fill:#fabd14;fill-opacity:1;fill-rule:nonzero;stroke:none;stroke-width:1.14082"
         d="m 1858.2214,3594.1061 c 59.6954,29.6353 88.1457,101.1215 70.2325,171.1191 -63.372,-37.2714 -104.1463,-112.5189 -70.2325,-171.1191" /><path
         id="path208"
         style="fill:#fabd14;fill-opacity:1;fill-rule:nonzero;stroke:none;stroke-width:1.14082"
         d="m 3490.9,2615.3669 c -42.9619,59.3843 -122.0709,93.0991 -177.9524,54.4641 34.9789,-56.4071 109.2317,-78.2815 177.9524,-54.4641" /><path
         id="path210"
         style="fill:#fabd14;fill-opacity:1;fill-rule:nonzero;stroke:none;stroke-width:1.14082"
         d="m 3347.3424,1395.6132 c 34.9789,-56.407 109.2316,-78.2814 177.9523,-54.4754 -42.9618,59.3844 -122.0708,93.1105 -177.9523,54.4754" /><path
         id="path212"
         style="fill:#fabd14;fill-opacity:1;fill-rule:nonzero;stroke:none;stroke-width:1.14082"
         d="m 2493.2811,3697.3071 c 65.5253,-13.6927 132.024,19.9879 160.9097,79.3836 -73.1304,10.477 -151.724,-18.7266 -160.9097,-79.3836" /><path
         id="path214"
         style="fill:#fabd14;fill-opacity:1;fill-rule:nonzero;stroke:none;stroke-width:1.14082"
         d="m 2169.9959,3672.2625 c 64.8609,15.6813 108.6704,79.0655 106.9524,151.2561 -70.1639,-22.2947 -126.8242,-86.622 -106.9524,-151.2561" /><path
         id="path216"
         style="fill:#fabd14;fill-opacity:1;fill-rule:nonzero;stroke:none;stroke-width:1.14082"
         d="m 2646.872,3419.8622 c 59.7641,14.681 102.0846,66.0658 103.1956,122.7115 -64.8381,-20.0788 -118.9327,-72.6679 -103.1956,-122.7115" /><path
         id="path218"
         style="fill:#fabd14;fill-opacity:1;fill-rule:nonzero;stroke:none;stroke-width:1.14082"
         d="m 2973.3985,2989.0701 c -48.2992,-14.9768 -88.5009,-54.4527 -76.6694,-92.1333 44.5195,10.9201 75.9593,49.4984 76.6694,92.1333" /><path
         id="path220"
         style="fill:#fabd14;fill-opacity:1;fill-rule:nonzero;stroke:none;stroke-width:1.14082"
         d="m 2985.7911,3251.3337 c 59.432,-15.9653 121.5785,8.5452 150.2923,57.5208 -66.5101,13.7155 -139.5374,-6.1815 -150.2923,-57.5208" /><path
         id="path222"
         style="fill:#fabd14;fill-opacity:1;fill-rule:nonzero;stroke:none;stroke-width:1.14082"
         d="m 3431.4795,3327.1721 c -64.8495,-20.0789 -118.9441,-72.668 -103.2071,-122.7117 59.7641,14.6813 102.0961,66.0659 103.2071,122.7117" /><path
         id="path224"
         style="fill:#fabd14;fill-opacity:1;fill-rule:nonzero;stroke:none;stroke-width:1.14082"
         d="m 3436.6335,2398.1811 c 59.7641,14.6928 102.0847,66.0774 103.1956,122.7232 -64.8493,-20.0789 -118.9326,-72.6794 -103.1956,-122.7232" /><path
         id="path226"
         style="fill:#fabd14;fill-opacity:1;fill-rule:nonzero;stroke:none;stroke-width:1.14082"
         d="m 952.72249,3189.5631 c -50.7846,44.7939 -129.1262,45.1007 -188.3635,2.7386 59.3976,-45.4302 145.9973,-55.8505 188.3635,-2.7386" /><path
         id="path228"
         style="fill:#fabd14;fill-opacity:1;fill-rule:nonzero;stroke:none;stroke-width:1.14082"
         d="m 2712.3285,3306.4909 c 47.7953,-36.6691 116.745,-46.0211 149.7081,-4.6021 -40.9461,36.0556 -103.1957,37.3168 -149.7081,4.6021" /><path
         id="path230"
         style="fill:#fabd14;fill-opacity:1;fill-rule:nonzero;stroke:none;stroke-width:1.14082"
         d="m 2620.8611,3608.1511 c -40.9346,36.0555 -103.1956,37.3168 -149.6966,4.6135 47.7838,-36.6807 116.7336,-46.0326 149.6966,-4.6135" /><path
         id="path232"
         style="fill:#fabd14;fill-opacity:1;fill-rule:nonzero;stroke:none;stroke-width:1.14082"
         d="m 3324.3783,3044.4887 c 47.7952,-36.6807 116.745,-46.0326 149.7081,-4.6136 -40.9461,36.0555 -103.1956,37.3169 -149.7081,4.6136" /><path
         id="path234"
         style="fill:#fabd14;fill-opacity:1;fill-rule:nonzero;stroke:none;stroke-width:1.14082"
         d="m 3699.7424,2183.859 c -40.9462,36.0555 -103.1957,37.3169 -149.7082,4.6021 47.7953,-36.6692 116.745,-46.0212 149.7082,-4.6021" /><path
         id="path236"
         style="fill:#fabd14;fill-opacity:1;fill-rule:nonzero;stroke:none;stroke-width:1.14082"
         d="m 3600.3034,1689.2509 c 47.7838,-36.6691 116.7336,-46.0324 149.6967,-4.6135 -40.9461,36.0671 -103.1956,37.317 -149.6967,4.6135" /><path
         id="path238"
         style="fill:#fabd14;fill-opacity:1;fill-rule:nonzero;stroke:none;stroke-width:1.14082"
         d="m 3615.4105,2350.4556 c -40.9346,36.0554 -103.1956,37.3168 -149.6966,4.6021 47.7952,-36.6692 116.7451,-46.0212 149.6966,-4.6021" /><path
         id="path240"
         style="fill:#fabd14;fill-opacity:1;fill-rule:nonzero;stroke:none;stroke-width:1.14082"
         d="m 3676.5147,1882.5853 c -53.9687,9.1132 -107.4677,-22.4993 -129.4813,-74.668 60.1077,-6.0338 123.6057,22.2152 129.4813,74.668" /><path
         id="path242"
         style="fill:#fabd14;fill-opacity:1;fill-rule:nonzero;stroke:none;stroke-width:1.14082"
         d="m 3004.3686,3344.1147 c 59.7528,-8.8519 124.5335,16.3744 132.9174,68.4976 -53.4761,11.6246 -108.4299,-17.4313 -132.9174,-68.4976" /><path
         id="path244"
         style="fill:#fabd14;fill-opacity:1;fill-rule:nonzero;stroke:none;stroke-width:1.14082"
         d="m 3426.0276,3164.7684 c -53.4761,11.6248 -108.4298,-17.4198 -132.9173,-68.4976 59.7527,-8.8519 124.5335,16.3745 132.9173,68.4976" /><path
         id="path246"
         style="fill:#fabd14;fill-opacity:1;fill-rule:nonzero;stroke:none;stroke-width:1.14082"
         d="m 3096.947,2483.2236 c 59.7526,-8.8519 124.5334,16.3859 132.9173,68.4977 -53.4762,11.6361 -108.4299,-17.4198 -132.9173,-68.4977" /><path
         id="path248"
         style="fill:#fabd14;fill-opacity:1;fill-rule:nonzero;stroke:none;stroke-width:1.14082"
         d="m 3345.2923,2947.0032 c 46.3062,-38.51 114.8323,-50.555 149.4103,-10.4428 -39.4801,37.6239 -101.638,41.3055 -149.4103,10.4428" /><path
         id="path250"
         style="fill:#fabd14;fill-opacity:1;fill-rule:nonzero;stroke:none;stroke-width:1.14082"
         d="m 3336.6334,1791.236 c -39.48,37.6352 -101.6379,41.317 -149.3989,10.4543 46.2949,-38.51 114.821,-50.5552 149.3989,-10.4543" /><path
         id="path252"
         style="fill:#fabd14;fill-opacity:1;fill-rule:nonzero;stroke:none;stroke-width:1.14082"
         d="m 3475.0141,2061.795 c 38.0484,-46.5553 103.0238,-71.3271 144.6571,-38.4873 -31.5313,44.3961 -91.8452,59.7706 -144.6571,38.4873" /><path
         id="path254"
         style="fill:#fabd14;fill-opacity:1;fill-rule:nonzero;stroke:none;stroke-width:1.14082"
         d="m 3538.0882,1509.5185 c 23.2277,-55.3391 78.4792,-97.3262 127.7748,-77.5201 -17.5925,51.4414 -71.0458,83.1108 -127.7748,77.5201" /><path
         id="path256"
         style="fill:#fabd14;fill-opacity:1;fill-rule:nonzero;stroke:none;stroke-width:1.14082"
         d="m 3577.6944,1566.846 c 38.0712,-46.5438 103.0237,-71.3157 144.6685,-38.4758 -31.5428,44.3961 -91.8453,59.7592 -144.6685,38.4758" /><path
         id="path258"
         style="fill:#fabd14;fill-opacity:1;fill-rule:nonzero;stroke:none;stroke-width:1.14082"
         d="m 3620.9999,1625.1168 c -31.5429,44.3961 -91.8453,59.7593 -144.6686,38.476 38.0597,-46.5553 103.0238,-71.3158 144.6686,-38.476" /><path
         id="path260"
         style="fill:#fabd14;fill-opacity:1;fill-rule:nonzero;stroke:none;stroke-width:1.14082"
         d="m 3453.0235,1995.8769 c -8.2465,53.7027 -55.2974,94.1557 -112.1294,98.5079 13.1028,-58.5094 60.0963,-109.4394 112.1294,-98.5079" /><path
         id="path262"
         style="fill:#fabd14;fill-opacity:1;fill-rule:nonzero;stroke:none;stroke-width:1.14082"
         d="m 3386.307,1458.9292 c 13.1945,52.7143 -14.5572,108.0192 -65.3419,133.7114 -10.5716,-59.0206 13.0569,-123.9616 65.3419,-133.7114" /><path
         id="path264"
         style="fill:#fabd14;fill-opacity:1;fill-rule:nonzero;stroke:none;stroke-width:1.14082"
         d="m 3150.824,1310.5481 c 33.0776,43.2825 29.5499,104.9622 -6.895,148.438 -33.1806,-50.0891 -37.2695,-119.0186 6.895,-148.438" /><path
         id="path266"
         style="fill:#fabd14;fill-opacity:1;fill-rule:nonzero;stroke:none;stroke-width:1.14082"
         d="m 3488.1169,1456.5885 c -7.1699,45.1121 -39.3426,80.4177 -76.7611,85.872 10.5142,-49.2824 42.9962,-93.3376 76.7611,-85.872" /><path
         id="path268"
         style="fill:#fabd14;fill-opacity:1;fill-rule:nonzero;stroke:none;stroke-width:1.14082"
         d="m 3221.1483,1437.2141 c 12.7247,-57.1117 57.5192,-106.9963 106.8035,-96.5761 -8.0862,52.3845 -52.8922,92.0649 -106.8035,96.5761" /><path
         id="path270"
         style="fill:#fabd14;fill-opacity:1;fill-rule:nonzero;stroke:none;stroke-width:1.14082"
         d="m 3512.6386,1539.8584 c -8.2464,53.7026 -55.3086,94.1557 -112.1407,98.5079 13.1142,-58.5093 60.0962,-109.4508 112.1407,-98.5079" /><path
         id="path272"
         style="fill:#fabd14;fill-opacity:1;fill-rule:nonzero;stroke:none;stroke-width:1.14082"
         d="m 3544.17,2134.9515 c -39.48,37.6351 -101.6379,41.3169 -149.4102,10.4543 46.3062,-38.5101 114.8323,-50.5551 149.4102,-10.4543" /><path
         id="path274"
         style="fill:#fabd14;fill-opacity:1;fill-rule:nonzero;stroke:none;stroke-width:1.14082"
         d="m 796.68059,2356.2622 c -54.862,39.7827 -132.883,32.6807 -187.7679,-15.1018 63.4866,-39.601 150.7046,-41.7826 187.7679,15.1018" /><path
         id="path276"
         style="fill:#fabd14;fill-opacity:1;fill-rule:nonzero;stroke:none;stroke-width:1.14082"
         d="m 917.28549,3008.8647 c 53.9344,-7.9201 112.61041,15.9541 120.50191,64.5773 -48.25351,10.5338 -98.07601,-16.8402 -120.50191,-64.5773" /><path
         id="path278"
         style="fill:#fabd14;fill-opacity:1;fill-rule:nonzero;stroke:none;stroke-width:1.14082"
         d="m 828.92209,3070.0559 c 51.7925,-16.9313 113.7099,-3.3181 129.8364,43.2485 -45.7336,18.5562 -99.5305,0 -129.8364,-43.2485" /><path
         id="path280"
         style="fill:#fabd14;fill-opacity:1;fill-rule:nonzero;stroke:none;stroke-width:1.14082"
         d="m 587.94139,2634.2186 c -65.6409,26.4536 -140.87635,4.8066 -181.6472,-50.2256 74.12905,-24.6242 161.1089,-9.8405 181.6472,50.2256" /><path
         id="path282"
         style="fill:#fabd14;fill-opacity:1;fill-rule:nonzero;stroke:none;stroke-width:1.14082"
         d="m 0,1941.5036 c 76.75647,-14.6812 161.00696,11.3861 173.35492,73.6225 C 104.7682,2032.7278 33.07643,2001.3993 0,1941.5036" /><path
         id="path284"
         style="fill:#fabd14;fill-opacity:1;fill-rule:nonzero;stroke:none;stroke-width:1.14082"
         d="m 53.18297,2066.4766 c 74.13021,-24.6241 161.11348,-9.8405 181.64953,50.2369 -65.64319,26.4423 -140.87293,4.7952 -181.64953,-50.2369" /><path
         id="path286"
         style="fill:#fabd14;fill-opacity:1;fill-rule:nonzero;stroke:none;stroke-width:1.14082"
         d="m 444.62314,1772.3504 c 74.12915,-24.6128 161.10545,-9.8406 181.65295,50.2368 -65.642,26.4424 -140.88205,4.7953 -181.65295,-50.2368" /><path
         id="path288"
         style="fill:#fabd14;fill-opacity:1;fill-rule:nonzero;stroke:none;stroke-width:1.14082"
         d="m 480.72329,1497.8372 c -65.63745,26.4422 -140.8729,4.7951 -181.6495,-50.2371 74.1302,-24.6127 161.11345,-9.8405 181.6495,50.2371" /><path
         id="path290"
         style="fill:#fabd14;fill-opacity:1;fill-rule:nonzero;stroke:none;stroke-width:1.14082"
         d="m 452.92234,2693.2847 c -58.56955,39.5441 -136.70845,34.0783 -188.2307,-11.2268 67.25355,-39.5215 155.42225,-43.2145 188.2307,11.2268" /><path
         id="path292"
         style="fill:#fabd14;fill-opacity:1;fill-rule:nonzero;stroke:none;stroke-width:1.14082"
         d="m 536.30349,1274.5721 c 57.0096,3.3634 112.032,41.1235 109.6383,93.8489 -51.7353,0.6137 -96.9226,-38.9077 -109.6383,-93.8489" /><path
         id="path294"
         style="fill:#fabd14;fill-opacity:1;fill-rule:nonzero;stroke:none;stroke-width:1.14082"
         d="m 2969.5501,1604.6176 c -51.7466,0.6134 -96.9306,-38.8964 -109.6438,-93.8491 57.0152,3.3748 112.0376,41.135 109.6438,93.8491" /><path
         id="path296"
         style="fill:#fabd14;fill-opacity:1;fill-rule:nonzero;stroke:none;stroke-width:1.14082"
         d="m 501.88129,1424.0896 c 75.3912,-20.4992 161.4125,-0.9545 178.5582,60.157 -67.0141,22.7947 -140.9233,-2.9659 -178.5582,-60.157" /><path
         id="path298"
         style="fill:#fabd14;fill-opacity:1;fill-rule:nonzero;stroke:none;stroke-width:1.14082"
         d="m 1124.5816,3054.92 c -49.1238,-5.2725 -87.5387,-46.9757 -93.4716,-99.3148 53.6709,9.5453 101.615,50.7369 93.4716,99.3148" /><path
         id="path300"
         style="fill:#fabd14;fill-opacity:1;fill-rule:nonzero;stroke:none;stroke-width:1.14082"
         d="m 887.39199,2364.9436 c -49.1239,-5.2725 -87.5502,-46.9756 -93.4716,-99.3146 53.6594,9.5451 101.615,50.7368 93.4716,99.3146" /><path
         id="path302"
         style="fill:#fabd14;fill-opacity:1;fill-rule:nonzero;stroke:none;stroke-width:1.14082"
         d="m 579.96179,2457.8723 c 43.8175,32.192 68.3622,90.2128 39.3277,130.1546 -41.6585,-26.3513 -57.4299,-80.6449 -39.3277,-130.1546" /><path
         id="path304"
         style="fill:#fabd14;fill-opacity:1;fill-rule:nonzero;stroke:none;stroke-width:1.14082"
         d="m 375.79934,1313.2981 c 68.242,-22.3516 151.75835,-0.2614 175.93545,67.5658 -60.05855,24.9309 -132.99875,-3.9772 -175.93545,-67.5658" /><path
         id="path306"
         style="fill:#fabd14;fill-opacity:1;fill-rule:nonzero;stroke:none;stroke-width:1.14082"
         d="m 867.90959,1868.404 c -54.8963,-34.7262 -72.5576,-110.6554 -44.3935,-181.9143 57.4277,42.8621 86.7599,123.5298 44.3935,181.9143" /><path
         id="path308"
         style="fill:#fabd14;fill-opacity:1;fill-rule:nonzero;stroke:none;stroke-width:1.14082"
         d="m 691.32029,1292.685 c 66.9226,25.9877 117.0315,95.8717 92.0286,163.3921 -62.284,-18.8174 -99.8513,-87.2469 -92.0286,-163.3921" /><path
         id="path310"
         style="fill:#fabd14;fill-opacity:1;fill-rule:nonzero;stroke:none;stroke-width:1.14082"
         d="m 2928.5124,1405.4993 c 51.678,20.0335 90.5396,73.4634 71.4811,124.8708 -48.0816,-14.5451 -77.2765,-66.8386 -71.4811,-124.8708" /><path
         id="path312"
         style="fill:#fabd14;fill-opacity:1;fill-rule:nonzero;stroke:none;stroke-width:1.14082"
         d="m 294.89559,2041.9092 c -64.74756,-6.7837 -114.69608,-66.9181 -121.54067,-143.1541 70.67126,12.9427 133.20487,72.1452 121.54067,143.1541" /><path
         id="path314"
         style="fill:#fabd14;fill-opacity:1;fill-rule:nonzero;stroke:none;stroke-width:1.14082"
         d="m 384.65744,1969.7868 c -60.90945,-22.8061 -93.9,-93.531 -81.07785,-169.0055 65.07395,30.2716 110.4674,103.2463 81.07785,169.0055" /><path
         id="path316"
         style="fill:#fabd14;fill-opacity:1;fill-rule:nonzero;stroke:none;stroke-width:1.14082"
         d="m 888.64049,1545.3128 c -5.555,-0.4433 -11.1214,-0.9091 -16.5846,-0.9091 0,0 5.784,-0.2955 16.5846,0.9091" /><path
         id="path318"
         style="fill:#fabd14;fill-opacity:1;fill-rule:nonzero;stroke:none;stroke-width:1.14082"
         d="m 3030.1733,1744.1922 -32.2758,65.4523 c -100.9394,-185.8572 210.7894,-360.1466 210.7894,-360.1466 -244.3595,190.0161 -178.5136,294.6943 -178.5136,294.6943" /><path
         id="path320"
         style="fill:#fabd14;fill-opacity:1;fill-rule:nonzero;stroke:none;stroke-width:1.14082"
         d="m 2387.5199,3367.8751 c 70.5991,-32.8284 72.4202,-116.3141 34.4864,-237.7645 -5.0395,-16.1359 -10.0562,-32.9534 -15.0843,-49.7824 -32.8141,-109.8484 -66.3956,-220.9697 -114.2252,-157.1991 0,0 60.3367,66.7135 75.8562,109.4849 6.4368,17.7381 21.2233,54.214 33.9939,96.8943 18.0047,60.214 31.9665,132.8819 12.5644,183.6302 -18.9669,49.6118 -120.6965,78.6904 -167.2434,104.3486 0,0 84.4807,-23.9538 139.652,-49.612 z m 70.2326,-354.3968 c -9.4491,-9.9088 -18.5089,-19.4198 -27.5685,-28.9308 8.4985,31.6351 13.2403,36.5669 27.5685,28.9308 z m 69.4538,78.8041 c 43.7178,50.2255 59.8213,81.0312 140.3506,76.4633 80.5177,-4.5567 126.5377,-2.2727 195.5564,53.6458 0,0 -25.1748,-49.896 -135.7464,-67.3386 -62.765,-9.8973 -80.6668,6.4317 -125.381,-11.4087 -47.486,-18.9426 -84.412,-151.8015 -115.8861,-221.4809 -2.3022,4.8635 -3.4017,10.0905 -3.5048,15.7267 -1.2942,-2.3522 -2.7717,-4.5112 -4.043,-6.8862 -2.6687,-4.9771 -5.4634,-9.8861 -8.2007,-14.8177 -1.1683,0.591 -2.3479,1.1932 -3.5277,1.7954 6.013,14.3746 12.0377,28.7378 18.0392,43.1122 0.859,5.3521 1.7181,10.8746 2.3365,16.5107 -19.677,-32.9646 -39.48,-66.1227 -59.7984,-100.1669 -1.2714,0.2044 -2.4396,0.5113 -3.5735,0.8523 14.0991,46.6119 34.8642,88.7013 62.8221,126.8251 23.9493,34.9079 36.5366,63.9184 34.2,68.9863 -3.1955,-5.1362 -46.1802,-63.9182 -49.6506,-69.0771 -11.9001,-17.6585 -22.2999,-36.3171 -33.341,-54.555 -1.615,-2.6589 10.4799,17.897 18.1307,40.9531 21.4982,34.1125 48.8834,75.2133 71.2177,100.8602 z m -132.3448,-720.1118 c 19.0815,-0.8293 36.4679,-5.9429 42.9734,-26.5218 7.2959,-23.0333 0.1025,-43.6575 -11.316,-65.5204 -17.8101,29.9535 -35.4714,25.4423 -57.462,15.6585 -3.8941,-1.7271 -7.4905,-4.1588 -11.0984,-6.4543 -33.4326,-21.2266 -59.4205,-50.1574 -84.286,-80.2586 -8.2922,-10.0338 -16.722,-19.9538 -25.1402,-29.9876 -24.4533,23.1014 -23.2277,18.7267 -4.696,40.9531 19.8717,23.8288 41.5761,46.1689 62.4901,69.1568 -0.4009,0.7272 -0.8018,1.4545 -1.2026,2.1817 -31.2337,-19.3742 -62.4672,-38.7487 -94.7317,-58.7707 -2.8632,3.5681 -5.635,8.0111 -9.3345,11.4768 -11.0182,10.3065 -7.754,18.1245 3.1727,25.9311 8.842,6.3179 16.9625,13.6358 25.4037,20.5106 -0.5154,0.6931 -1.0537,1.3862 -1.5806,2.0795 -13.8815,-8.1021 -27.7746,-16.1928 -42.183,-24.6015 -1.9471,2.0795 -4.066,3.9658 -5.7039,6.1817 -1.363,1.8408 -2.1532,4.0793 -3.5849,6.9201 40.0413,30.1922 82.8887,54.4982 129.3439,72.5317 28.5878,11.1019 57.7826,19.8742 88.936,18.5333 z m -15.2674,171.7556 c 2.7144,-18.9426 5.1312,-35.1351 7.3532,-51.3619 2.9435,-21.4992 -0.5155,-25.8173 -22.0709,-29.1808 4.6501,25.4764 9.369,51.2596 14.7177,80.5427 z m 105.1084,-164.7104 c 22.4144,-37.7599 13.767,-105.269 -17.856,-137.7793 5.7153,17.6245 12.5874,34.658 16.7335,52.3278 13.7328,58.6116 -6.9522,98.7012 -58.5959,115.8143 23.3422,2.6362 47.383,-9.5907 59.7184,-30.3628 z m -226.3547,544.9815 c 5.0281,-9.8292 14.4085,-19.6813 14.3626,-29.4764 -0.2519,-49.0891 -2.932,-98.1556 -4.8448,-147.222 -0.2977,-7.6704 -1.0308,-15.3292 -1.5576,-22.988 -1.0537,0.079 -2.096,0.1592 -3.1497,0.2273 -4.1348,65.6682 -8.2809,131.3364 -12.427,197.0046 2.5426,0.8181 5.0738,1.6363 7.6165,2.4545 z m 1.8326,-478.2791 c 5.0967,45.1121 10.5486,93.3035 15.7485,139.3247 12.3926,-34.5897 -0.3321,-121.189 -15.7485,-139.3247 z m 308.1781,231.1739 c 0,0 85.8208,161.4036 155.1714,158.3695 69.8432,-3.0567 228.1644,23.5106 316.2529,61.3047 0,0 6.5398,-30.1467 -311.9005,-96.8489 -44.4165,-9.2952 -80.3689,-28.6581 -109.518,-108.6554 -29.8592,-81.9176 -30.9587,-167.7101 -59.5237,-155.9037 -28.5763,11.8064 -28.5763,51.9641 9.5179,141.7338 z m 0.733,-228.1513 c -14.9925,9.1929 -32.0124,19.6356 -46.5812,28.5672 20.937,3.4204 45.4588,-12.0905 46.5812,-28.5672 z m -463.6359,1274.5585 c 0,0 -17.2947,-107.269 10.812,-201.6521 28.1069,-94.3945 265.9608,-154.4606 281.0908,-214.5268 7.0095,-27.8286 7.4104,-54.3617 5.8299,-74.9179 -0.2177,0.6363 -0.378,1.2614 -0.5957,1.8863 -1.8898,-13.8177 -3.6192,-27.6581 -5.6923,-41.4531 -13.0455,-87.1675 -46.5239,-165.3124 -103.0239,-233.8556 -9.953,-12.079 -14.7063,-28.3853 -22.2999,-43.6236 -4.8906,7.2158 -11.0067,16.2381 -18.2454,26.9082 -13.8357,-23.2604 -21.2918,-47.3732 -26.6636,-72.1679 -11.4764,-52.8732 -10.2966,-106.3827 -6.895,-159.8809 4.7418,-74.7134 9.1743,-149.3813 1.0538,-224.1514 -7.5708,-69.5431 -22.3915,-137.3362 -49.7309,-202.0499 -3.3788,-7.9997 -2.8634,-13.6245 3.0581,-20.2834 12.2551,-13.795 23.5598,-28.4195 35.7691,-43.3394 4.7532,2.4772 8.7275,4.5453 12.8049,6.6703 0.7789,-13.2951 -1.5232,-27.0333 3.081,-37.8738 4.673,-10.9996 16.1838,-19.1357 25.2091,-29.0899 17.1688,22.147 31.1075,42.6122 47.6349,60.7594 19.1044,20.9878 40.3276,40.1008 60.9896,59.657 4.4097,4.1589 10.0104,7.4429 15.6112,9.9202 11.1442,4.9315 22.8725,12.1927 34.1771,0.6248 8.3151,-8.5225 9.598,-29.0558 1.2827,-39.9077 -19.5968,-25.6014 -38.266,-52.2937 -60.772,-75.202 -36.5251,-37.1691 -75.8218,-71.6452 -115.5883,-108.8031 4.2722,-8.4087 9.9875,-19.6015 17.0313,-33.4419 28.7597,20.397 57.1757,40.5553 85.5917,60.7137 0.4237,-0.284 0.8476,-0.5681 1.2713,-0.8522 -5.1655,-5.3635 -10.2622,-10.7951 -15.508,-16.0903 -5.3487,-5.3976 -10.5371,-10.9997 -16.3211,-15.9313 -13.7212,-11.7155 -27.9922,-22.8174 -41.4959,-34.7942 -3.1841,-2.8295 -6.6888,-8.8294 -5.7267,-12.1588 5.4404,-19.0108 12.175,-37.6578 18.8409,-57.4867 14.6032,12.4883 29.1948,24.4992 43.2826,37.0897 55.263,49.3733 112.347,96.9512 164.9641,148.9835 48.4138,47.8734 88.4093,103.042 117.0429,165.4035 15.4279,33.5897 29.3209,101.4624 13.8129,135.7226 -19.3907,42.828 -53.0295,62.7251 -99.5764,63.0774 -34.5206,0.2727 -66.8881,-9.0452 -98.6371,-21.272 -6.4139,-2.4658 -12.8164,-4.9545 -22.7237,-8.7951 -10.5028,68.4521 -20.6047,134.3703 -30.7182,200.2771 1.3974,0.2386 2.7947,0.4773 4.1806,0.7159 1.844,-4.5566 3.688,-9.1134 6.6544,-16.4654 -5.9673,50.5211 -11.545,97.7922 -17.0541,144.5633 -11.5108,-23.4765 -17.5124,-56.2594 -13.1715,-73.986 2.0845,5.3067 4.0316,10.2723 7.3875,18.8516 0.733,-6.7384 1.0766,-9.477 1.3285,-12.2383 4.2378,-46.1688 8.7161,-92.315 12.576,-138.5065 1.7752,-21.2039 3.3787,-42.5099 3.2068,-63.748 -0.2748,-34.2715 -11.4305,-65.1113 -34.6925,-90.9059 -4.8677,-5.4202 -11.4992,-9.2724 -17.3176,-13.8518 26.3544,52.6573 30.1111,106.6896 24.2355,162.2217 -3.3787,31.999 -7.502,63.9296 -10.3424,95.9741 -5.7382,64.6795 8.1319,125.1435 41.5073,181.0846 2.5885,4.3294 5.9329,8.2043 8.9337,12.2951 -2.1532,-11.0678 -7.9602,-20.0335 -10.6173,-29.8399 -3.081,-11.4087 -6.7347,-24.2492 -4.4097,-35.2716 19.574,-92.599 40.4537,-184.9367 60.9668,-277.3427 2.9321,-13.2154 6.0704,-26.3968 9.1284,-39.6237 33.5586,9.0565 33.6388,9.0679 27.1676,40.1351 -5.5664,26.7377 -11.3504,53.4185 -17.0428,80.1109 0.8934,0.2498 1.7868,0.4772 2.6802,0.7158 10.7433,-35.4191 21.4867,-70.8385 31.0045,-102.1896 27.7288,-3.4431 54.026,-2.3864 77.9522,-10.2952 63.5209,-20.9993 72.9814,-59.8843 76.154,-32.533 0,0 2.4168,183.7325 70.3586,246.3212 67.9534,62.6001 170.7023,33.7148 310.6063,96.3035 237.0064,106.019 237.0064,279.6495 237.0064,279.6495 -67.9419,-178.1531 -334.796,-246.6052 -513.8708,-249.7073 -132.528,-2.3069 -190.2534,-188.1982 -190.2534,-188.1982 -8.5442,-18.6585 -15.6912,-38.101 -21.3377,-58.3617 -1.3401,0.466 -2.6573,0.932 -3.9859,1.3978 6.9065,26.3968 13.9045,53.1686 21.2463,81.2246 l -0.9965,5.8634 c -21.8875,-42.8735 -34.9789,-86.5199 -44.5082,-131.3137 3.1268,61.9183 16.8023,114.3255 40.0413,157.8923 l -2.7145,16.0902 c -12.049,-19.3175 -22.6778,-39.6462 -30.741,-61.7592 -2.4168,-6.6247 -4.9021,-13.2154 -7.3531,-19.8289 -1.3287,0.4661 -2.6458,0.9206 -3.9744,1.3751 8.9795,25.1695 18.1194,50.2823 26.8011,75.5427 1.9356,5.6249 3.7224,11.9201 3.1496,17.6586 -4.0773,40.4873 -8.5556,80.9291 -13.6525,121.3027 48.4024,81.4176 43.8668,241.6394 162.7652,247.0937 107.8571,4.9544 168.675,27.9195 241.5533,100.2239 72.8784,72.3043 8.7848,192.1526 8.7848,192.1526 34.8529,-132.0411 -63.3834,-191.7776 -133.0891,-220.0722 -69.7172,-28.283 -137.3384,2.2158 -197.3087,-23.6014 -52.2392,-22.4992 -117.1345,-120.4958 -133.009,-145.404 -4.9822,1.5111 -8.8765,2.6931 -14.5001,4.3975 2.9321,8.3293 5.6924,16.2267 8.5443,24.1355 0.4123,22.0674 8.5557,33.4989 3.1153,39.5214 9.1055,30.5217 39.8352,142.3246 29.5958,230.6853 -7.8915,68.2022 -92.9791,79.3722 -160.0048,102.9624 -67.0256,23.6015 -112.977,48.1574 -161.9862,85.9856 -45.8711,35.3852 -60.7263,216.5039 -60.7263,216.5039" /><path
         id="path322"
         style="fill:#fabd14;fill-opacity:1;fill-rule:nonzero;stroke:none;stroke-width:1.14082"
         d="m 2424.3543,3404.5671 c 0,0 -80.5064,195.1297 37.7276,280.729 0,0 -144.4968,-30.9535 -104.8335,-261.707 l 67.1059,-19.022" /><path
         id="path324"
         style="fill:#fabd14;fill-opacity:1;fill-rule:nonzero;stroke:none;stroke-width:1.14082"
         d="m 2938.9924,2783.0884 -62.9711,-16.6585 c 232.9976,-168.6874 354.7478,-56.2253 354.7478,-56.2253 -163.7271,-37.4874 -291.7767,72.8838 -291.7767,72.8838" /></g></g></svg>
