<?xml version="1.0" encoding="UTF-8" standalone="no"?>
<svg
   viewBox="0 0 500 415"
   height="415"
   width="500"
   xml:space="preserve"
   id="svg2"
   version="1.1"
   xmlns="http://www.w3.org/2000/svg"
   xmlns:svg="http://www.w3.org/2000/svg"
   xmlns:rdf="http://www.w3.org/1999/02/22-rdf-syntax-ns#"
   xmlns:cc="http://creativecommons.org/ns#"
   xmlns:dc="http://purl.org/dc/elements/1.1/"><metadata
     id="metadata8"><rdf:RDF><cc:Work
         rdf:about=""><dc:format>image/svg+xml</dc:format><dc:type
           rdf:resource="http://purl.org/dc/dcmitype/StillImage" /></cc:Work></rdf:RDF></metadata><defs
     id="defs6" /><g
     transform="matrix(1.0416666,0,0,-1.0440251,0,652.46361)"
     id="g10"><g
       transform="matrix(0.09991494,0,0,0.09956197,0,2.7374576)"
       id="g12"><path
         id="path14"
         style="fill:#fddc06;fill-opacity:1;fill-rule:nonzero;stroke:none"
         d="m 1681.05,4476.18 103.72,13.2 -18.86,-194.24 -132.01,-154.63 -113.09,-52.93 c 0,0 -83.03,-237.49 -37.77,-316.7 0,0 -63.13,51.84 12.31,329.06 75.43,277.22 185.7,376.24 185.7,376.24" /><path
         id="path16"
         style="fill:#20b7f0;fill-opacity:1;fill-rule:nonzero;stroke:none"
         d="m 2580.95,5137.3 c 5.44,12.37 -8.89,24.29 -16.58,34.64 -72.34,97.36 -120.72,207.17 -166.41,318.37 -16.63,40.46 -31.92,81.48 -47.81,122.24 -1.63,4.18 -2.69,8.64 -4.79,12.56 -2.75,5.14 -6.9,8.66 -13.46,7.75 -5.49,-0.77 -7.09,-5.18 -8.35,-9.34 -6.49,-21.5 -14.03,-42.8 -18.8,-64.69 -13.19,-60.54 -34.28,-118.61 -54.32,-176.98 -16,-46.6 -34,-92.52 -50.29,-139.03 -11.02,-31.5 -7.54,-39.68 25.18,-49.2 45.24,-13.16 90.94,-25.03 136.96,-35.1 45.95,-10.07 92.5,-17.43 138.86,-25.55 13.24,-2.32 26.73,-3.14 39.74,-4.61 13.95,3.74 33.01,-7.13 40.07,8.94 z m -119.75,-25.5 c -87.18,15.52 -174.54,29.98 -258.66,58.95 -24.11,8.3 -33.56,4.5 -44.81,-20.6 -30.85,-68.79 -63.58,-136.66 -99.53,-202.88 -35.86,-66.04 -74.92,-130.1 -118.43,-191.59 -19.15,-27.06 -39.51,-54.03 -53.56,-84.21 9.88,-10.36 15.15,-1.35 20.48,3.06 59.69,49.41 119.86,98.13 184.75,140.77 67.5,44.35 136.21,86.65 206.48,126.44 79.27,44.88 161.32,84.31 242.9,124.65 11.07,5.47 21.71,11.38 32,23.85 -37.86,13.9 -75.29,15.09 -111.62,21.56 z m -638.34,242.86 c 74.83,-38.19 150.55,-75.48 230.29,-103.33 20.12,-7.03 39.36,-16.55 59.21,-24.39 29.68,-11.71 38.33,-8.05 53.82,19.51 25.45,45.32 39.37,95.23 57.32,143.48 19.14,51.45 34.48,104.17 49.65,157 9.23,32.16 14.91,65.32 26.68,96.75 3.27,8.73 5.58,18.2 -2.66,24.97 -8.78,7.21 -16.37,1.11 -24.07,-4.27 -103.42,-72.3 -221.56,-106.73 -342.53,-135.17 -93.31,-21.93 -188.13,-31.07 -283.04,-40.59 -7.81,-0.78 -15.73,-1.08 -22.67,-9.7 61.29,-51.85 129.4,-89.25 198,-124.26 z M 1767.77,4569 c 17.64,21.83 35.18,43.75 52.24,66.04 71.01,92.77 136.73,189.38 194.54,290.7 41.59,72.89 80.84,147.56 112.19,225.85 10.73,26.8 5.83,39.31 -21.29,49.76 -29.3,11.3 -59.62,20.15 -88.32,32.75 -86.22,37.84 -172.94,74.99 -253.79,123.64 -35.49,21.36 -73.25,39.14 -105.93,65.16 -6.09,4.85 -13.49,8.08 -20.43,11.8 -5.1,2.73 -11.07,4.5 -15.99,1 -7.24,-5.15 -3.44,-12.34 -0.95,-18.29 11.63,-27.9 26.51,-54.13 36.11,-83.23 34.25,-103.75 60.73,-208.98 74.23,-317.66 12.49,-100.59 17.28,-201.48 17.9,-302.64 0.25,-41.55 -3.16,-83.12 -4.66,-124.69 -0.29,-7.82 0.08,-15.75 1.15,-23.49 0.37,-2.71 3.76,-5 5.42,-7.05 8.45,0.24 13.4,5.18 17.58,10.35 z M 337,4105.99 c 0.391,77.65 1.492,155.13 12.641,232.35 5.945,41.19 14.605,81.99 19.371,123.16 7.144,61.74 22.316,121.52 38.363,181.05 20.461,75.91 44.926,150.67 72.727,224.32 16.632,44.07 35.105,87.6 54.996,129.94 33.867,72.08 70.933,142.83 113.172,210.79 46.894,75.45 94.875,150.32 150.984,218.94 71.059,86.9 145.957,170.49 228.976,246.85 78.87,72.55 162.19,139.24 250.37,199.4 91.93,62.72 187.79,118.85 289.08,166.47 116.47,54.75 235.91,100.1 359.6,134.38 85.56,23.7 172.39,42.11 260.51,54.38 65.78,9.16 131.83,17.3 198,19.3 123.74,3.74 247.49,4.26 370.94,-11.61 94.94,-12.2 188.72,-29.93 281.35,-52.85 80.66,-19.95 160.01,-45.04 237.5,-75.82 97.36,-38.67 192.68,-81.4 283.83,-133.19 95.86,-54.47 188.07,-114.34 274.74,-182.68 74.26,-58.56 145.7,-120.27 212.25,-187.51 66.54,-67.23 127.54,-139.36 186.05,-213.59 36.11,-45.8 69.53,-94.01 101.14,-142.61 25.89,-39.82 48.27,-83.01 71.18,-125.28 60.1,-110.88 112.18,-225.29 150.53,-345.42 40.7,-127.5 73.96,-256.69 91.52,-390.07 12.5,-95.01 19.24,-190.22 21.78,-285.59 2.63,-98.99 -6.42,-197.73 -18.71,-296.15 -9.91,-79.37 -25.96,-157.48 -44.44,-235.03 -23.17,-97.24 -53.01,-192.62 -90.31,-285.45 -13.36,-33.24 -28.35,-65.89 -44,-98.13 -7.37,-15.17 -16.22,-16.28 -29.81,-6.96 -4.6,3.16 -8.29,7.62 -12.6,11.23 -24.97,20.88 -47.68,45.71 -75.47,61.72 -66.11,38.1 -138.23,59.07 -215.15,61.9 -21.81,0.81 -25.89,4.6 -25.84,26.39 0.05,23.82 -3.46,47.08 -6.48,70.49 -17.22,133.28 -73.6,247.89 -171.95,338.76 -91.54,84.59 -200.55,135.44 -326.26,146.58 -25.49,2.26 -33.02,9.54 -35.43,35.44 -1.25,13.44 -0.85,27.02 -1.29,40.54 -1.7,52.01 -12.04,103.24 -27.41,152.02 -22.94,72.78 -51.81,143.68 -95.38,207.85 -41.22,60.69 -87.6,117 -140.98,166.67 -36.02,33.51 -77.33,61.59 -119.65,87.36 -67.69,41.22 -140.27,70.11 -217.14,89.94 -44.99,11.61 -90.68,16.13 -136.26,22.03 -72.31,9.35 -144.7,0.45 -214.56,-15.25 -75.32,-16.93 -148.01,-43.97 -216.19,-83.35 -55.9,-32.29 -109.32,-67.94 -156.65,-110.58 -101.49,-91.43 -180.15,-200.38 -232.11,-327.63 -14.04,-34.4 -27.42,-69.02 -34.91,-105.49 -9.9,-48.19 -13.52,-50.73 -60.14,-37.29 -3.23,0.93 -6.65,1.38 -9.74,2.66 -72.46,30.11 -147.26,46.85 -226.39,44.4 -48.37,-1.49 -96.71,-0.63 -144.98,-6.24 -23.34,-2.71 -28.86,7.72 -17.56,28.05 3.75,6.76 9.48,12.44 14.4,18.54 16.7,20.73 40.98,31.35 63.19,43.43 40.48,22 72.55,53.58 101.64,87.23 52.05,60.18 47.65,132.54 35,205.02 -0.91,5.24 -4.47,10.36 -7.84,14.72 -4.33,5.59 -10.27,5.35 -13.36,-0.89 -2.9,-5.85 -4.02,-12.7 -5.25,-19.24 -10.54,-55.89 -32.04,-107.15 -61.15,-156.03 -24.44,-41.05 -58.32,-74.12 -86.96,-111.53 -25.07,-32.73 -58.31,-59.56 -71.74,-100.92 -4.24,-13.08 -15.02,-24.06 -28.83,-26.55 -24.83,-4.48 -45.99,-17.96 -69.67,-25.13 -57.7,-17.47 -108.7,-48.87 -157.21,-83.25 -47.72,-33.83 -88.92,-75.78 -127.71,-119.63 -44.94,-50.79 -82.32,-106.89 -109.847,-168.87 -17.118,-38.54 -21.532,-43.93 -62.7,-39.2 -70.355,8.08 -138.742,0.23 -206.117,-20.66 -75.176,-23.31 -143.039,-59.01 -201.008,-113.08 -17.261,-16.11 -33.304,-33.17 -49.589,-50.15 -19.805,-20.65 -30.356,-17.68 -39.403,10.22 -6.246,19.26 -11.136,38.96 -17.273,58.25 -29.391,92.41 -46.695,187.56 -61.703,282.97 -16.285,103.51 -25,207.85 -20.688,312.88 0,6.76 -0.027,13.52 0.008,20.28" /><path
         id="path18"
         style="fill:#20b7f0;fill-opacity:1;fill-rule:nonzero;stroke:none"
         d="m 1850.18,3299.78 c 0,0 -40.28,-13.72 -83.52,-12.11 -30.62,2.87 -79.36,31.88 -79.36,31.88 m -17.03,21.18 c -0.37,-0.45 0.06,-1.88 0.51,-2.63 1.5,-2.52 3.43,-2.53 4.29,0.22 0.43,1.36 -0.78,3.24 -1.3,5.1 -1.25,-0.91 -2.62,-1.6 -3.5,-2.69 z m 213.25,-581.2 c -3.4,-8.29 -8.84,-17.6 0.28,-24.33 9.23,-6.81 19.54,-3.43 27.29,4.22 5.46,5.39 12.54,11.67 13.72,18.45 5.53,31.6 18.33,62.22 14.64,100.71 -20.01,-36 -42.03,-65.1 -55.93,-99.05 z m 527.46,272.63 c -19.11,-46.85 -43.61,-91.02 -67,-135.73 -19.76,-37.77 -38.65,-76.08 -63.55,-110.9 -3.91,-5.47 -8.07,-10.45 -10.42,-17.07 -7.17,-20.15 -5.3,-23.74 15.24,-25.89 70.89,-7.42 79.75,-1.85 98.91,66.41 14.87,52.97 29.25,106.09 42.58,159.47 6,24.05 2.42,48.76 1.64,74.68 -12.37,-0.73 -15.32,-5.89 -17.4,-10.97 z m 586.58,-28.79 c 14.07,-64.63 31.67,-128.38 50.02,-191.91 6.84,-23.66 15.6,-46.82 21.41,-70.71 3.5,-14.37 11.8,-20.09 24.73,-23.76 25.35,-7.19 51.22,-6.24 76.94,-5.63 20.22,0.48 24.46,8.39 12.3,25.68 -15.51,22.07 -28.23,45.8 -43.31,67.99 -40.54,59.62 -71.38,124.38 -103.46,188.59 -10.09,20.19 -15.93,43.52 -37.78,61.97 -4.97,-19.82 -4.32,-36.26 -0.85,-52.22 z m -1071.3,353.88 c 22.14,20.84 45.18,41.13 64.47,64.44 17.9,21.62 38.85,40.71 54.07,64.71 6.67,10.51 16.7,20.28 30.98,14.25 14.84,-6.26 7.92,-19.31 5.9,-29.6 -13.07,-66.49 -32.56,-130.98 -66.2,-190.16 -8.94,-15.73 -9.57,-28.61 -1.84,-44.18 10.47,-21.08 21.53,-42.22 28.85,-64.49 38.61,-117.47 47.18,-235.13 1.86,-353.55 -6.31,-16.48 -16.56,-31.97 -17.94,-50.47 -1.48,-19.85 1.39,-24.56 21.45,-25.05 28.15,-0.68 56.34,-0.01 84.51,0.4 41.6,0.61 46.87,6.81 59.06,45.3 18.04,56.94 29.73,115.44 43.02,173.38 13.01,56.72 23.91,114.4 25.07,173.3 1.28,64.37 -2.25,128.21 -14.8,191.43 -1.95,9.84 -1.89,21.5 -12.53,26.03 -11.65,4.97 -18.68,-4.95 -25.55,-12.04 -10.95,-11.29 -12.43,-199.36 -22.35,-206.76 -8.71,-6.52 -18.19,-10.86 -27.84,-3.88 -10.75,7.77 -53.55,166.65 -49.17,179.88 15.18,45.91 32.19,92.03 58.8,131.79 24.69,36.89 45.74,77.14 78.48,108.53 5.62,5.39 10.8,12.41 7.79,21.02 -3.94,11.26 -14.37,9.29 -22.97,9.03 -24.78,-0.75 -49.1,-0.89 -73.7,5.35 -93.71,23.79 -137.66,120.42 -130.65,176.02 15.24,121.09 97.77,185.06 224.1,162.05 24.37,-4.43 48.98,-15.34 68.23,-34.9 34.74,-35.29 56.34,-75.35 53.96,-126.19 -0.79,-16.88 -1.12,-33.79 -1.24,-50.69 -0.06,-7.48 -2.93,-16.87 6.81,-20.51 8.87,-3.31 14.54,3.81 20.13,9.12 46.31,44.06 94.03,86.75 131.99,138.82 13.21,18.13 27.24,35.76 42.1,52.55 13.44,15.2 27.5,12.71 37.85,-4.83 4.98,-8.46 4.32,-17.41 2.59,-26.25 -19.78,-101.07 -46.49,-199.74 -107.66,-284.93 -12.82,-17.86 -12.4,-32.37 -1.11,-49.11 18.29,-27.12 32.39,-56.05 43.98,-86.92 38.92,-103.69 56.09,-210.32 45.76,-320.55 -2.92,-31.21 -1.79,-63.3 -11.08,-93.64 -26.67,-87.02 -51.14,-175.03 -107.91,-249.16 -9.98,-13.04 -5.1,-22.93 11.23,-26.37 5.44,-1.15 11.21,-0.85 16.83,-1 75.4,-2.08 150.81,-3.85 226.19,-6.34 25.83,-0.85 51.63,-1.55 77.5,-3.88 49.23,-4.44 98.45,-10.87 148.06,-9.78 21.87,0.49 24.44,4.85 14.23,23.13 -5.48,9.81 -11.26,19.51 -17.61,28.77 -42.94,62.56 -75.41,130.39 -97.09,202.8 -38.42,128.36 -47.36,258.82 -17.09,390.12 17.4,75.52 37.36,150.5 87.24,213.28 13.61,17.13 11.69,26.65 -2.2,45.11 -21.07,28 -38.17,58.61 -52.91,90 -29.25,62.31 -44.54,129.43 -61.52,195.82 -3.09,12.1 -3.29,24.55 -1.98,36.94 1.38,13.03 10.09,16.53 21.61,15.45 9.91,-0.93 15.61,-7.4 20.82,-15.34 54.89,-83.62 126,-152.26 201.47,-216.77 6.19,-5.29 12.1,-14.37 24.69,-6.77 -12.09,33.63 -20.33,67.78 -19.45,104.44 1.48,61.05 33.07,104.05 78.62,138.22 56.67,42.52 156.25,40 213.74,-9.29 54.56,-46.78 75.56,-104.39 64.95,-170.9 -17.48,-109.66 -127.98,-173.45 -234.61,-140.9 -11.04,3.37 -21.87,10.41 -37.69,5.3 14.65,-18.62 26.77,-36.01 40.88,-51.6 57.91,-64.02 84.85,-68.87 119.34,-147.55 6.31,-14.37 27.36,-97.71 32.16,-112.71 3.1,-9.69 4.13,-204.52 -3.17,-210.61 -7.69,-6.43 -17.2,-5.7 -25.54,-1.64 -5.89,2.86 -58.57,237.31 -76.94,257.13 -19.72,21.27 -28.45,19.53 -39.87,-7.83 -6.72,-16.11 -5.71,-33.15 -8.4,-49.73 -15.85,-97.6 -15.26,-195.2 4.45,-291.94 21.99,-107.92 47.37,-215.11 80.56,-320.3 5.31,-16.81 13.7,-26.71 32.17,-29.08 71.3,-9.12 142.53,-18.86 213.7,-28.99 102.37,-14.57 203.84,-34.06 305.03,-55.3 53.86,-11.3 107.23,-24.75 160.96,-36.11 70.57,-14.93 139.23,-36.34 208.61,-55.12 86.83,-23.5 171.97,-52.91 256.55,-83.88 120.57,-44.14 238.25,-94.54 351.02,-156.06 6.15,-3.35 16.21,-4.52 13.59,-16.14 -10.91,-5.84 -21.63,-2.9 -32.47,0.48 -59,18.41 -117.37,39.35 -177.19,54.54 -137.24,34.84 -273.61,72.96 -412.93,99.88 -106.94,20.67 -213.54,43.01 -320.93,61.52 -95.27,16.41 -191.13,28.53 -286.79,41.9 -37.71,5.27 -75.54,11.02 -113.57,14.48 -54.87,4.99 -109.84,9.06 -164.58,15.22 -74.91,8.43 -149.99,14.54 -225.2,18.94 -115.66,6.77 -231.28,16.44 -347.04,18.82 -276,5.69 -552.03,4.17 -827.95,-6.79 -3.37,-0.13 -6.81,0.1 -10.12,-0.41 -97.96,-15.16 -197.26,-13.08 -295.74,-23.22 -82.73,-8.53 -165.8,-15.77 -248.5,-24.77 -92.62,-10.09 -184.96,-23.64 -277.24,-37.3 -105.609,-15.63 -210.789,-33.53 -315.699,-52.88 -77.301,-14.25 -153.922,-32.37 -230.539,-50.1 -64.613,-14.94 -129.043,-30.85 -193.102,-48.02 -96.609,-25.89 -193.418,-51.18 -288.1794,-83.55 -10.8789,-3.72 -23.3203,-5.68 -35.8906,3.57 8.61719,11.86 21.1875,11.69 30.3789,16.76 107.5471,59.41 220.0741,107.78 335.3551,150.1 62.344,22.88 124.946,44.78 188.684,63.5 49.547,14.54 98.516,30.91 148.547,44 51.133,13.37 103.211,23.35 153.855,37.56 81.344,22.83 164.64,35.44 246.65,54.46 75.46,17.49 152.24,29.51 229.23,39.04 51.28,6.35 101.74,17.8 153.27,22.89 69.33,6.86 138.4,16.26 207.68,23.67 20.12,2.15 40.13,4.64 60.18,7.28 18.6,2.45 27.75,11.82 33.09,28.48 15.13,47.23 23.57,95.99 32.88,144.49 11.15,58.15 6.36,116.61 0.07,174.94 -1.1,10.13 -0.76,21.09 -12.75,25.15 -11.94,4.05 -18.78,-4.93 -25.79,-12.05 -14.99,-15.21 2.09,-131.89 -11.2,-148.88 -6.83,-8.74 -17.79,-15.57 -29.84,-9.73 -12.42,6.03 -43.81,120.82 -42.87,132.14 0.27,3.29 1.45,6.6 2.7,9.7 28.11,69.46 64.77,133.58 117.93,187.26 12.56,12.68 25.77,24.82 32.13,45.34 0,0 -54.65,-14.82 -83.52,-12.11 -30.62,2.87 -79.36,31.88 -79.36,31.88 -7.1,-8.85 -3.75,-16.47 -0.26,-23.39 8.44,-16.73 7.9,-34.74 9.69,-52.68 3.54,-35.56 -25.91,-57.23 -54.02,-62.54 -16.81,-3.18 -28.55,7.54 -21.72,23.17 12.99,29.72 1.99,57.08 -0.86,85.81 -4.28,43.07 -14.61,87.61 14.28,127.33 15.79,21.73 30.66,43.37 43.17,67.92 22.11,43.37 64.06,58.31 113.45,57.97 80.7,-0.56 135.78,-86.33 117.45,-148.45 -4.32,-14.63 -5.64,-30.13 -8.27,-44.84 12.55,-4.96 19.99,1.71 26.05,7.4" /><path
         id="path20"
         style="fill:#fddc06;fill-opacity:1;fill-rule:nonzero;stroke:none"
         d="m 1750.19,4558.65 c 8.45,0.24 13.4,5.18 17.58,10.35 17.64,21.83 35.18,43.75 52.24,66.04 71.01,92.77 136.73,189.38 194.54,290.7 41.59,72.89 80.84,147.56 112.19,225.85 10.73,26.8 5.83,39.31 -21.29,49.76 -29.3,11.3 -59.62,20.15 -88.32,32.75 -86.22,37.84 -172.94,74.99 -253.79,123.64 -35.49,21.36 -73.25,39.14 -105.93,65.16 -6.09,4.85 -13.49,8.08 -20.43,11.8 -5.1,2.73 -11.07,4.5 -15.99,1 -7.24,-5.15 -3.44,-12.34 -0.95,-18.29 11.63,-27.9 26.51,-54.13 36.11,-83.23 34.25,-103.75 60.73,-208.98 74.23,-317.66 12.49,-100.59 17.28,-201.48 17.9,-302.64 0.25,-41.55 -3.16,-83.12 -4.66,-124.69 -0.29,-7.82 0.08,-15.75 1.15,-23.49 0.37,-2.71 3.76,-5 5.42,-7.05" /><path
         id="path22"
         style="fill:#fddc06;fill-opacity:1;fill-rule:nonzero;stroke:none"
         d="m 1624.86,5478.92 c 61.29,-51.85 129.4,-89.25 198,-124.26 74.83,-38.19 150.55,-75.48 230.29,-103.33 20.12,-7.03 39.36,-16.55 59.21,-24.39 29.68,-11.71 38.33,-8.05 53.82,19.51 25.45,45.32 39.37,95.23 57.32,143.48 19.14,51.45 34.48,104.17 49.65,157 9.23,32.16 14.91,65.32 26.68,96.75 3.27,8.73 5.58,18.2 -2.66,24.97 -8.78,7.21 -16.37,1.11 -24.07,-4.27 -103.42,-72.3 -221.56,-106.73 -342.53,-135.17 -93.31,-21.93 -188.13,-31.07 -283.04,-40.59 -7.81,-0.78 -15.73,-1.08 -22.67,-9.7" /><path
         id="path24"
         style="fill:#fddc06;fill-opacity:1;fill-rule:nonzero;stroke:none"
         d="m 2572.82,5090.24 c -37.86,13.9 -75.29,15.09 -111.62,21.56 -87.18,15.52 -174.54,29.98 -258.66,58.95 -24.11,8.3 -33.56,4.5 -44.81,-20.6 -30.85,-68.79 -63.58,-136.66 -99.53,-202.88 -35.86,-66.04 -74.92,-130.1 -118.43,-191.59 -19.15,-27.06 -39.51,-54.03 -53.56,-84.21 9.88,-10.36 15.15,-1.35 20.48,3.06 59.69,49.41 119.86,98.13 184.75,140.77 67.5,44.35 136.21,86.65 206.48,126.44 79.27,44.88 161.32,84.31 242.9,124.65 11.07,5.47 21.71,11.38 32,23.85" /><path
         id="path26"
         style="fill:#fddc06;fill-opacity:1;fill-rule:nonzero;stroke:none"
         d="m 2540.88,5128.36 c 13.95,3.74 33.01,-7.13 40.07,8.94 5.44,12.37 -8.89,24.29 -16.58,34.64 -72.34,97.36 -120.72,207.17 -166.41,318.37 -16.63,40.46 -31.92,81.48 -47.81,122.24 -1.63,4.18 -2.69,8.64 -4.79,12.56 -2.75,5.14 -6.9,8.66 -13.46,7.75 -5.49,-0.77 -7.09,-5.18 -8.35,-9.34 -6.49,-21.5 -14.03,-42.8 -18.8,-64.69 -13.19,-60.54 -34.28,-118.61 -54.32,-176.98 -16,-46.6 -34,-92.52 -50.29,-139.03 -11.02,-31.5 -7.54,-39.68 25.18,-49.2 45.24,-13.16 90.94,-25.03 136.96,-35.1 45.95,-10.07 92.5,-17.43 138.86,-25.55 13.24,-2.32 26.73,-3.14 39.74,-4.61" /><path
         id="path28"
         style="fill:#fefffe;fill-opacity:1;fill-rule:nonzero;stroke:none"
         d="m 2998.41,3055.59 c -4.97,-19.82 -4.32,-36.26 -0.85,-52.22 14.07,-64.63 31.67,-128.38 50.02,-191.91 6.84,-23.66 15.6,-46.82 21.41,-70.71 3.5,-14.37 11.8,-20.09 24.73,-23.76 25.35,-7.19 51.22,-6.24 76.94,-5.63 20.22,0.48 24.46,8.39 12.3,25.68 -15.51,22.07 -28.23,45.8 -43.31,67.99 -40.54,59.62 -71.38,124.38 -103.46,188.59 -10.09,20.19 -15.93,43.52 -37.78,61.97" /><path
         id="path30"
         style="fill:#fefffe;fill-opacity:1;fill-rule:nonzero;stroke:none"
         d="m 2428.38,3043.13 c -12.37,-0.73 -15.32,-5.89 -17.4,-10.97 -19.11,-46.85 -43.61,-91.02 -67,-135.73 -19.76,-37.77 -38.65,-76.08 -63.55,-110.9 -3.91,-5.47 -8.07,-10.45 -10.42,-17.07 -7.17,-20.15 -5.3,-23.74 15.24,-25.89 70.89,-7.42 79.75,-1.85 98.91,66.41 14.87,52.97 29.25,106.09 42.58,159.47 6,24.05 2.42,48.76 1.64,74.68" /><path
         id="path32"
         style="fill:#fefffe;fill-opacity:1;fill-rule:nonzero;stroke:none"
         d="m 1939.45,2858.58 c -20.01,-36 -42.03,-65.1 -55.93,-99.05 -3.4,-8.29 -8.84,-17.6 0.28,-24.33 9.23,-6.81 19.54,-3.43 27.29,4.22 5.46,5.39 12.54,11.67 13.72,18.45 5.53,31.6 18.33,62.22 14.64,100.71" /><path
         id="path34"
         style="fill:#fefffe;fill-opacity:1;fill-rule:nonzero;stroke:none"
         d="m 1673.77,3343.42 c -1.25,-0.91 -2.62,-1.6 -3.5,-2.69 -0.37,-0.45 0.06,-1.88 0.51,-2.63 1.5,-2.52 3.43,-2.53 4.29,0.22 0.43,1.36 -0.78,3.24 -1.3,5.1" /><path
         id="path52"
         style="fill:none;stroke:#20b7f0;stroke-width:30.2042;stroke-linecap:butt;stroke-linejoin:miter;stroke-miterlimit:10;stroke-dasharray:none;stroke-opacity:1"
         d="m 2840.61,3934.13 c 0,0 -435.37,375.87 -591.36,960.87" /><path
         id="path54"
         style="fill:#fddc06;fill-opacity:1;fill-rule:evenodd;stroke:none"
         d="m 1817.06,5103.53 126.6,-296.5 269.41,89.29 59.86,53.28 92.18,117.48 71.53,169.43 -134.28,301.2 -67.77,-20.08 -295.84,-157.55 -121.69,-256.55" /><path
         id="path56"
         style="fill:#20b7f0;fill-opacity:1;fill-rule:evenodd;stroke:none"
         d="m 2246,5079.9 c 8.02,31.65 -14.02,56.03 -14.02,56.03 0,0 46.97,70.35 71.01,105.82 29.52,36.3 76.65,55.92 76.65,55.92 l -116.35,-225.4 c 0,0 -11.81,5.2 -17.29,7.63 z m -45.62,-136.38 -70.81,29.83 c 0,0 12.84,27.11 16.66,52.25 6.75,-2.98 54.46,-15.69 83.98,22.31 l 17.29,-7.51 z m -142.31,61.87 c 0,0 17.98,35.28 52.79,25.95 -1.6,-10.42 -4.56,-22.65 -14.19,-43.13 z m -47.1,-103.86 c 8.47,18.67 32.01,70.14 32.01,70.14 l 32.9,-14.44 c 0,0 -22.29,-39.01 -64.91,-55.7 z m 53.51,159.28 c 0,0 -18.89,33.39 -24.64,43.16 39.38,24.7 79.24,71.44 79.24,71.44 0,0 -11.56,-60.22 -5.76,-105.92 -11.13,-1.79 -48.84,-8.68 -48.84,-8.68 z m -77.12,-22.92 c 9.6,20.95 17.2,31.28 24.28,39.37 29.83,-20.62 14.35,-57.29 14.35,-57.29 z m -9.28,-122.08 c -16.02,42.66 -0.93,85.64 -0.93,85.64 l 32.92,-15.04 c 0,0 -23.53,-51.81 -31.99,-70.6 z m -24.09,137.33 -71,34.62 46.85,103.39 17.34,-8.93 c -11.25,-48.97 30.15,-78.02 36.91,-81.31 -17.3,-19.67 -30.1,-47.77 -30.1,-47.77 z m 107.25,413.49 c 0,0 11.38,-52.64 -1.13,-100.01 -14.64,-42.22 -42.85,-125.49 -42.85,-125.49 0,0 -33.74,2.27 -54.36,-24.97 -5.5,2.86 -17.35,9.05 -17.35,9.05 z M 2271.8,5260.2 c -60.75,-92.09 -87.64,-133.9 -87.64,-133.9 0,0 2.95,-0.33 8.01,-2.68 5.07,-2.34 28.55,-21.35 16.6,-45.63 -11.94,-24.43 -37.92,-23.01 -48.05,-18.47 -10.13,4.57 -10.14,6.68 -10.14,6.68 0,0 -15.8,93.15 35.11,196.44 32.58,64.44 66.84,119.94 83.64,152.03 2.92,5.55 18.48,35.67 7.97,72.19 v 0 c -35.89,-11.03 -52.07,-41.13 -54.99,-46.74 -16.79,-32.43 -42.14,-93.17 -74.69,-158.15 -50.88,-104.13 -134.31,-151.02 -134.31,-151.02 0,0 -1.67,-1.37 -11.82,3.62 -10.14,5.01 -28.1,24.68 -16.21,50.28 11.9,25.43 42.08,18.76 47.15,16.19 5.08,-2.57 7.2,-4.72 7.2,-4.72 0,0 16.69,48.19 54.45,155.36 30.48,117.83 -31.93,201.32 -31.93,201.32 l -226.97,-483.38 107.34,-52.04 c 0,0 -24.04,-74.88 12.83,-145.93 0,0 10.51,-24.91 8.88,-30.85 3.31,5.22 29.06,14.71 29.06,14.71 77.43,21.1 117.17,86.86 117.17,86.86 l 107,-43.97 228.54,445.46 c 0,0 -99.09,6.23 -174.2,-83.66" /></g></g></svg>
