<?xml version="1.0" encoding="UTF-8" standalone="no"?>
<svg
   width="300pt"
   height="300pt"
   viewBox="0 0 300 300"
   version="1.2"
   id="svg804"
   xmlns:xlink="http://www.w3.org/1999/xlink"
   xmlns="http://www.w3.org/2000/svg"
   xmlns:svg="http://www.w3.org/2000/svg">
  <defs
     id="defs218">
    <filter
       id="alpha"
       filterUnits="objectBoundingBox"
       x="0"
       y="0"
       width="1"
       height="1">
      <feColorMatrix
         type="matrix"
         in="SourceGraphic"
         values="0 0 0 0 1 0 0 0 0 1 0 0 0 0 1 0 0 0 1 0"
         id="feColorMatrix185" />
    </filter>
    <mask
       id="mask0">
      <g
         filter="url(#alpha)"
         id="g186">
        <rect
           x="0"
           y="0"
           width="804"
           height="696"
           style="fill:#000000;fill-opacity:0.4;stroke:none"
           id="rect185" />
      </g>
    </mask>
    <clipPath
       id="clip2">
      <rect
         x="0"
         y="0"
         width="256"
         height="256"
         id="rect186" />
    </clipPath>
    <g
       id="surface6"
       clip-path="url(#clip2)">
      <path
         style="fill:#688c5c;fill-opacity:1;fill-rule:nonzero;stroke:none"
         d="m 153,0 v 2 h 1 V 0 Z m 5,0 v 2 h 1 V 0 Z m -43,4 -2,6 v 1 h 2 v 3 h 1 v -3 h 2 v -1 l -2,-6 z m 5.5,0 c -1.37891,0.00391 -2.49609,1.351562 -2.49219,3.007812 0.004,1.421876 0.83594,2.640626 1.99219,2.929688 V 14 h 1 V 9.9375 c 1.35156,-0.34375 2.21484,-1.933594 1.92969,-3.554688 C 122.6875,5 121.67578,4.007812 120.5,4 Z m -5,1 1.5,5 h -3 z m 5,0 c 0.82813,0 1.5,0.894531 1.5,2 0,1.105469 -0.67187,2 -1.5,2 -0.82812,0 -1.5,-0.894531 -1.5,-2 0,-1.105469 0.67188,-2 1.5,-2 z M 49,6 47,12 v 1 h 2 v 3 h 1 v -3 h 2 V 12 L 50,6 Z m 5.5,0 C 53.121094,6.003906 52.003906,7.351562 52.007812,9.007812 52.011719,10.429688 52.84375,11.648438 54,11.9375 V 16 h 1 V 11.9375 C 56.351562,11.59375 57.214844,10.003906 56.929688,8.382812 56.6875,7 55.675781,6.007812 54.5,6 Z m -5,1 1.5,5 h -3 z m 5,0 c 0.828125,0 1.5,0.894531 1.5,2 0,1.105469 -0.671875,2 -1.5,2 C 53.671875,11 53,10.105469 53,9 53,7.894531 53.671875,7 54.5,7 Z M 12,11 10,17 v 1 h 2 v 3 h 1 v -3 h 2 v -1 l -2,-6 z m 5.5,0 c -1.378906,0.0039 -2.496094,1.351562 -2.492188,3.007812 C 15.011719,15.429688 15.84375,16.648438 17,16.9375 V 21 h 1 v -4.0625 c 1.351562,-0.34375 2.214844,-1.933594 1.929688,-3.554688 C 19.6875,12 18.675781,11.007812 17.5,11 Z m -5,1 1.5,5 h -3 z m 5,0 c 0.828125,0 1.5,0.894531 1.5,2 0,1.105469 -0.671875,2 -1.5,2 -0.828125,0 -1.5,-0.894531 -1.5,-2 0,-1.105469 0.671875,-2 1.5,-2 z m 197,0 c -1.37891,0.0039 -2.49609,1.351562 -2.49219,3.007812 0.004,1.421876 0.83594,2.640626 1.99219,2.929688 V 22 h 1 v -4.0625 c 1.35156,-0.34375 2.21484,-1.933594 1.92969,-3.554688 C 216.6875,13 215.67578,12.007812 214.5,12 Z m 4.5,0 -2,6 v 1 h 2 v 3 h 1 v -3 h 2 v -1 l -2,-6 z m -4.5,1 c 0.82812,0 1.5,0.894531 1.5,2 0,1.105469 -0.67188,2 -1.5,2 -0.82813,0 -1.5,-0.894531 -1.5,-2 0,-1.105469 0.67187,-2 1.5,-2 z m 5,0 1.5,5 h -3 z m -42,5 c -1.37891,0.0039 -2.49609,1.351562 -2.49219,3.007812 0.004,1.421876 0.83594,2.640626 1.99219,2.929688 V 28 h 1 v -4.0625 c 1.35156,-0.34375 2.21484,-1.933594 1.92969,-3.554688 C 179.6875,19 178.67578,18.007812 177.5,18 Z m 4.5,0 -2,6 v 1 h 2 v 3 h 1 v -3 h 2 v -1 l -2,-6 z m -107,1 -2,6 v 1 h 2 v 3 h 1 v -3 h 2 v -1 l -2,-6 z m 5.5,0 c -1.378906,0.0039 -2.496094,1.351562 -2.492188,3.007812 C 78.011719,23.429688 78.84375,24.648438 80,24.9375 V 29 h 1 v -4.0625 c 1.351562,-0.34375 2.214844,-1.933594 1.929688,-3.554688 C 82.6875,20 81.675781,19.007812 80.5,19 Z m 97,0 c 0.82812,0 1.5,0.894531 1.5,2 0,1.105469 -0.67188,2 -1.5,2 -0.82813,0 -1.5,-0.894531 -1.5,-2 0,-1.105469 0.67187,-2 1.5,-2 z m 5,0 1.5,5 h -3 z m -107,1 1.5,5 h -3 z m 5,0 c 0.828125,0 1.5,0.894531 1.5,2 0,1.105469 -0.671875,2 -1.5,2 -0.828125,0 -1.5,-0.894531 -1.5,-2 0,-1.105469 0.671875,-2 1.5,-2 z m 56,2 c -1.37891,0.0039 -2.49609,1.351562 -2.49219,3.007812 0.004,1.421876 0.83594,2.640626 1.99219,2.929688 V 32 h 1 v -4.0625 c 1.35156,-0.34375 2.21484,-1.933594 1.92969,-3.554688 C 138.6875,23 137.67578,22.007812 136.5,22 Z m 4.5,0 -2,6 v 1 h 2 v 3 h 1 v -3 h 2 v -1 l -2,-6 z m -4.5,1 c 0.82812,0 1.5,0.894531 1.5,2 0,1.105469 -0.67188,2 -1.5,2 -0.82813,0 -1.5,-0.894531 -1.5,-2 0,-1.105469 0.67187,-2 1.5,-2 z m 5,0 1.5,5 h -3 z m 99,5 c -1.37891,0.0039 -2.49609,1.351562 -2.49219,3.007812 0.004,1.421876 0.83594,2.640626 1.99219,2.929688 V 38 h 1 v -4.0625 c 1.35156,-0.34375 2.21484,-1.933594 1.92969,-3.554688 C 242.6875,29 241.67578,28.007812 240.5,28 Z m 4.5,0 -2,6 v 1 h 2 v 3 h 1 v -3 h 2 v -1 l -2,-6 z m -4.5,1 c 0.82812,0 1.5,0.894531 1.5,2 0,1.105469 -0.67188,2 -1.5,2 -0.82813,0 -1.5,-0.894531 -1.5,-2 0,-1.105469 0.67187,-2 1.5,-2 z m 5,0 1.5,5 h -3 z m -201,10 c -1.378906,0.0039 -2.496094,1.351562 -2.492188,3.007812 C 42.011719,43.429688 42.84375,44.648438 44,44.9375 V 49 h 1 v -4.0625 c 1.351562,-0.34375 2.214844,-1.933594 1.929688,-3.554688 C 46.6875,40 45.675781,39.007812 44.5,39 Z m 4.5,0 -2,6 v 1 h 2 v 3 h 1 v -3 h 2 v -1 l -2,-6 z m -4.5,1 c 0.828125,0 1.5,0.894531 1.5,2 0,1.105469 -0.671875,2 -1.5,2 -0.828125,0 -1.5,-0.894531 -1.5,-2 0,-1.105469 0.671875,-2 1.5,-2 z m 5,0 1.5,5 h -3 z m 63,1 c -1.37891,0.0039 -2.49609,1.351562 -2.49219,3.007812 0.004,1.421876 0.83594,2.640626 1.99219,2.929688 V 51 h 1 v -4.0625 c 1.35156,-0.34375 2.21484,-1.933594 1.92969,-3.554688 C 114.6875,42 113.67578,41.007812 112.5,41 Z m 4.5,0 -2,6 v 1 h 2 v 3 h 1 v -3 h 2 v -1 l -2,-6 z m -4.5,1 c 0.82813,0 1.5,0.894531 1.5,2 0,1.105469 -0.67187,2 -1.5,2 -0.82812,0 -1.5,-0.894531 -1.5,-2 0,-1.105469 0.67188,-2 1.5,-2 z m 5,0 1.5,5 h -3 z m 37.5,2 -2,6 v 1 h 2 v 3 h 1 v -3 h 2 v -1 l -2,-6 z m 5.5,0 c -1.37891,0.0039 -2.49609,1.351562 -2.49219,3.007812 0.004,1.421876 0.83594,2.640626 1.99219,2.929688 V 54 h 1 v -4.0625 c 1.35156,-0.34375 2.21484,-1.933594 1.92969,-3.554688 C 162.6875,45 161.67578,44.007812 160.5,44 Z m -5,1 1.5,5 h -3 z m 5,0 c 0.82812,0 1.5,0.894531 1.5,2 0,1.105469 -0.67188,2 -1.5,2 -0.82813,0 -1.5,-0.894531 -1.5,-2 0,-1.105469 0.67187,-2 1.5,-2 z m 59,1 c -1.37891,0.0039 -2.49609,1.351562 -2.49219,3.007812 0.004,1.421876 0.83594,2.640626 1.99219,2.929688 V 56 h 1 v -4.0625 c 1.35156,-0.34375 2.21484,-1.933594 1.92969,-3.554688 C 221.6875,47 220.67578,46.007812 219.5,46 Z m 4.5,0 -2,6 v 1 h 2 v 3 h 1 v -3 h 2 v -1 l -2,-6 z m -4.5,1 c 0.82812,0 1.5,0.894531 1.5,2 0,1.105469 -0.67188,2 -1.5,2 -0.82813,0 -1.5,-0.894531 -1.5,-2 0,-1.105469 0.67187,-2 1.5,-2 z m 5,0 1.5,5 h -3 z M 73,48 71,54 v 1 h 2 v 3 h 1 v -3 h 2 v -1 l -2,-6 z m 5.5,0 c -1.378906,0.0039 -2.496094,1.351562 -2.492188,3.007812 C 76.011719,52.429688 76.84375,53.648438 78,53.9375 V 58 h 1 v -4.0625 c 1.351562,-0.34375 2.214844,-1.933594 1.929688,-3.554688 C 80.6875,49 79.675781,48.007812 78.5,48 Z M 9,49 7,55 v 1 h 2 v 3 h 1 v -3 h 2 v -1 l -2,-6 z m 5.5,0 c -1.378906,0.0039 -2.496094,1.351562 -2.492188,3.007812 C 12.011719,53.429688 12.84375,54.648438 14,54.9375 V 59 h 1 v -4.0625 c 1.351562,-0.34375 2.214844,-1.933594 1.929688,-3.554688 C 16.6875,50 15.675781,49.007812 14.5,49 Z m 59,0 1.5,5 h -3 z m 5,0 c 0.828125,0 1.5,0.894531 1.5,2 0,1.105469 -0.671875,2 -1.5,2 -0.828125,0 -1.5,-0.894531 -1.5,-2 0,-1.105469 0.671875,-2 1.5,-2 z m -69,1 1.5,5 H 8 Z m 5,0 c 0.828125,0 1.5,0.894531 1.5,2 0,1.105469 -0.671875,2 -1.5,2 -0.828125,0 -1.5,-0.894531 -1.5,-2 0,-1.105469 0.671875,-2 1.5,-2 z m 166.5,3 -2,6 v 1 h 2 v 3 h 1 v -3 h 2 v -1 l -2,-6 z m 5.5,0 c -1.37891,0.0039 -2.49609,1.351562 -2.49219,3.007812 0.004,1.421876 0.83594,2.640626 1.99219,2.929688 V 63 h 1 v -4.0625 c 1.35156,-0.34375 2.21484,-1.933594 1.92969,-3.554688 C 188.6875,54 187.67578,53.007812 186.5,53 Z m -5,1 1.5,5 h -3 z m 5,0 c 0.82812,0 1.5,0.894531 1.5,2 0,1.105469 -0.67188,2 -1.5,2 -0.82813,0 -1.5,-0.894531 -1.5,-2 0,-1.105469 0.67187,-2 1.5,-2 z M 34,68 32,74 v 1 h 2 v 3 h 1 v -3 h 2 v -1 l -2,-6 z m 5.5,0 c -1.378906,0.0039 -2.496094,1.351562 -2.492188,3.007812 C 37.011719,72.429688 37.84375,73.648438 39,73.9375 V 78 h 1 v -4.0625 c 1.351562,-0.34375 2.214844,-1.933594 1.929688,-3.554688 C 41.6875,69 40.675781,68.007812 39.5,68 Z m -5,1 1.5,5 h -3 z m 5,0 c 0.828125,0 1.5,0.894531 1.5,2 0,1.105469 -0.671875,2 -1.5,2 -0.828125,0 -1.5,-0.894531 -1.5,-2 0,-1.105469 0.671875,-2 1.5,-2 z m 60.5,0 -2,6 v 1 h 2 v 3 h 1 v -3 h 2 v -1 l -2,-6 z m 5.5,0 c -1.37891,0.0039 -2.49609,1.351562 -2.49219,3.007812 0.004,1.421876 0.83594,2.640626 1.99219,2.929688 V 79 h 1 v -4.0625 c 1.35156,-0.34375 2.21484,-1.933594 1.92969,-3.554688 C 107.6875,70 106.67578,69.007812 105.5,69 Z m -5,1 1.5,5 h -3 z m 5,0 c 0.82813,0 1.5,0.894531 1.5,2 0,1.105469 -0.67187,2 -1.5,2 -0.82812,0 -1.5,-0.894531 -1.5,-2 0,-1.105469 0.67188,-2 1.5,-2 z m 28,1 c -1.37891,0.0039 -2.49609,1.351562 -2.49219,3.007812 0.004,1.421876 0.83594,2.640626 1.99219,2.929688 V 81 h 1 v -4.0625 c 1.35156,-0.34375 2.21484,-1.933594 1.92969,-3.554688 C 135.6875,72 134.67578,71.007812 133.5,71 Z m 4.5,0 -2,6 v 1 h 2 v 3 h 1 v -3 h 2 v -1 l -2,-6 z m -4.5,1 c 0.82812,0 1.5,0.894531 1.5,2 0,1.105469 -0.67188,2 -1.5,2 -0.82813,0 -1.5,-0.894531 -1.5,-2 0,-1.105469 0.67187,-2 1.5,-2 z m 5,0 1.5,5 h -3 z m 67.5,3 -2,6 v 1 h 2 v 3 h 1 v -3 h 2 v -1 l -2,-6 z m 5.5,0 c -1.37891,0.0039 -2.49609,1.351562 -2.49219,3.007812 0.004,1.421876 0.83594,2.640626 1.99219,2.929688 V 85 h 1 v -4.0625 c 1.35156,-0.34375 2.21484,-1.933594 1.92969,-3.554688 C 213.6875,76 212.67578,75.007812 211.5,75 Z m -5,1 1.5,5 h -3 z m 5,0 c 0.82812,0 1.5,0.894531 1.5,2 0,1.105469 -0.67188,2 -1.5,2 -0.82813,0 -1.5,-0.894531 -1.5,-2 0,-1.105469 0.67187,-2 1.5,-2 z m -48.5,3 -2,6 v 1 h 2 v 3 h 1 v -3 h 2 v -1 l -2,-6 z m 5.5,0 c -1.37891,0.0039 -2.49609,1.351562 -2.49219,3.007812 0.004,1.421876 0.83594,2.640626 1.99219,2.929688 V 89 h 1 v -4.0625 c 1.35156,-0.34375 2.21484,-1.933594 1.92969,-3.554688 C 170.6875,80 169.67578,79.007812 168.5,79 Z m -5,1 1.5,5 h -3 z m 5,0 c 0.82812,0 1.5,0.894531 1.5,2 0,1.105469 -0.67188,2 -1.5,2 -0.82813,0 -1.5,-0.894531 -1.5,-2 0,-1.105469 0.67187,-2 1.5,-2 z M 73,82 71,88 v 1 h 2 v 3 h 1 v -3 h 2 v -1 l -2,-6 z m 5.5,0 c -1.378906,0.0039 -2.496094,1.351562 -2.492188,3.007812 C 76.011719,86.429688 76.84375,87.648438 78,87.9375 V 92 h 1 v -4.0625 c 1.351562,-0.34375 2.214844,-1.933594 1.929688,-3.554688 C 80.6875,83 79.675781,82.007812 78.5,82 Z m -5,1 1.5,5 h -3 z m 5,0 c 0.828125,0 1.5,0.894531 1.5,2 0,1.105469 -0.671875,2 -1.5,2 -0.828125,0 -1.5,-0.894531 -1.5,-2 0,-1.105469 0.671875,-2 1.5,-2 z m 158,2 c -1.37891,0.0039 -2.49609,1.351562 -2.49219,3.007812 0.004,1.421876 0.83594,2.640626 1.99219,2.929688 V 95 h 1 v -4.0625 c 1.35156,-0.34375 2.21484,-1.933594 1.92969,-3.554688 C 238.6875,86 237.67578,85.007812 236.5,85 Z m 4.5,0 -2,6 v 1 h 2 v 3 h 1 v -3 h 2 v -1 l -2,-6 z M 10.5,86 C 9.121094,86.003906 8.003906,87.351562 8.007812,89.007812 8.011719,90.429688 8.84375,91.648438 10,91.9375 V 96 h 1 v -4.0625 c 1.351562,-0.34375 2.214844,-1.933594 1.929688,-3.554688 C 12.6875,87 11.675781,86.007812 10.5,86 Z m 4.5,0 -2,6 v 1 h 2 v 3 h 1 v -3 h 2 v -1 l -2,-6 z m 221.5,0 c 0.82812,0 1.5,0.894531 1.5,2 0,1.105469 -0.67188,2 -1.5,2 -0.82813,0 -1.5,-0.894531 -1.5,-2 0,-1.105469 0.67187,-2 1.5,-2 z m 5,0 1.5,5 h -3 z m -231,1 c 0.828125,0 1.5,0.894531 1.5,2 0,1.105469 -0.671875,2 -1.5,2 C 9.671875,91 9,90.105469 9,89 9,87.894531 9.671875,87 10.5,87 Z m 5,0 1.5,5 h -3 z m 170,13 c -1.37891,0.004 -2.49609,1.35156 -2.49219,3.00781 0.004,1.42188 0.83594,2.64063 1.99219,2.92969 V 110 h 1 v -4.0625 c 1.35156,-0.34375 2.21484,-1.93359 1.92969,-3.55469 C 187.6875,101 186.67578,100.00781 185.5,100 Z m 4.5,0 -2,6 v 1 h 2 v 3 h 1 v -3 h 2 v -1 l -2,-6 z m -143,1 -2,6 v 1 h 2 v 3 h 1 v -3 h 2 v -1 l -2,-6 z m 5.5,0 c -1.378906,0.004 -2.496094,1.35156 -2.492188,3.00781 0.0039,1.42188 0.835938,2.64063 1.992188,2.92969 V 111 h 1 v -4.0625 c 1.351562,-0.34375 2.214844,-1.93359 1.929688,-3.55469 C 54.6875,102 53.675781,101.00781 52.5,101 Z m 57,0 c -1.37891,0.004 -2.49609,1.35156 -2.49219,3.00781 0.004,1.42188 0.83594,2.64063 1.99219,2.92969 V 111 h 1 v -4.0625 c 1.35156,-0.34375 2.21484,-1.93359 1.92969,-3.55469 C 111.6875,102 110.67578,101.00781 109.5,101 Z m 4.5,0 -2,6 v 1 h 2 v 3 h 1 v -3 h 2 v -1 l -2,-6 z m 71.5,0 c 0.82812,0 1.5,0.89453 1.5,2 0,1.10547 -0.67188,2 -1.5,2 -0.82813,0 -1.5,-0.89453 -1.5,-2 0,-1.10547 0.67187,-2 1.5,-2 z m 5,0 1.5,5 h -3 z m -143,1 1.5,5 h -3 z m 5,0 c 0.828125,0 1.5,0.89453 1.5,2 0,1.10547 -0.671875,2 -1.5,2 -0.828125,0 -1.5,-0.89453 -1.5,-2 0,-1.10547 0.671875,-2 1.5,-2 z m 57,0 c 0.82813,0 1.5,0.89453 1.5,2 0,1.10547 -0.67187,2 -1.5,2 -0.82812,0 -1.5,-0.89453 -1.5,-2 0,-1.10547 0.67188,-2 1.5,-2 z m 5,0 1.5,5 h -3 z m 31,5 c -1.37891,0.004 -2.49609,1.35156 -2.49219,3.00781 0.004,1.42188 0.83594,2.64063 1.99219,2.92969 V 117 h 1 v -4.0625 c 1.35156,-0.34375 2.21484,-1.93359 1.92969,-3.55469 C 147.6875,108 146.67578,107.00781 145.5,107 Z m 4.5,0 -2,6 v 1 h 2 v 3 h 1 v -3 h 2 v -1 l -2,-6 z m -4.5,1 c 0.82812,0 1.5,0.89453 1.5,2 0,1.10547 -0.67188,2 -1.5,2 -0.82813,0 -1.5,-0.89453 -1.5,-2 0,-1.10547 0.67187,-2 1.5,-2 z m 5,0 1.5,5 h -3 z m 65,2 c -1.37891,0.004 -2.49609,1.35156 -2.49219,3.00781 0.004,1.42188 0.83594,2.64063 1.99219,2.92969 V 120 h 1 v -4.0625 c 1.35156,-0.34375 2.21484,-1.93359 1.92969,-3.55469 C 217.6875,111 216.67578,110.00781 215.5,110 Z m 4.5,0 -2,6 v 1 h 2 v 3 h 1 v -3 h 2 v -1 l -2,-6 z m -138.5,1 c -1.378906,0.004 -2.496094,1.35156 -2.492188,3.00781 0.0039,1.42188 0.835938,2.64063 1.992188,2.92969 V 121 h 1 v -4.0625 c 1.351562,-0.34375 2.214844,-1.93359 1.929688,-3.55469 C 83.6875,112 82.675781,111.00781 81.5,111 Z m 4.5,0 -2,6 v 1 h 2 v 3 h 1 v -3 h 2 v -1 l -2,-6 z m 129.5,0 c 0.82812,0 1.5,0.89453 1.5,2 0,1.10547 -0.67188,2 -1.5,2 -0.82813,0 -1.5,-0.89453 -1.5,-2 0,-1.10547 0.67187,-2 1.5,-2 z m 5,0 1.5,5 h -3 z m -139,1 c 0.828125,0 1.5,0.89453 1.5,2 0,1.10547 -0.671875,2 -1.5,2 -0.828125,0 -1.5,-0.89453 -1.5,-2 0,-1.10547 0.671875,-2 1.5,-2 z m 5,0 1.5,5 h -3 z m -69,1 c -1.378906,0.004 -2.496094,1.35156 -2.492188,3.00781 0.0039,1.42188 0.835938,2.64063 1.992188,2.92969 V 123 h 1 v -4.0625 c 1.351562,-0.34375 2.214844,-1.93359 1.929688,-3.55469 C 19.6875,114 18.675781,113.00781 17.5,113 Z m 4.5,0 -2,6 v 1 h 2 v 3 h 1 v -3 h 2 v -1 l -2,-6 z m -4.5,1 c 0.828125,0 1.5,0.89453 1.5,2 0,1.10547 -0.671875,2 -1.5,2 -0.828125,0 -1.5,-0.89453 -1.5,-2 0,-1.10547 0.671875,-2 1.5,-2 z m 5,0 1.5,5 h -3 z m 222,9 c -1.37891,0.004 -2.49609,1.35156 -2.49219,3.00781 0.004,1.42188 0.83594,2.64063 1.99219,2.92969 V 133 h 1 v -4.0625 c 1.35156,-0.34375 2.21484,-1.93359 1.92969,-3.55469 C 246.6875,124 245.67578,123.00781 244.5,123 Z m 4.5,0 -2,6 v 1 h 2 v 3 h 1 v -3 h 2 v -1 l -2,-6 z m -4.5,1 c 0.82812,0 1.5,0.89453 1.5,2 0,1.10547 -0.67188,2 -1.5,2 -0.82813,0 -1.5,-0.89453 -1.5,-2 0,-1.10547 0.67187,-2 1.5,-2 z m 5,0 1.5,5 h -3 z m -82,1 c -1.37891,0.004 -2.49609,1.35156 -2.49219,3.00781 0.004,1.42188 0.83594,2.64063 1.99219,2.92969 V 135 h 1 v -4.0625 c 1.35156,-0.34375 2.21484,-1.93359 1.92969,-3.55469 C 169.6875,126 168.67578,125.00781 167.5,125 Z m 4.5,0 -2,6 v 1 h 2 v 3 h 1 v -3 h 2 v -1 l -2,-6 z m -4.5,1 c 0.82812,0 1.5,0.89453 1.5,2 0,1.10547 -0.67188,2 -1.5,2 -0.82813,0 -1.5,-0.89453 -1.5,-2 0,-1.10547 0.67187,-2 1.5,-2 z m 5,0 1.5,5 h -3 z m -59,6 c -1.37891,0.004 -2.49609,1.35156 -2.49219,3.00781 0.004,1.42188 0.83594,2.64063 1.99219,2.92969 V 142 h 1 v -4.0625 c 1.35156,-0.34375 2.21484,-1.93359 1.92969,-3.55469 C 115.6875,133 114.67578,132.00781 113.5,132 Z m 4.5,0 -2,6 v 1 h 2 v 3 h 1 v -3 h 2 v -1 l -2,-6 z m -79.5,1 c -1.378906,0.004 -2.496094,1.35156 -2.492188,3.00781 0.0039,1.42188 0.835938,2.64063 1.992188,2.92969 V 143 h 1 v -4.0625 c 1.351562,-0.34375 2.214844,-1.93359 1.929688,-3.55469 C 40.6875,134 39.675781,133.00781 38.5,133 Z m 4.5,0 -2,6 v 1 h 2 v 3 h 1 v -3 h 2 v -1 l -2,-6 z m 70.5,0 c 0.82813,0 1.5,0.89453 1.5,2 0,1.10547 -0.67187,2 -1.5,2 -0.82812,0 -1.5,-0.89453 -1.5,-2 0,-1.10547 0.67188,-2 1.5,-2 z m 5,0 1.5,5 h -3 z m -80,1 c 0.828125,0 1.5,0.89453 1.5,2 0,1.10547 -0.671875,2 -1.5,2 -0.828125,0 -1.5,-0.89453 -1.5,-2 0,-1.10547 0.671875,-2 1.5,-2 z m 5,0 1.5,5 h -3 z m 158,5 c -1.37891,0.004 -2.49609,1.35156 -2.49219,3.00781 0.004,1.42188 0.83594,2.64063 1.99219,2.92969 V 149 h 1 v -4.0625 c 1.35156,-0.34375 2.21484,-1.93359 1.92969,-3.55469 C 203.6875,140 202.67578,139.00781 201.5,139 Z m 4.5,0 -2,6 v 1 h 2 v 3 h 1 v -3 h 2 v -1 l -2,-6 z m -4.5,1 c 0.82812,0 1.5,0.89453 1.5,2 0,1.10547 -0.67188,2 -1.5,2 -0.82813,0 -1.5,-0.89453 -1.5,-2 0,-1.10547 0.67187,-2 1.5,-2 z m 5,0 1.5,5 h -3 z m -125,5 c -1.378906,0.004 -2.496094,1.35156 -2.492188,3.00781 0.0039,1.42188 0.835938,2.64063 1.992188,2.92969 V 155 h 1 v -4.0625 c 1.351562,-0.34375 2.214844,-1.93359 1.929688,-3.55469 C 83.6875,146 82.675781,145.00781 81.5,145 Z m 4.5,0 -2,6 v 1 h 2 v 3 h 1 v -3 h 2 v -1 l -2,-6 z m -4.5,1 c 0.828125,0 1.5,0.89453 1.5,2 0,1.10547 -0.671875,2 -1.5,2 -0.828125,0 -1.5,-0.89453 -1.5,-2 0,-1.10547 0.671875,-2 1.5,-2 z m 5,0 1.5,5 h -3 z m 141,3 c -1.37891,0.004 -2.49609,1.35156 -2.49219,3.00781 0.004,1.42188 0.83594,2.64063 1.99219,2.92969 V 159 h 1 v -4.0625 c 1.35156,-0.34375 2.21484,-1.93359 1.92969,-3.55469 C 229.6875,150 228.67578,149.00781 227.5,149 Z m 4.5,0 -2,6 v 1 h 2 v 3 h 1 v -3 h 2 v -1 l -2,-6 z m -221.5,1 c -1.378906,0.004 -2.496094,1.35156 -2.492188,3.00781 0.00391,1.42188 0.835938,2.64063 1.992188,2.92969 V 160 h 1 v -4.0625 c 1.351562,-0.34375 2.214844,-1.93359 1.929688,-3.55469 C 12.6875,151 11.675781,150.00781 10.5,150 Z m 4.5,0 -2,6 v 1 h 2 v 3 h 1 v -3 h 2 v -1 l -2,-6 z m 130,0 -2,6 v 1 h 2 v 3 h 1 v -3 h 2 v -1 l -2,-6 z m 5.5,0 c -1.37891,0.004 -2.49609,1.35156 -2.49219,3.00781 0.004,1.42188 0.83594,2.64063 1.99219,2.92969 V 160 h 1 v -4.0625 c 1.35156,-0.34375 2.21484,-1.93359 1.92969,-3.55469 C 152.6875,151 151.67578,150.00781 150.5,150 Z m 77,0 c 0.82812,0 1.5,0.89453 1.5,2 0,1.10547 -0.67188,2 -1.5,2 -0.82813,0 -1.5,-0.89453 -1.5,-2 0,-1.10547 0.67187,-2 1.5,-2 z m 5,0 1.5,5 h -3 z m -222,1 c 0.828125,0 1.5,0.89453 1.5,2 0,1.10547 -0.671875,2 -1.5,2 -0.828125,0 -1.5,-0.89453 -1.5,-2 0,-1.10547 0.671875,-2 1.5,-2 z m 5,0 1.5,5 h -3 z m 130,0 1.5,5 h -3 z m 5,0 c 0.82812,0 1.5,0.89453 1.5,2 0,1.10547 -0.67188,2 -1.5,2 -0.82813,0 -1.5,-0.89453 -1.5,-2 0,-1.10547 0.67187,-2 1.5,-2 z m -97,5 c -1.378906,0.004 -2.496094,1.35156 -2.492188,3.00781 0.0039,1.42188 0.835938,2.64063 1.992188,2.92969 V 166 h 1 v -4.0625 c 1.351562,-0.34375 2.214844,-1.93359 1.929688,-3.55469 C 55.6875,157 54.675781,156.00781 53.5,156 Z m 4.5,0 -2,6 v 1 h 2 v 3 h 1 v -3 h 2 v -1 l -2,-6 z m -4.5,1 c 0.828125,0 1.5,0.89453 1.5,2 0,1.10547 -0.671875,2 -1.5,2 -0.828125,0 -1.5,-0.89453 -1.5,-2 0,-1.10547 0.671875,-2 1.5,-2 z m 5,0 1.5,5 h -3 z m 117,3 c -1.37891,0.004 -2.49609,1.35156 -2.49219,3.00781 0.004,1.42188 0.83594,2.64063 1.99219,2.92969 V 170 h 1 v -4.0625 c 1.35156,-0.34375 2.21484,-1.93359 1.92969,-3.55469 C 177.6875,161 176.67578,160.00781 175.5,160 Z m 4.5,0 -2,6 v 1 h 2 v 3 h 1 v -3 h 2 v -1 l -2,-6 z m -4.5,1 c 0.82812,0 1.5,0.89453 1.5,2 0,1.10547 -0.67188,2 -1.5,2 -0.82813,0 -1.5,-0.89453 -1.5,-2 0,-1.10547 0.67187,-2 1.5,-2 z m 5,0 1.5,5 h -3 z m -64,3 c -1.37891,0.004 -2.49609,1.35156 -2.49219,3.00781 0.004,1.42188 0.83594,2.64063 1.99219,2.92969 V 174 h 1 v -4.0625 c 1.35156,-0.34375 2.21484,-1.93359 1.92969,-3.55469 C 118.6875,165 117.67578,164.00781 116.5,164 Z m 4.5,0 -2,6 v 1 h 2 v 3 h 1 v -3 h 2 v -1 l -2,-6 z m -4.5,1 c 0.82813,0 1.5,0.89453 1.5,2 0,1.10547 -0.67187,2 -1.5,2 -0.82812,0 -1.5,-0.89453 -1.5,-2 0,-1.10547 0.67188,-2 1.5,-2 z m 5,0 1.5,5 h -3 z m 86.5,9 -2,6 v 1 h 2 v 3 h 1 v -3 h 2 v -1 l -2,-6 z m 5.5,0 c -1.37891,0.004 -2.49609,1.35156 -2.49219,3.00781 0.004,1.42188 0.83594,2.64063 1.99219,2.92969 V 184 h 1 v -4.0625 c 1.35156,-0.34375 2.21484,-1.93359 1.92969,-3.55469 C 215.6875,175 214.67578,174.00781 213.5,174 Z m -127.5,1 -2,6 v 1 h 2 v 3 h 1 v -3 h 2 v -1 l -2,-6 z m 5.5,0 c -1.378906,0.004 -2.496094,1.35156 -2.492188,3.00781 0.0039,1.42188 0.835938,2.64063 1.992188,2.92969 V 185 h 1 v -4.0625 c 1.351562,-0.34375 2.214844,-1.93359 1.929688,-3.55469 C 93.6875,176 92.675781,175.00781 91.5,175 Z m 117,0 1.5,5 h -3 z m 5,0 c 0.82812,0 1.5,0.89453 1.5,2 0,1.10547 -0.67188,2 -1.5,2 -0.82813,0 -1.5,-0.89453 -1.5,-2 0,-1.10547 0.67187,-2 1.5,-2 z m -188,1 c -1.378906,0.004 -2.496094,1.35156 -2.492188,3.00781 0.0039,1.42188 0.835938,2.64063 1.992188,2.92969 V 186 h 1 v -4.0625 c 1.351562,-0.34375 2.214844,-1.93359 1.929688,-3.55469 C 27.6875,177 26.675781,176.00781 25.5,176 Z m 4.5,0 -2,6 v 1 h 2 v 3 h 1 v -3 h 2 v -1 l -2,-6 z m 56.5,0 1.5,5 h -3 z m 5,0 c 0.828125,0 1.5,0.89453 1.5,2 0,1.10547 -0.671875,2 -1.5,2 -0.828125,0 -1.5,-0.89453 -1.5,-2 0,-1.10547 0.671875,-2 1.5,-2 z m -66,1 c 0.828125,0 1.5,0.89453 1.5,2 0,1.10547 -0.671875,2 -1.5,2 -0.828125,0 -1.5,-0.89453 -1.5,-2 0,-1.10547 0.671875,-2 1.5,-2 z m 5,0 1.5,5 H 29 Z M 0,180 v 2.66797 L 1,186 H 0 v 1 h 2 v -1 z m 250.5,0 c -1.37891,0.004 -2.49609,1.35156 -2.49219,3.00781 0.004,1.42188 0.83594,2.64063 1.99219,2.92969 V 190 h 1 v -4.0625 c 1.35156,-0.34375 2.21484,-1.93359 1.92969,-3.55469 C 252.6875,181 251.67578,180.00781 250.5,180 Z m 4.5,0 -2,6 v 1 h 2 v 3 h 1 v -4 h -2 l 1.5,-5 0.5,1.66797 V 180 Z m -4.5,1 c 0.82812,0 1.5,0.89453 1.5,2 0,1.10547 -0.67188,2 -1.5,2 -0.82813,0 -1.5,-0.89453 -1.5,-2 0,-1.10547 0.67187,-2 1.5,-2 z m -105.5,4 -2,6 v 1 h 2 v 3 h 1 v -3 h 2 v -1 l -2,-6 z m 5.5,0 c -1.37891,0.004 -2.49609,1.35156 -2.49219,3.00781 0.004,1.42188 0.83594,2.64063 1.99219,2.92969 V 195 h 1 v -4.0625 c 1.35156,-0.34375 2.21484,-1.93359 1.92969,-3.55469 C 152.6875,186 151.67578,185.00781 150.5,185 Z m -5,1 1.5,5 h -3 z m 5,0 c 0.82812,0 1.5,0.89453 1.5,2 0,1.10547 -0.67188,2 -1.5,2 -0.82813,0 -1.5,-0.89453 -1.5,-2 0,-1.10547 0.67187,-2 1.5,-2 z m 26,3 c -1.37891,0.004 -2.49609,1.35156 -2.49219,3.00781 0.004,1.42188 0.83594,2.64063 1.99219,2.92969 V 199 h 1 v -4.0625 c 1.35156,-0.34375 2.21484,-1.93359 1.92969,-3.55469 C 178.6875,190 177.67578,189.00781 176.5,189 Z m 4.5,0 -2,6 v 1 h 2 v 3 h 1 v -3 h 2 v -1 l -2,-6 z m -4.5,1 c 0.82812,0 1.5,0.89453 1.5,2 0,1.10547 -0.67188,2 -1.5,2 -0.82813,0 -1.5,-0.89453 -1.5,-2 0,-1.10547 0.67187,-2 1.5,-2 z m 5,0 1.5,5 h -3 z m -125,4 c -1.378906,0.004 -2.496094,1.35156 -2.492188,3.00781 0.0039,1.42188 0.835938,2.64063 1.992188,2.92969 V 204 h 1 v -4.0625 c 1.351562,-0.34375 2.214844,-1.93359 1.929688,-3.55469 C 58.6875,195 57.675781,194.00781 56.5,194 Z m 4.5,0 -2,6 v 1 h 2 v 3 h 1 v -3 h 2 v -1 l -2,-6 z m -4.5,1 c 0.828125,0 1.5,0.89453 1.5,2 0,1.10547 -0.671875,2 -1.5,2 -0.828125,0 -1.5,-0.89453 -1.5,-2 0,-1.10547 0.671875,-2 1.5,-2 z m 5,0 1.5,5 h -3 z m 51,1 c -1.37891,0.004 -2.49609,1.35156 -2.49219,3.00781 0.004,1.42188 0.83594,2.64063 1.99219,2.92969 V 206 h 1 v -4.0625 c 1.35156,-0.34375 2.21484,-1.93359 1.92969,-3.55469 C 114.6875,197 113.67578,196.00781 112.5,196 Z m 4.5,0 -2,6 v 1 h 2 v 3 h 1 v -3 h 2 v -1 l -2,-6 z m -4.5,1 c 0.82813,0 1.5,0.89453 1.5,2 0,1.10547 -0.67187,2 -1.5,2 -0.82812,0 -1.5,-0.89453 -1.5,-2 0,-1.10547 0.67188,-2 1.5,-2 z m 5,0 1.5,5 h -3 z m 115.5,8 -2,6 v 1 h 2 v 3 h 1 v -3 h 2 v -1 l -2,-6 z m 5.5,0 c -1.37891,0.004 -2.49609,1.35156 -2.49219,3.00781 0.004,1.42188 0.83594,2.64063 1.99219,2.92969 V 215 h 1 v -4.0625 c 1.35156,-0.34375 2.21484,-1.93359 1.92969,-3.55469 C 240.6875,206 239.67578,205.00781 238.5,205 Z m -5,1 1.5,5 h -3 z m 5,0 c 0.82812,0 1.5,0.89453 1.5,2 0,1.10547 -0.67188,2 -1.5,2 -0.82813,0 -1.5,-0.89453 -1.5,-2 0,-1.10547 0.67187,-2 1.5,-2 z m -224,1 c -1.378906,0.004 -2.496094,1.35156 -2.492188,3.00781 0.0039,1.42188 0.835938,2.64063 1.992188,2.92969 V 217 h 1 v -4.0625 c 1.351562,-0.34375 2.214844,-1.93359 1.929688,-3.55469 C 16.6875,208 15.675781,207.00781 14.5,207 Z m 4.5,0 -2,6 v 1 h 2 v 3 h 1 v -3 h 2 v -1 l -2,-6 z m -4.5,1 c 0.828125,0 1.5,0.89453 1.5,2 0,1.10547 -0.671875,2 -1.5,2 -0.828125,0 -1.5,-0.89453 -1.5,-2 0,-1.10547 0.671875,-2 1.5,-2 z m 5,0 1.5,5 h -3 z m 183,0 c -1.37891,0.004 -2.49609,1.35156 -2.49219,3.00781 0.004,1.42188 0.83594,2.64063 1.99219,2.92969 V 218 h 1 v -4.0625 c 1.35156,-0.34375 2.21484,-1.93359 1.92969,-3.55469 C 204.6875,209 203.67578,208.00781 202.5,208 Z m 4.5,0 -2,6 v 1 h 2 v 3 h 1 v -3 h 2 v -1 l -2,-6 z m -4.5,1 c 0.82812,0 1.5,0.89453 1.5,2 0,1.10547 -0.67188,2 -1.5,2 -0.82813,0 -1.5,-0.89453 -1.5,-2 0,-1.10547 0.67187,-2 1.5,-2 z m 5,0 1.5,5 h -3 z m -129,2 c -1.378906,0.004 -2.496094,1.35156 -2.492188,3.00781 0.0039,1.42188 0.835938,2.64063 1.992188,2.92969 V 221 h 1 v -4.0625 c 1.351562,-0.34375 2.214844,-1.93359 1.929688,-3.55469 C 80.6875,212 79.675781,211.00781 78.5,211 Z m 4.5,0 -2,6 v 1 h 2 v 3 h 1 v -3 h 2 v -1 l -2,-6 z m -4.5,1 c 0.828125,0 1.5,0.89453 1.5,2 0,1.10547 -0.671875,2 -1.5,2 -0.828125,0 -1.5,-0.89453 -1.5,-2 0,-1.10547 0.671875,-2 1.5,-2 z m 5,0 1.5,5 h -3 z m 55,2 c -1.37891,0.004 -2.49609,1.35156 -2.49219,3.00781 0.004,1.42188 0.83594,2.64063 1.99219,2.92969 V 224 h 1 v -4.0625 c 1.35156,-0.34375 2.21484,-1.93359 1.92969,-3.55469 C 140.6875,215 139.67578,214.00781 138.5,214 Z m 4.5,0 -2,6 v 1 h 2 v 3 h 1 v -3 h 2 v -1 l -2,-6 z m -4.5,1 c 0.82812,0 1.5,0.89453 1.5,2 0,1.10547 -0.67188,2 -1.5,2 -0.82813,0 -1.5,-0.89453 -1.5,-2 0,-1.10547 0.67187,-2 1.5,-2 z m 5,0 1.5,5 h -3 z m -99.5,5 -2,6 v 1 h 2 v 3 h 1 v -3 h 2 v -1 l -2,-6 z m 5.5,0 c -1.378906,0.004 -2.496094,1.35156 -2.492188,3.00781 0.0039,1.42188 0.835938,2.64063 1.992188,2.92969 V 230 h 1 v -4.0625 c 1.351562,-0.34375 2.214844,-1.93359 1.929688,-3.55469 C 51.6875,221 50.675781,220.00781 49.5,220 Z m -5,1 1.5,5 h -3 z m 5,0 c 0.828125,0 1.5,0.89453 1.5,2 0,1.10547 -0.671875,2 -1.5,2 -0.828125,0 -1.5,-0.89453 -1.5,-2 0,-1.10547 0.671875,-2 1.5,-2 z m 119,2 c -1.37891,0.004 -2.49609,1.35156 -2.49219,3.00781 0.004,1.42188 0.83594,2.64063 1.99219,2.92969 V 233 h 1 v -4.0625 c 1.35156,-0.34375 2.21484,-1.93359 1.92969,-3.55469 C 170.6875,224 169.67578,223.00781 168.5,223 Z m 4.5,0 -2,6 v 1 h 2 v 3 h 1 v -3 h 2 v -1 l -2,-6 z m -4.5,1 c 0.82812,0 1.5,0.89453 1.5,2 0,1.10547 -0.67188,2 -1.5,2 -0.82813,0 -1.5,-0.89453 -1.5,-2 0,-1.10547 0.67187,-2 1.5,-2 z m 5,0 1.5,5 h -3 z m -67.5,10 -2,6 v 1 h 2 v 3 h 1 v -3 h 2 v -1 l -2,-6 z m 5.5,0 c -1.37891,0.004 -2.49609,1.35156 -2.49219,3.00781 0.004,1.42188 0.83594,2.64063 1.99219,2.92969 V 244 h 1 v -4.0625 c 1.35156,-0.34375 2.21484,-1.93359 1.92969,-3.55469 C 113.6875,235 112.67578,234.00781 111.5,234 Z m -5,1 1.5,5 h -3 z m 5,0 c 0.82813,0 1.5,0.89453 1.5,2 0,1.10547 -0.67187,2 -1.5,2 -0.82812,0 -1.5,-0.89453 -1.5,-2 0,-1.10547 0.67188,-2 1.5,-2 z m 106,3 c -1.37891,0.004 -2.49609,1.35156 -2.49219,3.00781 0.004,1.42188 0.83594,2.64063 1.99219,2.92969 V 248 h 1 v -4.0625 c 1.35156,-0.34375 2.21484,-1.93359 1.92969,-3.55469 C 219.6875,239 218.67578,238.00781 217.5,238 Z m 4.5,0 -2,6 v 1 h 2 v 3 h 1 v -3 h 2 v -1 l -2,-6 z m -4.5,1 c 0.82812,0 1.5,0.89453 1.5,2 0,1.10547 -0.67188,2 -1.5,2 -0.82813,0 -1.5,-0.89453 -1.5,-2 0,-1.10547 0.67187,-2 1.5,-2 z m 5,0 1.5,5 h -3 z m -201,1 c -1.378906,0.004 -2.496094,1.35156 -2.492188,3.00781 0.0039,1.42188 0.835938,2.64063 1.992188,2.92969 V 250 h 1 v -4.0625 c 1.351562,-0.34375 2.214844,-1.93359 1.929688,-3.55469 C 23.6875,241 22.675781,240.00781 21.5,240 Z m 4.5,0 -2,6 v 1 h 2 v 3 h 1 v -3 h 2 v -1 l -2,-6 z m -4.5,1 c 0.828125,0 1.5,0.89453 1.5,2 0,1.10547 -0.671875,2 -1.5,2 -0.828125,0 -1.5,-0.89453 -1.5,-2 0,-1.10547 0.671875,-2 1.5,-2 z m 5,0 1.5,5 h -3 z m 54,1 c -1.378906,0.004 -2.496094,1.35156 -2.492188,3.00781 0.0039,1.42188 0.835938,2.64063 1.992188,2.92969 V 252 h 1 v -4.0625 c 1.351562,-0.34375 2.214844,-1.93359 1.929688,-3.55469 C 82.6875,243 81.675781,242.00781 80.5,242 Z m 4.5,0 -2,6 v 1 h 2 v 3 h 1 v -3 h 2 v -1 l -2,-6 z m -4.5,1 c 0.828125,0 1.5,0.89453 1.5,2 0,1.10547 -0.671875,2 -1.5,2 -0.828125,0 -1.5,-0.89453 -1.5,-2 0,-1.10547 0.671875,-2 1.5,-2 z m 5,0 1.5,5 h -3 z m 161.5,1 -2,6 v 1 h 2 v 3 h 1 v -3 h 2 v -1 l -2,-6 z m 5.5,0 c -1.37891,0.004 -2.49609,1.35156 -2.49219,3.00781 0.004,1.42188 0.83594,2.64063 1.99219,2.92969 V 254 h 1 v -4.0625 c 1.35156,-0.34375 2.21484,-1.93359 1.92969,-3.55469 C 254.6875,245 253.67578,244.00781 252.5,244 Z m -5,1 1.5,5 h -3 z m 5,0 c 0.82812,0 1.5,0.89453 1.5,2 0,1.10547 -0.67188,2 -1.5,2 -0.82813,0 -1.5,-0.89453 -1.5,-2 0,-1.10547 0.67187,-2 1.5,-2 z m -63.5,1 -2,6 v 1 h 2 v 3 h 1 v -3 h 2 v -1 l -2,-6 z m 5.5,0 c -1.37891,0.004 -2.49609,1.35156 -2.49219,3.00781 0.004,1.42188 0.83594,2.64063 1.99219,2.92969 V 256 h 1 v -4.0625 c 1.35156,-0.34375 2.21484,-1.93359 1.92969,-3.55469 C 196.6875,247 195.67578,246.00781 194.5,246 Z m -5,1 1.5,5 h -3 z m 5,0 c 0.82812,0 1.5,0.89453 1.5,2 0,1.10547 -0.67188,2 -1.5,2 -0.82813,0 -1.5,-0.89453 -1.5,-2 0,-1.10547 0.67187,-2 1.5,-2 z m -41.5,1 -2,6 v 1 h 2 v 1 h 1 v -1 h 2 v -1 l -2,-6 z m 5.5,0 c -1.37891,0.004 -2.49609,1.35156 -2.49219,3.00781 0.004,1.42188 0.83594,2.64063 1.99219,2.92969 V 256 h 1 v -2.0625 c 1.35156,-0.34375 2.21484,-1.93359 1.92969,-3.55469 C 160.6875,249 159.67578,248.00781 158.5,248 Z m -5,1 1.5,5 h -3 z m 5,0 c 0.82812,0 1.5,0.89453 1.5,2 0,1.10547 -0.67188,2 -1.5,2 -0.82813,0 -1.5,-0.89453 -1.5,-2 0,-1.10547 0.67187,-2 1.5,-2 z m 0,0"
         id="path186" />
    </g>
    <pattern
       id="pattern0"
       patternUnits="userSpaceOnUse"
       width="256"
       height="256"
       patternTransform="matrix(1,0,0,1,-501.598902,-173.8022)">
      <use
         xlink:href="#surface6"
         id="use186" />
    </pattern>
    <clipPath
       id="clip1">
      <rect
         x="0"
         y="0"
         width="804"
         height="696"
         id="rect187" />
    </clipPath>
    <g
       id="surface8"
       clip-path="url(#clip1)">
      <path
         style="fill:url(#pattern0);fill-rule:evenodd;stroke:none"
         d="m -2771.9766,1731.8125 3.2969,31.9961 13.2578,8.8594 9.8828,0.1875 4.9805,-5.543 8.7305,-64.5 6.4609,-77.1172 11.8203,-127.9805 13.4649,-256.914 39.1132,-240.2852 11.9415,-65.64841 2.4687,-12.10938 18.9414,-70.74609 26.7656,-65.64844 21,-56.08984 28.8203,-56.08594 32.9415,-58 6.1757,-12.10938 18.1172,-38.8789 9.0586,-31.8711 11.1172,-60.55078 10.293,-48.4375 14.4101,-56.08984 24.7071,-70.74609 41.9961,-77.76172 18.1171,-29.32032 16.4688,-26.76953 23.8828,-28.67968 38.293,-51.62891 46.9375,-52.902344 44.0586,-53.539062 44.8789,-50.992188 54.3515,-43.976566 77,-56.08984 16.8789,-9.5625 55.586,-36.32812 40.3515,-31.8711 66.293,-70.75 57.6445,-75.21094 70.4102,-111.54296 55.1719,-92.42188 74.1172,-133.85156 30.4687,-60.55469 76.1719,-121.74219 69.5859,-140.86331 57.6446,-112.1836 63,-109.6328 39.1132,-79.6758 42,-85.414 27.1758,-92.4258 41.1719,-148.5156 43.6484,-158.0782 68.7618,-281.7382 20.1757,-126.211 23.46878,-112.1875 29.23438,-158.082 37.05859,-184.8555 22.23438,-116.6523 22.23437,-121.75 22.23438,-111.5508 18.9375,-56.0977 14,-43.9804 15.23437,-38.8867 14.82422,-40.7969 20.58594,-43.9844 33.35156,-70.7539 32.94141,-60.5586 29.72656,-60.0469 153.17187,-207.3007 186.60547,-234.9649 177.91406,-238.2851 250.92188,-306.6836 0.53516,-31.8125 -33.722661,-11.4102 -37.964844,13.707 -249.066405,307.1954 -269.85938,347.6093 -370.53125,513.8477 -625.44534,994.2109 -525.7226,901.1797 -194.3438,490.35548 -198.7929,521.26171 -150.2071,516.85157 -93.6719,548.01171 -91.0781,650.10543 -29.5234,386.6797 z m 0,0"
         id="path187" />
    </g>
  </defs>
  <g
     id="surface1"
     transform="translate(61.820794,53.326129)">
    <use
       xlink:href="#surface8"
       mask="url(#mask0)"
       id="use233"
       transform="matrix(0.80672029,0,0,0.80672029,-227.59531,-327.93572)" />
    <path
       style="fill:none;fill-opacity:1;fill-rule:evenodd;stroke:#000000;stroke-width:0.60504;stroke-linecap:butt;stroke-linejoin:miter;stroke-miterlimit:4;stroke-opacity:1"
       d="m 198.13873,-183.57375 67.99454,28.84654 10.62917,-18.25204 13.91908,7.30145 11.4611,-21.85392 -16.34238,-8.58716 75.5985,-144.12563 12.98947,-24.73417 5.34767,-10.23211 12.05669,-22.93166 75.66784,-144.28003 13.48735,7.09347 11.78883,-22.46842 -19.62914,-10.28568 5.44851,-10.38652 19.897,10.44009 3.28676,-6.27414 3.38759,-6.47897 8.60292,-16.40227 -76.03339,-39.85072 -23.65014,45.04399 10.39913,5.45166 -55.53765,105.81902 -7.77414,-4.06197 -12.09135,23.03565 7.4401,3.90755 -55.23827,105.30535 -8.63758,-4.57562 -12.02203,22.93166 6.84137,3.59873 -56.70046,108.03119 -9.53254,-4.98842 z m 0,0"
       id="path235" />
    <path
       style="fill:none;fill-opacity:1;fill-rule:evenodd;stroke:#000000;stroke-width:0.60504;stroke-linecap:butt;stroke-linejoin:miter;stroke-miterlimit:4;stroke-opacity:1"
       d="m -91.063063,176.6111 0.53255,93.0659 2.19327,-0.30882 3.8855,-0.25841 1.69222,4.01155 2.92437,1.84978 3.45377,1.69853 3.38758,-0.46324 4.05252,-2.36659 1.49684,-2.51785 2.22478,-0.20484 0.63025,7.96952 0.96429,5.55251 0.73109,2.72583 1.75839,2.67226 1.52836,2.46743 2.15861,2.2626 1.76155,2.15861 2.65651,2.00734 2.92436,2.2626 2.92436,1.59453 2.6565,1.38655 2.8897,1.08089 2.75735,0.40966 3.65229,0.15441 3.88864,-0.10084 4.51575,-1.08088 3.3876,-0.77206 3.58927,-1.38655 3.71847,-1.95377 3.95483,-2.72583 3.3875902,-3.6523 3.02205,-3.49475 2.1932699,-4.62918 1.66071,-9.86972 2.19011999,0.20483 3.68697001,5.08927 3.9548096,1.33614 5.5808703,-0.71849 2.82036,-1.3897 2.227937,-3.85399 22.320308,-1.74894 0.29937,-6.27414 2.75734,-1.33613 2.15862,-2.77626 1.22898,-4.88443 0.4979,-4.7836 -0.29937,-17.47999 7.80565,-0.66806 0.76576,-33.42218 -10.69536,-0.20483 2.32563,-3.44432 1.15966,-3.18906 0.16702,-2.15861 -0.19854,-2.16176 -1.82772,-3.34033 -2.95587,-3.29305 -4.44957,-1.28256 -2.92436,0.25525 -2.78886,1.08088 -2.29411,0.51366 4.021,-99.031229 0.29937,-11.61866 -4.84978,-0.3624 0.33089,-11.87706 -26.1081049,-0.61765 0.0347,-4.06196 -8.10501,0.25841 -0.33403,-8.07351 -18.3339801,-0.56408 -18.33713,-0.51365 -0.2332,8.48317 -35.97153,-0.30882 -0.4979,12.34029 -11.65962,-0.1544 -1.36134,38.152199 6.74053,0.2584 -3.22058,67.66366 z m 0,0"
       id="path236" />
    <path
       style="fill:none;fill-opacity:1;fill-rule:evenodd;stroke:#000000;stroke-width:0.60504;stroke-linecap:butt;stroke-linejoin:miter;stroke-miterlimit:4;stroke-opacity:1"
       d="m 191.19653,248.90395 116.35994,67.92207 34.17847,-60.62062 -109.78014,-65.71304 -4.38339,-2.62184 -6.51048,11.56824 z m 0,0"
       id="path239" />
    <path
       style="fill:none;fill-opacity:1;fill-rule:evenodd;stroke:#000000;stroke-width:0.60504;stroke-linecap:butt;stroke-linejoin:miter;stroke-miterlimit:4;stroke-opacity:1"
       d="m -199.86114,-129.78821 20.52725,8.22478 7.24159,-18.51047 17.0073,6.89179 9.99892,25.5535 -13.72055,-5.75733 -8.13653,23.650137 -9.89809,28.332891 23.61549,9.359229 21.46002,-14.139669 31.821334,-0.67122 -8.804594,-42.983058 -19.99469,-46.22571 -55.27296,-19.48733 -11.09556,32.08288 z m 0,0"
       id="path240" />
    <path
       style="fill:none;fill-opacity:1;fill-rule:evenodd;stroke:#000000;stroke-width:0.60504;stroke-linecap:butt;stroke-linejoin:miter;stroke-miterlimit:4;stroke-opacity:1"
       d="m 121.10955,27.654607 52.58178,17.275154 8.0735,-27.816094 -27.43795,-8.6911482 5.21532,-15.4757909 6.94221,-20.5682209 2.52415,-0.66807 2.92436,8.63758 44.80765,-18.51044 -12.38757,-27.456859 -4.21953,-9.255221 -43.67949,19.591331 0.43172,3.494729 -3.65545,1.74895 -3.58613,2.57142 -3.95166,3.49474 -3.92016,5.03885 -2.49264,5.19326 -0.92962,4.16595 -2.65651,0.61765 z m 0,0"
       id="path241" />
    <path
       style="fill:none;fill-opacity:1;fill-rule:evenodd;stroke:#000000;stroke-width:0.60504;stroke-linecap:butt;stroke-linejoin:miter;stroke-miterlimit:4;stroke-opacity:1"
       d="m 56.583672,124.87954 3.98633,0.51365 -1.19747,10.59135 41.987258,9.25523 17.93692,-85.301219 -46.868548,-9.87287 -8.76993,35.94002 z m 0,0"
       id="path242" />
    <path
       style="fill:none;fill-opacity:1;fill-rule:evenodd;stroke:#000000;stroke-width:0.60504;stroke-linecap:butt;stroke-linejoin:miter;stroke-miterlimit:4;stroke-opacity:1"
       d="m 280.91579,41.072631 15.80983,6.47897 9.36867,3.23949 6.61133,-17.738394 12.9863,-44.735159 19.72999,-59.3349 -21.92326,-30.028288 -1.96008,16.351847 z m 0,0"
       id="path243" />
    <path
       style="fill:none;fill-opacity:1;fill-rule:evenodd;stroke:#000000;stroke-width:0.60504;stroke-linecap:butt;stroke-linejoin:miter;stroke-miterlimit:4;stroke-opacity:1"
       d="m 173.69133,44.929761 65.47039,24.98942 15.61129,-38.924254 1.09664,-3.70272 -9.43169,-3.49473 -58.95991,-21.2362786 -5.71322,14.5524686 z m 0,0"
       id="path244" />
    <path
       style="fill:none;fill-opacity:1;fill-rule:evenodd;stroke:#000000;stroke-width:0.60504;stroke-linecap:butt;stroke-linejoin:miter;stroke-miterlimit:4;stroke-opacity:1"
       d="m 371.86405,235.12353 29.52722,20.51464 16.37705,10.49052 29.49571,-48.69313 -47.79817,-31.72365 z m 0,0"
       id="path246" />
    <path
       style="fill:none;fill-opacity:1;fill-rule:evenodd;stroke:#000000;stroke-width:0.60504;stroke-linecap:butt;stroke-linejoin:miter;stroke-miterlimit:4;stroke-opacity:1"
       d="m 335.72235,268.18645 11.42644,7.96952 24.71526,-41.03244 27.60181,-49.41162 -32.6186,-15.88861 -7.10922,2.93067 -11.69115,19.69216 1.12815,11.209 -9.16698,14.24365 9.26782,5.34768 -9.334,17.99679 1.22899,6.11659 -3.51995,6.37813 4.08402,2.46743 z m 0,0"
       id="path247" />
    <path
       style="fill:none;fill-opacity:1;fill-rule:evenodd;stroke:#000000;stroke-width:0.60504;stroke-linecap:butt;stroke-linejoin:miter;stroke-miterlimit:4;stroke-opacity:1"
       d="m 417.76832,266.12869 19.09974,11.72265 24.91379,18.56087 32.78247,-46.12171 -47.30029,-32.85494 z m 0,0"
       id="path248" />
    <path
       style="fill:none;fill-opacity:1;fill-rule:evenodd;stroke:#000000;stroke-width:0.60504;stroke-linecap:butt;stroke-linejoin:miter;stroke-miterlimit:4;stroke-opacity:1"
       d="m 210.7973,195.06797 10.26363,4.37079 6.51048,-11.56824 4.38339,2.62184 3.62079,-6.42541 6.27729,-1.69851 5.97793,-11.67224 15.44743,6.11972 7.50628,-19.07452 8.57141,-2.521 12.65542,-26.22155 -36.73729,-20.92747 -18.17011,35.47679 -5.91175,11.62181 z m 0,0"
       id="path249" />
    <path
       style="fill:none;fill-opacity:1;fill-rule:evenodd;stroke:#000000;stroke-width:0.60504;stroke-linecap:butt;stroke-linejoin:miter;stroke-miterlimit:4;stroke-opacity:1"
       d="m 380.46697,-331.09328 36.40325,19.1281 5.01679,-9.46006 25.14383,-47.76981 -36.43791,-19.17851 -12.32139,23.44845 -5.38234,10.1817 z m 0,0"
       id="path250" />
    <path
       style="fill:none;fill-opacity:1;fill-rule:evenodd;stroke:#000000;stroke-width:0.60504;stroke-linecap:butt;stroke-linejoin:miter;stroke-miterlimit:4;stroke-opacity:1"
       d="m -219.19406,-76.005803 42.35281,14.602891 9.89809,-28.332891 8.13653,-23.650137 -20.52726,-8.17749 -20.52725,-8.22478 z m 0,0"
       id="path251" />
    <path
       style="fill:none;fill-opacity:1;fill-rule:evenodd;stroke:#000000;stroke-width:0.60504;stroke-linecap:butt;stroke-linejoin:miter;stroke-miterlimit:4;stroke-opacity:1"
       d="m 239.16172,69.919181 51.75299,21.13229 2.29096,-5.24368 12.88862,-35.0167 -9.36867,-3.23949 -15.80983,-6.47897 -26.14278,-10.077704 z m 0,0"
       id="path252" />
    <path
       style="fill:none;fill-opacity:1;fill-rule:evenodd;stroke:#000000;stroke-width:0.60504;stroke-linecap:butt;stroke-linejoin:miter;stroke-miterlimit:4;stroke-opacity:1"
       d="m -153.22576,-52.043683 6.47897,31.67322 39.1606,-2.62184 10.695354,-7.96952 -3.05357,-35.892749 -31.821334,0.67122 z m 0,0"
       id="path253" />
    <path
       style="fill:none;fill-opacity:1;fill-rule:evenodd;stroke:#000000;stroke-width:0.60504;stroke-linecap:butt;stroke-linejoin:miter;stroke-miterlimit:4;stroke-opacity:1"
       d="m 312.70562,33.052697 21.22367,7.969514 18.53566,8.07351 18.33398,-39.2330822 -28.23206,-13.4716003 -16.87495,-8.0735005 z m 0,0"
       id="path254" />
    <path
       style="fill:none;fill-opacity:1;fill-rule:evenodd;stroke:#000000;stroke-width:0.60504;stroke-linecap:butt;stroke-linejoin:miter;stroke-miterlimit:4;stroke-opacity:1"
       d="m 323.49865,-101.04565 21.92326,30.028288 28.03667,-7.919101 -26.01042,-61.291837 -22.95056,11.7258 z m 0,0"
       id="path255" />
    <path
       style="fill:none;fill-opacity:1;fill-rule:evenodd;stroke:#000000;stroke-width:0.60504;stroke-linecap:butt;stroke-linejoin:miter;stroke-miterlimit:4;stroke-opacity:1"
       d="m 204.353,-65.619282 12.38757,27.456859 0.36554,3.80671 32.88646,10.12812 24.54509,7.55985 6.17961,-26.0703 z m 0,0"
       id="path256" />
    <path
       style="fill:none;fill-opacity:1;fill-rule:evenodd;stroke:#000000;stroke-width:0.60504;stroke-linecap:butt;stroke-linejoin:miter;stroke-miterlimit:4;stroke-opacity:1"
       d="m 286.19729,-64.847222 19.13439,0.40967 3.02206,-21.904351 13.18483,1.6481 1.96008,-16.351847 0.99895,-27.45685 -33.18583,16.91592 z m 0,0"
       id="path257" />
    <path
       style="fill:none;fill-opacity:1;fill-rule:evenodd;stroke:#000000;stroke-width:0.60504;stroke-linecap:butt;stroke-linejoin:miter;stroke-miterlimit:4;stroke-opacity:1"
       d="m 325.69192,-11.682462 16.87495,8.0735005 8.47056,-20.8234615 22.42115,-54.50404 -28.03667,7.919101 z m 0,0"
       id="path258" />
    <path
       style="fill:none;fill-opacity:1;fill-rule:evenodd;stroke:#000000;stroke-width:0.60504;stroke-linecap:butt;stroke-linejoin:miter;stroke-miterlimit:4;stroke-opacity:1"
       d="m 114.26818,114.66065 50.78557,17.22474 4.38654,-14.65332 2.95587,-11.00102 -50.29081,-15.992599 z m 0,0"
       id="path259" />
    <path
       style="fill:none;fill-opacity:1;fill-rule:evenodd;stroke:#000000;stroke-width:0.60504;stroke-linecap:butt;stroke-linejoin:miter;stroke-miterlimit:4;stroke-opacity:1"
       d="m 351.03743,-24.432423 21.55771,8.84241 22.38649,-54.504039 -21.52305,-8.842411 z m 0,0"
       id="path260" />
    <path
       style="fill:none;fill-opacity:1;fill-rule:evenodd;stroke:#000000;stroke-width:0.60504;stroke-linecap:butt;stroke-linejoin:miter;stroke-miterlimit:4;stroke-opacity:1"
       d="m 293.20567,85.807791 20.59343,8.01993 20.13019,-52.80551 -21.22367,-7.969514 -6.61133,17.738394 z m 0,0"
       id="path261" />
    <path
       style="fill:none;fill-opacity:1;fill-rule:evenodd;stroke:#000000;stroke-width:0.60504;stroke-linecap:butt;stroke-linejoin:miter;stroke-miterlimit:4;stroke-opacity:1"
       d="m -190.06075,47.141941 17.8361,5.65335 20.95897,3.90755 5.08297,-27.970514 -34.54404,-13.31718 v 0.10399 z m 0,0"
       id="path262" />
    <path
       style="fill:none;fill-opacity:1;fill-rule:evenodd;stroke:#000000;stroke-width:0.60504;stroke-linecap:butt;stroke-linejoin:miter;stroke-miterlimit:4;stroke-opacity:1"
       d="m 241.35499,8.5265088 12.2237,3.3938992 10.76152,2.98108 10.19745,-31.569231 -24.54509,-7.55985 z m 0,0"
       id="path263" />
    <path
       style="fill:none;fill-opacity:1;fill-rule:evenodd;stroke:#000000;stroke-width:0.60504;stroke-linecap:butt;stroke-linejoin:miter;stroke-miterlimit:4;stroke-opacity:1"
       d="m 154.32688,8.4225188 27.43795,8.6911482 5.71322,-14.5524686 2.72268,-8.5871605 -11.95585,-3.8035695 -2.25944,6.93905 -16.44324,-4.1627905 z m 0,0"
       id="path264" />
    <path
       style="fill:none;fill-opacity:1;fill-rule:evenodd;stroke:#000000;stroke-width:0.60504;stroke-linecap:butt;stroke-linejoin:miter;stroke-miterlimit:4;stroke-opacity:1"
       d="m 205.94753,146.06917 25.24467,9.10081 5.91175,-11.62181 -25.94425,-9.71846 z m 0,0"
       id="path265" />
    <path
       style="fill:none;fill-opacity:1;fill-rule:evenodd;stroke:#000000;stroke-width:0.60504;stroke-linecap:butt;stroke-linejoin:miter;stroke-miterlimit:4;stroke-opacity:1"
       d="m 246.43796,23.797477 9.43169,3.49473 8.47056,-12.390719 -10.76152,-2.98108 z m 0,0"
       id="path266" />
    <path
       style="fill:none;stroke:#000000;stroke-width:8.87392;stroke-linecap:round;stroke-linejoin:round;stroke-miterlimit:4;stroke-opacity:1"
       d="M 335.72235,132.75198 303.76866,194.5039"
       id="path283" />
    <path
       style="fill:none;stroke:#000000;stroke-width:4.43696;stroke-linecap:round;stroke-linejoin:round;stroke-miterlimit:4;stroke-opacity:1"
       d="m 57.466882,20.762817 -6.74051,65.763454 -3.39075,45.144839 3.18907,21.80035 6.74367,17.94638 9.00313,8.8424 10.96004,9.05039 11.59346,0.82249 9.831896,1.84978 15.942172,-61.75192"
       id="path284" />
    <path
       style="fill:none;stroke:#000000;stroke-width:4.43696;stroke-linecap:round;stroke-linejoin:round;stroke-miterlimit:4;stroke-opacity:1"
       d="m 98.656888,191.9829 30.957882,18.2552"
       id="path287" />
    <path
       style="fill:none;stroke:#000000;stroke-width:4.43696;stroke-linecap:round;stroke-linejoin:round;stroke-miterlimit:4;stroke-opacity:1"
       d="m 359.7727,123.18794 11.12707,-33.422179 -1.32983,-20.66905 4.21953,-28.3329 10.23211,-50.5429226 8.03569,-27.8160914 10.83085,-25.966309 11.22791,-25.503071 -27.63647,-41.445267"
       id="path288" />
    <path
       style="fill:none;stroke:#000000;stroke-width:4.43696;stroke-linecap:round;stroke-linejoin:round;stroke-miterlimit:4;stroke-opacity:1"
       d="m 423.01516,-214.83416 -6.07877,-12.70269 -28.66378,-53.732 -22.72052,-11.61866"
       id="path289" />
    <path
       style="fill:none;stroke:#000000;stroke-width:8.87392;stroke-linecap:round;stroke-linejoin:round;stroke-miterlimit:4;stroke-opacity:1"
       d="m -108.48115,-172.72399 22.320323,52.75509"
       id="path291" />
    <path
       style="fill:none;stroke:#000000;stroke-width:4.43696;stroke-linecap:round;stroke-linejoin:round;stroke-miterlimit:4;stroke-opacity:1"
       d="m 349.77378,140.25827 9.99892,-17.07033"
       id="path292" />
    <path
       style="fill:none;stroke:#000000;stroke-width:4.43696;stroke-linecap:round;stroke-linejoin:round;stroke-miterlimit:4;stroke-opacity:1"
       d="m 184.35516,-96.983676 -5.18066,-17.224744 -5.34767,-13.52517 11.39177,-46.27611 31.82133,-109.26334"
       id="path293" />
    <path
       style="fill:none;stroke:#000000;stroke-width:13.7142;stroke-linecap:round;stroke-linejoin:round;stroke-miterlimit:4;stroke-opacity:1"
       d="m 914.62284,447.06408 -19.5661,-9.20165 -93.4377,-43.85912 -213.9825,-100.881 -24.71213,-13.36761 -110.47656,-77.17729 -45.14168,-31.4684 -57.53239,-30.85074 -14.05143,-7.50629 -74.50503,-37.124885 -145.91868,-51.724644 -2.8897,-2.10818 -17.905398,-13.061944"
       id="path294" />
    <path
       style="fill:none;stroke:#000000;stroke-width:13.7142;stroke-linecap:round;stroke-linejoin:round;stroke-miterlimit:4;stroke-opacity:1"
       d="m -73.171376,0.09375841 31.852849,4.78044999 98.785409,15.8886086 37.03666,7.96951"
       id="path295" />
    <path
       style="fill:none;stroke:#000000;stroke-width:13.7142;stroke-linecap:round;stroke-linejoin:round;stroke-miterlimit:4;stroke-opacity:1"
       d="M -73.171376,0.09375841 -69.585246,-58.831482 -86.160827,-119.9689"
       id="path296" />
    <path
       style="fill:none;stroke:#000000;stroke-width:13.7142;stroke-linecap:round;stroke-linejoin:round;stroke-miterlimit:4;stroke-opacity:1"
       d="m -718.77136,-176.11789 30.12912,14.86129 45.70574,13.42118 55.93471,9.86971 63.34645,12.4443 87.62369,19.79616 26.27513,7.969504 42.41899,14.243663 98.1205,33.16377 107.08898,44.1175109 56.43576,41.3916791"
       id="path297" />
    <path
       style="fill:none;stroke:#000000;stroke-width:13.7142;stroke-linecap:round;stroke-linejoin:round;stroke-miterlimit:4;stroke-opacity:1"
       d="m 94.503542,28.732327 8.237368,-31.4148186 8.5714,-45.0439814 7.37392,-14.498909 9.73107,-7.91909"
       id="path298" />
    <path
       style="fill:none;stroke:#000000;stroke-width:13.7142;stroke-linecap:round;stroke-linejoin:round;stroke-miterlimit:4;stroke-opacity:1"
       d="m 128.4173,-70.144472 8.90228,-5.038851 18.53566,-9.51048 28.49992,-12.289873 45.47255,-22.830814 193.18745,-95.01967 113.40408,-55.12169 54.80656,-25.60707 129.87564,-57.68996 26.2751,-5.7069 271.77646,-54.29922 112.1751,-26.47995 67.3612,-31.41798 40.4936,-21.85393 17.0388,-9.15123"
       id="path299" />
    <path
       style="fill:none;stroke:#000000;stroke-width:13.7142;stroke-linecap:round;stroke-linejoin:round;stroke-miterlimit:4;stroke-opacity:1"
       d="m -119.37817,270.49947 0.26785,-37.84338 3.78466,-96.97345 9.63337,-100.521763 32.520914,-35.06711859"
       id="path300" />
    <path
       style="fill:none;stroke:#ffffff;stroke-width:2.90419;stroke-linecap:round;stroke-linejoin:round;stroke-miterlimit:4;stroke-opacity:0.4"
       d="m -218.52915,442.43804 -16.47474,5.08927 -35.17742,-37.84337 -58.8244,-29.41063 -87.16045,-50.95258 -23.75099,-12.75311 -30.56083,-19.53776 -45.60491,-37.8938 -92.60896,-46.38012"
       id="path308" />
    <path
       style="fill:none;stroke:#fa7f70;stroke-width:1.29075;stroke-linecap:round;stroke-linejoin:round;stroke-miterlimit:4;stroke-dasharray:0.80672, 3.22688, 1.61344, 2.42016;stroke-opacity:1"
       d="m -218.52915,442.43804 -16.47474,5.08927 -35.17742,-37.84337 -58.8244,-29.41063 -87.16045,-50.95258 -23.75099,-12.75311 -30.56083,-19.53776 -45.60491,-37.8938 -92.60896,-46.38012"
       id="path309" />
    <path
       style="fill:none;stroke:#ffffff;stroke-width:7.58317;stroke-linecap:round;stroke-linejoin:round;stroke-miterlimit:4;stroke-opacity:1"
       d="M 335.72235,132.75198 303.76866,194.5039"
       id="path320" />
    <path
       style="fill:none;stroke:#ffffff;stroke-width:3.14621;stroke-linecap:round;stroke-linejoin:round;stroke-miterlimit:4;stroke-opacity:1;paint-order:normal"
       d="m 57.466882,20.762817 -6.74051,65.763454 -3.39075,45.144839 3.18907,21.80035 6.74367,17.94638 9.00313,8.8424 10.96004,9.05039 11.59346,0.82249 9.831896,1.84978 15.942172,-61.75192"
       id="path322" />
    <path
       style="fill:none;stroke:#ffffff;stroke-width:3.14621;stroke-linecap:round;stroke-linejoin:round;stroke-miterlimit:4;stroke-opacity:1"
       d="m 98.656888,191.9829 30.957882,18.2552"
       id="path328" />
    <path
       style="fill:none;stroke:#ffffff;stroke-width:3.14621;stroke-linecap:round;stroke-linejoin:round;stroke-miterlimit:4;stroke-opacity:1"
       d="m 359.7727,123.18794 11.12707,-33.422179 -1.32983,-20.66905 4.21953,-28.3329 10.23211,-50.5429226 8.03569,-27.8160914 10.83085,-25.966309 11.22791,-25.503071 -27.63647,-41.445267"
       id="path330" />
    <path
       style="fill:none;stroke:#ffffff;stroke-width:3.14621;stroke-linecap:round;stroke-linejoin:round;stroke-miterlimit:4;stroke-opacity:1"
       d="m 423.01516,-214.83416 -6.07877,-12.70269 -28.66378,-53.732 -22.72052,-11.61866"
       id="path332" />
    <path
       style="fill:none;stroke:#ffffff;stroke-width:7.58317;stroke-linecap:round;stroke-linejoin:round;stroke-miterlimit:4;stroke-opacity:1"
       d="m -108.48115,-172.72399 22.320323,52.75509"
       id="path335" />
    <path
       style="fill:none;stroke:#ffffff;stroke-width:3.14621;stroke-linecap:round;stroke-linejoin:round;stroke-miterlimit:4;stroke-opacity:1"
       d="m 349.77378,140.25827 9.99892,-17.07033"
       id="path336" />
    <path
       style="fill:none;stroke:#ffffff;stroke-width:3.14621;stroke-linecap:round;stroke-linejoin:round;stroke-miterlimit:4;stroke-opacity:1"
       d="m 184.35516,-96.983676 -5.18066,-17.224744 -5.34767,-13.52517 11.39177,-46.27611 31.82133,-109.26334"
       id="path337" />
    <path
       style="fill:none;stroke:#ffffff;stroke-width:12.4235;stroke-linecap:round;stroke-linejoin:round;stroke-miterlimit:4;stroke-opacity:1"
       d="m 914.62284,447.06408 -19.5661,-9.20165 -93.4377,-43.85912 -213.9825,-100.881 -24.71213,-13.36761 -110.47656,-77.17729 -45.14168,-31.4684 -57.53239,-30.85074 -14.05143,-7.50629 -74.50503,-37.124885 -145.91868,-51.724644 -2.8897,-2.10818 -17.905398,-13.061944"
       id="path338" />
    <path
       style="fill:none;stroke:#ffffff;stroke-width:12.4235;stroke-linecap:round;stroke-linejoin:round;stroke-miterlimit:4;stroke-opacity:1"
       d="m -73.171376,0.09375841 31.852849,4.78044999 98.785409,15.8886086 37.03666,7.96951"
       id="path339" />
    <path
       style="fill:none;stroke:#ffffff;stroke-width:12.4235;stroke-linecap:round;stroke-linejoin:round;stroke-miterlimit:4;stroke-opacity:1"
       d="M -73.171376,0.09375841 -69.585246,-58.831482 -86.160827,-119.9689"
       id="path340" />
    <path
       style="fill:none;stroke:#ffffff;stroke-width:12.4235;stroke-linecap:round;stroke-linejoin:round;stroke-miterlimit:4;stroke-opacity:1"
       d="m -718.77136,-176.11789 30.12912,14.86129 45.70574,13.42118 55.93471,9.86971 63.34645,12.4443 87.62369,19.79616 26.27513,7.969504 42.41899,14.243663 98.1205,33.16377 107.08898,44.1175109 56.43576,41.3916791"
       id="path341" />
    <path
       style="opacity:1;fill:none;stroke:#ffffff;stroke-width:12.4235;stroke-linecap:round;stroke-linejoin:round;stroke-miterlimit:4;stroke-dasharray:none;stroke-dashoffset:0;stroke-opacity:1"
       d="m 94.503542,28.616277 8.237368,-31.4148086 8.5714,-45.0439914 7.37392,-14.498909 9.73107,-7.91909"
       id="path342" />
    <path
       style="fill:none;stroke:#ffffff;stroke-width:12.4235;stroke-linecap:round;stroke-linejoin:round;stroke-miterlimit:4;stroke-opacity:1"
       d="m 128.4173,-70.144472 8.90228,-5.038851 18.53566,-9.51048 28.49992,-12.289873 45.47255,-22.830814 193.18745,-95.01967 113.40408,-55.12169 54.80656,-25.60707 129.87564,-57.68996 26.2751,-5.7069 271.77646,-54.29922 112.1751,-26.47995 67.3612,-31.41798 40.4936,-21.85393 17.0388,-9.15123"
       id="path343" />
    <path
       style="fill:none;stroke:#ffffff;stroke-width:12.4235;stroke-linecap:round;stroke-linejoin:round;stroke-miterlimit:4;stroke-opacity:1"
       d="m -119.37817,270.49947 0.26785,-37.84338 3.78466,-96.97345 9.63337,-100.521763 32.520914,-35.06711859"
       id="path344" />
  </g>
</svg>
